<mxfile host="app.diagrams.net" modified="2023-02-10T20:03:08.994Z" agent="5.0 (Macintosh; Intel Mac OS X 10_15_7) AppleWebKit/537.36 (KHTML, like Gecko) Chrome/109.0.0.0 Safari/537.36" etag="w2odEHbWbE9bBMTnII1I" version="20.7.4" type="github" pages="3">
  <diagram id="TaE2ys9rEfVsJn4JcLC4" name="[0] bgp">
    <mxGraphModel dx="2074" dy="1074" grid="0" gridSize="2" guides="1" tooltips="1" connect="1" arrows="1" fold="1" page="1" pageScale="1" pageWidth="827" pageHeight="1169" background="#4D5766" math="0" shadow="0">
      <root>
        <mxCell id="0" />
        <mxCell id="1" parent="0" />
        <mxCell id="Q95-SlDKpTRxNVJRLP6k-76" value="" style="rounded=0;whiteSpace=wrap;html=1;fontFamily=Manrope;fontSize=8;fontSource=https%3A%2F%2Ffonts.googleapis.com%2Fcss%3Ffamily%3DManrope;connectable=0;allowArrows=0;fillColor=none;dashed=1;strokeColor=#001135;" parent="1" vertex="1">
          <mxGeometry x="378" y="397" width="48" height="44" as="geometry" />
        </mxCell>
        <mxCell id="Q95-SlDKpTRxNVJRLP6k-80" value="" style="rounded=0;whiteSpace=wrap;html=1;fontFamily=Manrope;fontSize=8;fontSource=https%3A%2F%2Ffonts.googleapis.com%2Fcss%3Ffamily%3DManrope;connectable=0;allowArrows=0;fillColor=none;dashed=1;strokeColor=#001135;" parent="1" vertex="1">
          <mxGeometry x="315" y="265" width="48" height="44" as="geometry" />
        </mxCell>
        <mxCell id="Q95-SlDKpTRxNVJRLP6k-78" value="" style="rounded=0;whiteSpace=wrap;html=1;fontFamily=Manrope;fontSize=8;fontSource=https%3A%2F%2Ffonts.googleapis.com%2Fcss%3Ffamily%3DManrope;connectable=0;allowArrows=0;fillColor=none;dashed=1;strokeColor=#001135;" parent="1" vertex="1">
          <mxGeometry x="214" y="265" width="48" height="44" as="geometry" />
        </mxCell>
        <mxCell id="Q95-SlDKpTRxNVJRLP6k-3" style="rounded=0;orthogonalLoop=1;jettySize=auto;html=1;exitX=0.5;exitY=0;exitDx=0;exitDy=0;startSize=6;endArrow=none;endFill=0;endSize=2;fontFamily=Manrope;fontSize=8;strokeColor=#98A2AE;fontSource=https%3A%2F%2Ffonts.googleapis.com%2Fcss%3Ffamily%3DManrope;entryX=0.5;entryY=1;entryDx=0;entryDy=0;" parent="1" source="Q95-SlDKpTRxNVJRLP6k-14" target="Q95-SlDKpTRxNVJRLP6k-56" edge="1">
          <mxGeometry relative="1" as="geometry">
            <mxPoint x="181" y="326" as="sourcePoint" />
            <mxPoint x="218" y="302" as="targetPoint" />
          </mxGeometry>
        </mxCell>
        <mxCell id="Q95-SlDKpTRxNVJRLP6k-4" style="rounded=0;orthogonalLoop=1;jettySize=auto;html=1;exitX=0.5;exitY=0;exitDx=0;exitDy=0;entryX=0.5;entryY=1;entryDx=0;entryDy=0;startSize=6;endArrow=none;endFill=0;endSize=2;fontFamily=Manrope;fontSize=8;strokeColor=#98A2AE;fontSource=https%3A%2F%2Ffonts.googleapis.com%2Fcss%3Ffamily%3DManrope;" parent="1" source="Q95-SlDKpTRxNVJRLP6k-14" target="Q95-SlDKpTRxNVJRLP6k-50" edge="1">
          <mxGeometry relative="1" as="geometry">
            <mxPoint x="181" y="326" as="sourcePoint" />
            <mxPoint x="261" y="302" as="targetPoint" />
          </mxGeometry>
        </mxCell>
        <mxCell id="Q95-SlDKpTRxNVJRLP6k-5" style="rounded=0;orthogonalLoop=1;jettySize=auto;html=1;exitX=0.5;exitY=0;exitDx=0;exitDy=0;entryX=0.5;entryY=1;entryDx=0;entryDy=0;startSize=6;endArrow=none;endFill=0;endSize=2;fontFamily=Manrope;fontSize=8;strokeColor=#98A2AE;fontSource=https%3A%2F%2Ffonts.googleapis.com%2Fcss%3Ffamily%3DManrope;" parent="1" source="Q95-SlDKpTRxNVJRLP6k-20" target="Q95-SlDKpTRxNVJRLP6k-56" edge="1">
          <mxGeometry relative="1" as="geometry">
            <mxPoint x="283" y="326" as="sourcePoint" />
            <mxPoint x="203" y="302" as="targetPoint" />
          </mxGeometry>
        </mxCell>
        <mxCell id="Q95-SlDKpTRxNVJRLP6k-6" style="rounded=0;orthogonalLoop=1;jettySize=auto;html=1;exitX=0.5;exitY=0;exitDx=0;exitDy=0;entryX=0.5;entryY=1;entryDx=0;entryDy=0;startSize=6;endArrow=none;endFill=0;endSize=2;fontFamily=Manrope;fontSize=8;strokeColor=#98A2AE;fontSource=https%3A%2F%2Ffonts.googleapis.com%2Fcss%3Ffamily%3DManrope;" parent="1" source="Q95-SlDKpTRxNVJRLP6k-20" target="Q95-SlDKpTRxNVJRLP6k-50" edge="1">
          <mxGeometry relative="1" as="geometry">
            <mxPoint x="283" y="326" as="sourcePoint" />
            <mxPoint x="261" y="302" as="targetPoint" />
          </mxGeometry>
        </mxCell>
        <mxCell id="Q95-SlDKpTRxNVJRLP6k-49" value="" style="group;fontFamily=Manrope;fontSource=https%3A%2F%2Ffonts.googleapis.com%2Fcss%3Ffamily%3DManrope;" parent="1" vertex="1" connectable="0">
          <mxGeometry x="324" y="270" width="30" height="30" as="geometry" />
        </mxCell>
        <mxCell id="Q95-SlDKpTRxNVJRLP6k-50" value="" style="whiteSpace=wrap;html=1;aspect=fixed;fillColor=#001135;strokeColor=none;connectable=1;allowArrows=1;fontFamily=Manrope;fontSource=https%3A%2F%2Ffonts.googleapis.com%2Fcss%3Ffamily%3DManrope;" parent="Q95-SlDKpTRxNVJRLP6k-49" vertex="1">
          <mxGeometry width="30" height="30" as="geometry" />
        </mxCell>
        <mxCell id="Q95-SlDKpTRxNVJRLP6k-51" value="" style="endArrow=open;html=1;edgeStyle=orthogonalEdgeStyle;rounded=0;endFill=0;startSize=6;endSize=2;strokeColor=#FFFFFF;fontFamily=Manrope;fontSource=https%3A%2F%2Ffonts.googleapis.com%2Fcss%3Ffamily%3DManrope;" parent="Q95-SlDKpTRxNVJRLP6k-49" edge="1">
          <mxGeometry width="50" height="50" relative="1" as="geometry">
            <mxPoint x="3" y="12" as="sourcePoint" />
            <mxPoint x="11" y="3" as="targetPoint" />
            <Array as="points">
              <mxPoint x="11" y="12" />
            </Array>
          </mxGeometry>
        </mxCell>
        <mxCell id="Q95-SlDKpTRxNVJRLP6k-52" value="" style="endArrow=open;html=1;edgeStyle=orthogonalEdgeStyle;rounded=0;endFill=0;startSize=6;endSize=2;strokeColor=#FFFFFF;fontFamily=Manrope;fontSource=https%3A%2F%2Ffonts.googleapis.com%2Fcss%3Ffamily%3DManrope;" parent="Q95-SlDKpTRxNVJRLP6k-49" edge="1">
          <mxGeometry width="50" height="50" relative="1" as="geometry">
            <mxPoint x="11" y="27" as="sourcePoint" />
            <mxPoint x="3" y="19" as="targetPoint" />
            <Array as="points">
              <mxPoint x="11" y="19" />
            </Array>
          </mxGeometry>
        </mxCell>
        <mxCell id="Q95-SlDKpTRxNVJRLP6k-53" value="" style="endArrow=open;html=1;edgeStyle=orthogonalEdgeStyle;rounded=0;endFill=0;startSize=6;endSize=2;strokeColor=#FFFFFF;fontFamily=Manrope;fontSource=https%3A%2F%2Ffonts.googleapis.com%2Fcss%3Ffamily%3DManrope;" parent="Q95-SlDKpTRxNVJRLP6k-49" edge="1">
          <mxGeometry width="50" height="50" relative="1" as="geometry">
            <mxPoint x="18" y="3" as="sourcePoint" />
            <mxPoint x="27" y="12" as="targetPoint" />
            <Array as="points">
              <mxPoint x="18" y="12" />
            </Array>
          </mxGeometry>
        </mxCell>
        <mxCell id="Q95-SlDKpTRxNVJRLP6k-54" value="" style="endArrow=open;html=1;edgeStyle=orthogonalEdgeStyle;rounded=0;endFill=0;startSize=6;endSize=2;strokeColor=#FFFFFF;fontFamily=Manrope;fontSource=https%3A%2F%2Ffonts.googleapis.com%2Fcss%3Ffamily%3DManrope;" parent="Q95-SlDKpTRxNVJRLP6k-49" edge="1">
          <mxGeometry width="50" height="50" relative="1" as="geometry">
            <mxPoint x="27" y="19" as="sourcePoint" />
            <mxPoint x="18" y="27" as="targetPoint" />
            <Array as="points">
              <mxPoint x="18" y="19" />
            </Array>
          </mxGeometry>
        </mxCell>
        <mxCell id="Q95-SlDKpTRxNVJRLP6k-55" value="" style="group;fontFamily=Manrope;fontSource=https%3A%2F%2Ffonts.googleapis.com%2Fcss%3Ffamily%3DManrope;" parent="1" vertex="1" connectable="0">
          <mxGeometry x="222" y="272" width="30" height="30" as="geometry" />
        </mxCell>
        <mxCell id="Q95-SlDKpTRxNVJRLP6k-56" value="" style="whiteSpace=wrap;html=1;aspect=fixed;fillColor=#001135;strokeColor=none;connectable=1;allowArrows=1;fontFamily=Manrope;fontSource=https%3A%2F%2Ffonts.googleapis.com%2Fcss%3Ffamily%3DManrope;" parent="Q95-SlDKpTRxNVJRLP6k-55" vertex="1">
          <mxGeometry width="30" height="30" as="geometry" />
        </mxCell>
        <mxCell id="Q95-SlDKpTRxNVJRLP6k-57" value="" style="endArrow=open;html=1;edgeStyle=orthogonalEdgeStyle;rounded=0;endFill=0;startSize=6;endSize=2;strokeColor=#FFFFFF;fontFamily=Manrope;fontSource=https%3A%2F%2Ffonts.googleapis.com%2Fcss%3Ffamily%3DManrope;" parent="Q95-SlDKpTRxNVJRLP6k-55" edge="1">
          <mxGeometry width="50" height="50" relative="1" as="geometry">
            <mxPoint x="3" y="12" as="sourcePoint" />
            <mxPoint x="11" y="3" as="targetPoint" />
            <Array as="points">
              <mxPoint x="11" y="12" />
            </Array>
          </mxGeometry>
        </mxCell>
        <mxCell id="Q95-SlDKpTRxNVJRLP6k-58" value="" style="endArrow=open;html=1;edgeStyle=orthogonalEdgeStyle;rounded=0;endFill=0;startSize=6;endSize=2;strokeColor=#FFFFFF;fontFamily=Manrope;fontSource=https%3A%2F%2Ffonts.googleapis.com%2Fcss%3Ffamily%3DManrope;" parent="Q95-SlDKpTRxNVJRLP6k-55" edge="1">
          <mxGeometry width="50" height="50" relative="1" as="geometry">
            <mxPoint x="11" y="27" as="sourcePoint" />
            <mxPoint x="3" y="19" as="targetPoint" />
            <Array as="points">
              <mxPoint x="11" y="19" />
            </Array>
          </mxGeometry>
        </mxCell>
        <mxCell id="Q95-SlDKpTRxNVJRLP6k-59" value="" style="endArrow=open;html=1;edgeStyle=orthogonalEdgeStyle;rounded=0;endFill=0;startSize=6;endSize=2;strokeColor=#FFFFFF;fontFamily=Manrope;fontSource=https%3A%2F%2Ffonts.googleapis.com%2Fcss%3Ffamily%3DManrope;" parent="Q95-SlDKpTRxNVJRLP6k-55" edge="1">
          <mxGeometry width="50" height="50" relative="1" as="geometry">
            <mxPoint x="18" y="3" as="sourcePoint" />
            <mxPoint x="27" y="12" as="targetPoint" />
            <Array as="points">
              <mxPoint x="18" y="12" />
            </Array>
          </mxGeometry>
        </mxCell>
        <mxCell id="Q95-SlDKpTRxNVJRLP6k-60" value="" style="endArrow=open;html=1;edgeStyle=orthogonalEdgeStyle;rounded=0;endFill=0;startSize=6;endSize=2;strokeColor=#FFFFFF;fontFamily=Manrope;fontSource=https%3A%2F%2Ffonts.googleapis.com%2Fcss%3Ffamily%3DManrope;" parent="Q95-SlDKpTRxNVJRLP6k-55" edge="1">
          <mxGeometry width="50" height="50" relative="1" as="geometry">
            <mxPoint x="27" y="19" as="sourcePoint" />
            <mxPoint x="18" y="27" as="targetPoint" />
            <Array as="points">
              <mxPoint x="18" y="19" />
            </Array>
          </mxGeometry>
        </mxCell>
        <mxCell id="Q95-SlDKpTRxNVJRLP6k-67" style="rounded=0;orthogonalLoop=1;jettySize=auto;html=1;exitX=0.5;exitY=0;exitDx=0;exitDy=0;entryX=0.5;entryY=1;entryDx=0;entryDy=0;startSize=6;endArrow=none;endFill=0;endSize=2;fontFamily=Manrope;fontSize=8;strokeColor=#98A2AE;fontSource=https%3A%2F%2Ffonts.googleapis.com%2Fcss%3Ffamily%3DManrope;" parent="1" source="Q95-SlDKpTRxNVJRLP6k-62" target="Q95-SlDKpTRxNVJRLP6k-56" edge="1">
          <mxGeometry relative="1" as="geometry">
            <mxPoint x="183" y="328" as="sourcePoint" />
            <mxPoint x="205" y="304" as="targetPoint" />
          </mxGeometry>
        </mxCell>
        <mxCell id="Q95-SlDKpTRxNVJRLP6k-68" style="rounded=0;orthogonalLoop=1;jettySize=auto;html=1;exitX=0.5;exitY=1;exitDx=0;exitDy=0;entryX=0.5;entryY=0;entryDx=0;entryDy=0;startSize=6;endArrow=none;endFill=0;endSize=2;fontFamily=Manrope;fontSize=8;strokeColor=#98A2AE;fontSource=https%3A%2F%2Ffonts.googleapis.com%2Fcss%3Ffamily%3DManrope;" parent="1" source="Q95-SlDKpTRxNVJRLP6k-50" target="Q95-SlDKpTRxNVJRLP6k-62" edge="1">
          <mxGeometry relative="1" as="geometry">
            <mxPoint x="233" y="328" as="sourcePoint" />
            <mxPoint x="205" y="304" as="targetPoint" />
          </mxGeometry>
        </mxCell>
        <mxCell id="Q95-SlDKpTRxNVJRLP6k-69" value="&lt;font style=&quot;font-size: 10px&quot;&gt;leaf-1&lt;/font&gt;" style="text;html=1;align=center;verticalAlign=middle;resizable=0;points=[];autosize=1;fontSize=10;fontFamily=Manrope;fontStyle=0;fontColor=#FFFFFF;" parent="1" vertex="1">
          <mxGeometry x="164" y="441" width="36" height="18" as="geometry" />
        </mxCell>
        <mxCell id="Q95-SlDKpTRxNVJRLP6k-2" value="" style="rounded=0;whiteSpace=wrap;html=1;fontFamily=Manrope;fontSize=8;fontSource=https%3A%2F%2Ffonts.googleapis.com%2Fcss%3Ffamily%3DManrope;connectable=0;allowArrows=0;fillColor=none;dashed=1;strokeColor=#001135;" parent="1" vertex="1">
          <mxGeometry x="158" y="397" width="48" height="44" as="geometry" />
        </mxCell>
        <mxCell id="Q95-SlDKpTRxNVJRLP6k-19" value="" style="group;fontFamily=Manrope;fontSource=https%3A%2F%2Ffonts.googleapis.com%2Fcss%3Ffamily%3DManrope;" parent="1" vertex="1" connectable="0">
          <mxGeometry x="387" y="403" width="30" height="30" as="geometry" />
        </mxCell>
        <mxCell id="Q95-SlDKpTRxNVJRLP6k-20" value="" style="whiteSpace=wrap;html=1;aspect=fixed;fillColor=#001135;strokeColor=none;connectable=1;allowArrows=1;fontFamily=Manrope;fontSource=https%3A%2F%2Ffonts.googleapis.com%2Fcss%3Ffamily%3DManrope;" parent="Q95-SlDKpTRxNVJRLP6k-19" vertex="1">
          <mxGeometry width="30" height="30" as="geometry" />
        </mxCell>
        <mxCell id="Q95-SlDKpTRxNVJRLP6k-21" value="" style="endArrow=open;html=1;edgeStyle=orthogonalEdgeStyle;rounded=0;endFill=0;startSize=6;endSize=2;strokeColor=#FFFFFF;fontFamily=Manrope;fontSource=https%3A%2F%2Ffonts.googleapis.com%2Fcss%3Ffamily%3DManrope;" parent="Q95-SlDKpTRxNVJRLP6k-19" edge="1">
          <mxGeometry width="50" height="50" relative="1" as="geometry">
            <mxPoint x="3" y="12" as="sourcePoint" />
            <mxPoint x="11" y="3" as="targetPoint" />
            <Array as="points">
              <mxPoint x="11" y="12" />
            </Array>
          </mxGeometry>
        </mxCell>
        <mxCell id="Q95-SlDKpTRxNVJRLP6k-22" value="" style="endArrow=open;html=1;edgeStyle=orthogonalEdgeStyle;rounded=0;endFill=0;startSize=6;endSize=2;strokeColor=#FFFFFF;fontFamily=Manrope;fontSource=https%3A%2F%2Ffonts.googleapis.com%2Fcss%3Ffamily%3DManrope;" parent="Q95-SlDKpTRxNVJRLP6k-19" edge="1">
          <mxGeometry width="50" height="50" relative="1" as="geometry">
            <mxPoint x="11" y="27" as="sourcePoint" />
            <mxPoint x="3" y="19" as="targetPoint" />
            <Array as="points">
              <mxPoint x="11" y="19" />
            </Array>
          </mxGeometry>
        </mxCell>
        <mxCell id="Q95-SlDKpTRxNVJRLP6k-23" value="" style="endArrow=open;html=1;edgeStyle=orthogonalEdgeStyle;rounded=0;endFill=0;startSize=6;endSize=2;strokeColor=#FFFFFF;fontFamily=Manrope;fontSource=https%3A%2F%2Ffonts.googleapis.com%2Fcss%3Ffamily%3DManrope;" parent="Q95-SlDKpTRxNVJRLP6k-19" edge="1">
          <mxGeometry width="50" height="50" relative="1" as="geometry">
            <mxPoint x="18" y="3" as="sourcePoint" />
            <mxPoint x="27" y="12" as="targetPoint" />
            <Array as="points">
              <mxPoint x="18" y="12" />
            </Array>
          </mxGeometry>
        </mxCell>
        <mxCell id="Q95-SlDKpTRxNVJRLP6k-24" value="" style="endArrow=open;html=1;edgeStyle=orthogonalEdgeStyle;rounded=0;endFill=0;startSize=6;endSize=2;strokeColor=#FFFFFF;fontFamily=Manrope;fontSource=https%3A%2F%2Ffonts.googleapis.com%2Fcss%3Ffamily%3DManrope;" parent="Q95-SlDKpTRxNVJRLP6k-19" edge="1">
          <mxGeometry width="50" height="50" relative="1" as="geometry">
            <mxPoint x="27" y="19" as="sourcePoint" />
            <mxPoint x="18" y="27" as="targetPoint" />
            <Array as="points">
              <mxPoint x="18" y="19" />
            </Array>
          </mxGeometry>
        </mxCell>
        <mxCell id="Q95-SlDKpTRxNVJRLP6k-61" value="" style="group;fontFamily=Manrope;fontSource=https%3A%2F%2Ffonts.googleapis.com%2Fcss%3Ffamily%3DManrope;" parent="1" vertex="1" connectable="0">
          <mxGeometry x="277" y="403" width="30" height="30" as="geometry" />
        </mxCell>
        <mxCell id="Q95-SlDKpTRxNVJRLP6k-62" value="" style="whiteSpace=wrap;html=1;aspect=fixed;fillColor=#001135;strokeColor=none;connectable=1;allowArrows=1;fontFamily=Manrope;fontSource=https%3A%2F%2Ffonts.googleapis.com%2Fcss%3Ffamily%3DManrope;" parent="Q95-SlDKpTRxNVJRLP6k-61" vertex="1">
          <mxGeometry width="30" height="30" as="geometry" />
        </mxCell>
        <mxCell id="Q95-SlDKpTRxNVJRLP6k-63" value="" style="endArrow=open;html=1;edgeStyle=orthogonalEdgeStyle;rounded=0;endFill=0;startSize=6;endSize=2;strokeColor=#FFFFFF;fontFamily=Manrope;fontSource=https%3A%2F%2Ffonts.googleapis.com%2Fcss%3Ffamily%3DManrope;" parent="Q95-SlDKpTRxNVJRLP6k-61" edge="1">
          <mxGeometry width="50" height="50" relative="1" as="geometry">
            <mxPoint x="3" y="12" as="sourcePoint" />
            <mxPoint x="11" y="3" as="targetPoint" />
            <Array as="points">
              <mxPoint x="11" y="12" />
            </Array>
          </mxGeometry>
        </mxCell>
        <mxCell id="Q95-SlDKpTRxNVJRLP6k-64" value="" style="endArrow=open;html=1;edgeStyle=orthogonalEdgeStyle;rounded=0;endFill=0;startSize=6;endSize=2;strokeColor=#FFFFFF;fontFamily=Manrope;fontSource=https%3A%2F%2Ffonts.googleapis.com%2Fcss%3Ffamily%3DManrope;" parent="Q95-SlDKpTRxNVJRLP6k-61" edge="1">
          <mxGeometry width="50" height="50" relative="1" as="geometry">
            <mxPoint x="11" y="27" as="sourcePoint" />
            <mxPoint x="3" y="19" as="targetPoint" />
            <Array as="points">
              <mxPoint x="11" y="19" />
            </Array>
          </mxGeometry>
        </mxCell>
        <mxCell id="Q95-SlDKpTRxNVJRLP6k-65" value="" style="endArrow=open;html=1;edgeStyle=orthogonalEdgeStyle;rounded=0;endFill=0;startSize=6;endSize=2;strokeColor=#FFFFFF;fontFamily=Manrope;fontSource=https%3A%2F%2Ffonts.googleapis.com%2Fcss%3Ffamily%3DManrope;" parent="Q95-SlDKpTRxNVJRLP6k-61" edge="1">
          <mxGeometry width="50" height="50" relative="1" as="geometry">
            <mxPoint x="18" y="3" as="sourcePoint" />
            <mxPoint x="27" y="12" as="targetPoint" />
            <Array as="points">
              <mxPoint x="18" y="12" />
            </Array>
          </mxGeometry>
        </mxCell>
        <mxCell id="Q95-SlDKpTRxNVJRLP6k-66" value="" style="endArrow=open;html=1;edgeStyle=orthogonalEdgeStyle;rounded=0;endFill=0;startSize=6;endSize=2;strokeColor=#FFFFFF;fontFamily=Manrope;fontSource=https%3A%2F%2Ffonts.googleapis.com%2Fcss%3Ffamily%3DManrope;" parent="Q95-SlDKpTRxNVJRLP6k-61" edge="1">
          <mxGeometry width="50" height="50" relative="1" as="geometry">
            <mxPoint x="27" y="19" as="sourcePoint" />
            <mxPoint x="18" y="27" as="targetPoint" />
            <Array as="points">
              <mxPoint x="18" y="19" />
            </Array>
          </mxGeometry>
        </mxCell>
        <mxCell id="Q95-SlDKpTRxNVJRLP6k-72" value="" style="group" parent="1" vertex="1" connectable="0">
          <mxGeometry x="166" y="403" width="30" height="30" as="geometry" />
        </mxCell>
        <mxCell id="Q95-SlDKpTRxNVJRLP6k-14" value="" style="whiteSpace=wrap;html=1;aspect=fixed;fillColor=#001135;strokeColor=none;connectable=1;allowArrows=1;fontFamily=Manrope;fontSource=https%3A%2F%2Ffonts.googleapis.com%2Fcss%3Ffamily%3DManrope;" parent="Q95-SlDKpTRxNVJRLP6k-72" vertex="1">
          <mxGeometry width="30" height="30" as="geometry" />
        </mxCell>
        <mxCell id="Q95-SlDKpTRxNVJRLP6k-15" value="" style="endArrow=open;html=1;edgeStyle=orthogonalEdgeStyle;rounded=0;endFill=0;startSize=6;endSize=2;strokeColor=#FFFFFF;fontFamily=Manrope;fontSource=https%3A%2F%2Ffonts.googleapis.com%2Fcss%3Ffamily%3DManrope;" parent="Q95-SlDKpTRxNVJRLP6k-72" edge="1">
          <mxGeometry width="50" height="50" as="geometry">
            <mxPoint x="3" y="12" as="sourcePoint" />
            <mxPoint x="11" y="3" as="targetPoint" />
            <Array as="points">
              <mxPoint x="11" y="12" />
            </Array>
          </mxGeometry>
        </mxCell>
        <mxCell id="Q95-SlDKpTRxNVJRLP6k-16" value="" style="endArrow=open;html=1;edgeStyle=orthogonalEdgeStyle;rounded=0;endFill=0;startSize=6;endSize=2;strokeColor=#FFFFFF;fontFamily=Manrope;fontSource=https%3A%2F%2Ffonts.googleapis.com%2Fcss%3Ffamily%3DManrope;" parent="Q95-SlDKpTRxNVJRLP6k-72" edge="1">
          <mxGeometry width="50" height="50" as="geometry">
            <mxPoint x="11" y="27" as="sourcePoint" />
            <mxPoint x="3" y="19" as="targetPoint" />
            <Array as="points">
              <mxPoint x="11" y="19" />
            </Array>
          </mxGeometry>
        </mxCell>
        <mxCell id="Q95-SlDKpTRxNVJRLP6k-17" value="" style="endArrow=open;html=1;edgeStyle=orthogonalEdgeStyle;rounded=0;endFill=0;startSize=6;endSize=2;strokeColor=#FFFFFF;fontFamily=Manrope;fontSource=https%3A%2F%2Ffonts.googleapis.com%2Fcss%3Ffamily%3DManrope;" parent="Q95-SlDKpTRxNVJRLP6k-72" edge="1">
          <mxGeometry width="50" height="50" as="geometry">
            <mxPoint x="18" y="3" as="sourcePoint" />
            <mxPoint x="27" y="12" as="targetPoint" />
            <Array as="points">
              <mxPoint x="18" y="12" />
            </Array>
          </mxGeometry>
        </mxCell>
        <mxCell id="Q95-SlDKpTRxNVJRLP6k-18" value="" style="endArrow=open;html=1;edgeStyle=orthogonalEdgeStyle;rounded=0;endFill=0;startSize=6;endSize=2;strokeColor=#FFFFFF;fontFamily=Manrope;fontSource=https%3A%2F%2Ffonts.googleapis.com%2Fcss%3Ffamily%3DManrope;" parent="Q95-SlDKpTRxNVJRLP6k-72" edge="1">
          <mxGeometry width="50" height="50" as="geometry">
            <mxPoint x="27" y="19" as="sourcePoint" />
            <mxPoint x="18" y="27" as="targetPoint" />
            <Array as="points">
              <mxPoint x="18" y="19" />
            </Array>
          </mxGeometry>
        </mxCell>
        <mxCell id="Q95-SlDKpTRxNVJRLP6k-73" value="&lt;font face=&quot;Fira Code&quot; data-font-src=&quot;https://fonts.googleapis.com/css?family=Fira+Code&quot;&gt;AS 101&lt;/font&gt;" style="rounded=0;whiteSpace=wrap;html=1;dashed=1;fillColor=#4D5766;fontFamily=Manrope;fontSource=https%3A%2F%2Ffonts.googleapis.com%2Fcss%3Ffamily%3DManrope;fontSize=8;fontColor=#FFFFFF;strokeColor=none;rotation=-90;" parent="1" vertex="1">
          <mxGeometry x="188" y="414" width="33" height="8" as="geometry" />
        </mxCell>
        <mxCell id="Q95-SlDKpTRxNVJRLP6k-74" value="" style="rounded=0;whiteSpace=wrap;html=1;fontFamily=Manrope;fontSize=8;fontSource=https%3A%2F%2Ffonts.googleapis.com%2Fcss%3Ffamily%3DManrope;connectable=0;allowArrows=0;fillColor=none;dashed=1;strokeColor=#001135;" parent="1" vertex="1">
          <mxGeometry x="268" y="397" width="48" height="44" as="geometry" />
        </mxCell>
        <mxCell id="Q95-SlDKpTRxNVJRLP6k-75" value="&lt;font face=&quot;Fira Code&quot; data-font-src=&quot;https://fonts.googleapis.com/css?family=Fira+Code&quot;&gt;AS 102&lt;/font&gt;" style="rounded=0;whiteSpace=wrap;html=1;dashed=1;fillColor=#4D5766;fontFamily=Manrope;fontSource=https%3A%2F%2Ffonts.googleapis.com%2Fcss%3Ffamily%3DManrope;fontSize=8;fontColor=#FFFFFF;strokeColor=none;rotation=-90;" parent="1" vertex="1">
          <mxGeometry x="298" y="414" width="33" height="8" as="geometry" />
        </mxCell>
        <mxCell id="Q95-SlDKpTRxNVJRLP6k-77" value="&lt;font face=&quot;Fira Code&quot; data-font-src=&quot;https://fonts.googleapis.com/css?family=Fira+Code&quot;&gt;AS 103&lt;/font&gt;" style="rounded=0;whiteSpace=wrap;html=1;dashed=1;fillColor=#4D5766;fontFamily=Manrope;fontSource=https%3A%2F%2Ffonts.googleapis.com%2Fcss%3Ffamily%3DManrope;fontSize=8;fontColor=#FFFFFF;strokeColor=none;rotation=-90;" parent="1" vertex="1">
          <mxGeometry x="408" y="414" width="33" height="8" as="geometry" />
        </mxCell>
        <mxCell id="Q95-SlDKpTRxNVJRLP6k-79" value="&lt;font face=&quot;Fira Code&quot; data-font-src=&quot;https://fonts.googleapis.com/css?family=Fira+Code&quot;&gt;AS 201&lt;/font&gt;" style="rounded=0;whiteSpace=wrap;html=1;dashed=1;fillColor=#4D5766;fontFamily=Manrope;fontSource=https%3A%2F%2Ffonts.googleapis.com%2Fcss%3Ffamily%3DManrope;fontSize=8;fontColor=#FFFFFF;strokeColor=none;rotation=-90;" parent="1" vertex="1">
          <mxGeometry x="244" y="282" width="33" height="8" as="geometry" />
        </mxCell>
        <mxCell id="Q95-SlDKpTRxNVJRLP6k-81" value="&lt;font face=&quot;Fira Code&quot; data-font-src=&quot;https://fonts.googleapis.com/css?family=Fira+Code&quot;&gt;AS 202&lt;/font&gt;" style="rounded=0;whiteSpace=wrap;html=1;dashed=1;fillColor=#4D5766;fontFamily=Manrope;fontSource=https%3A%2F%2Ffonts.googleapis.com%2Fcss%3Ffamily%3DManrope;fontSize=8;fontColor=#FFFFFF;strokeColor=none;rotation=-90;" parent="1" vertex="1">
          <mxGeometry x="345" y="282" width="33" height="8" as="geometry" />
        </mxCell>
        <mxCell id="Q95-SlDKpTRxNVJRLP6k-82" value="&lt;font style=&quot;font-size: 10px&quot;&gt;leaf-2&lt;/font&gt;" style="text;html=1;align=center;verticalAlign=middle;resizable=0;points=[];autosize=1;fontSize=10;fontFamily=Manrope;fontStyle=0;fontColor=#FFFFFF;" parent="1" vertex="1">
          <mxGeometry x="273" y="441" width="38" height="18" as="geometry" />
        </mxCell>
        <mxCell id="Q95-SlDKpTRxNVJRLP6k-83" value="&lt;font style=&quot;font-size: 10px&quot;&gt;leaf-3&lt;/font&gt;" style="text;html=1;align=center;verticalAlign=middle;resizable=0;points=[];autosize=1;fontSize=10;fontFamily=Manrope;fontStyle=0;fontColor=#FFFFFF;" parent="1" vertex="1">
          <mxGeometry x="383" y="441" width="38" height="18" as="geometry" />
        </mxCell>
        <mxCell id="Q95-SlDKpTRxNVJRLP6k-84" value="&lt;font style=&quot;font-size: 10px&quot;&gt;spine-1&lt;/font&gt;" style="text;html=1;align=center;verticalAlign=middle;resizable=0;points=[];autosize=1;fontSize=10;fontFamily=Manrope;fontStyle=0;fontColor=#FFFFFF;connectable=0;" parent="1" vertex="1">
          <mxGeometry x="166" y="278" width="44" height="18" as="geometry" />
        </mxCell>
        <mxCell id="Q95-SlDKpTRxNVJRLP6k-85" value="&lt;font style=&quot;font-size: 10px&quot;&gt;spine-2&lt;/font&gt;" style="text;html=1;align=center;verticalAlign=middle;resizable=0;points=[];autosize=1;fontSize=10;fontFamily=Manrope;fontStyle=0;fontColor=#FFFFFF;connectable=0;" parent="1" vertex="1">
          <mxGeometry x="368" y="278" width="46" height="18" as="geometry" />
        </mxCell>
        <mxCell id="Q95-SlDKpTRxNVJRLP6k-87" value="&lt;div style=&quot;font-size: 8px&quot;&gt;&lt;span style=&quot;font-size: 8px ; color: rgb(255 , 255 , 255)&quot;&gt;10.0.1.1&lt;/span&gt;&lt;/div&gt;" style="text;html=1;align=center;verticalAlign=middle;resizable=0;points=[];autosize=1;fontSize=8;fontFamily=Fira Code;fontColor=#001135;fontSource=https%3A%2F%2Ffonts.googleapis.com%2Fcss%3Ffamily%3DFira%2BCode;connectable=0;rotation=0;fillColor=#4D5766;opacity=60;" parent="1" vertex="1">
          <mxGeometry x="159" y="377" width="48" height="14" as="geometry" />
        </mxCell>
        <mxCell id="Q95-SlDKpTRxNVJRLP6k-89" value="&lt;div style=&quot;font-size: 8px&quot;&gt;&lt;span style=&quot;font-size: 8px ; color: rgb(255 , 255 , 255)&quot;&gt;10.0.1.2&lt;/span&gt;&lt;/div&gt;" style="text;html=1;align=center;verticalAlign=middle;resizable=0;points=[];autosize=1;fontSize=8;fontFamily=Fira Code;fontColor=#001135;fontSource=https%3A%2F%2Ffonts.googleapis.com%2Fcss%3Ffamily%3DFira%2BCode;connectable=0;rotation=0;fillColor=#4D5766;opacity=60;" parent="1" vertex="1">
          <mxGeometry x="271" y="377" width="48" height="14" as="geometry" />
        </mxCell>
        <mxCell id="mUMtNzAeGzC2DuIsBwiV-1" value="&lt;div style=&quot;font-size: 8px&quot;&gt;&lt;span style=&quot;font-size: 8px ; color: rgb(255 , 255 , 255)&quot;&gt;10.0.1.2&lt;/span&gt;&lt;/div&gt;" style="text;html=1;align=center;verticalAlign=middle;resizable=0;points=[];autosize=1;fontSize=8;fontFamily=Fira Code;fontColor=#001135;fontSource=https%3A%2F%2Ffonts.googleapis.com%2Fcss%3Ffamily%3DFira%2BCode;connectable=0;rotation=0;fillColor=#4D5766;opacity=60;" parent="1" vertex="1">
          <mxGeometry x="375" y="377" width="48" height="14" as="geometry" />
        </mxCell>
        <mxCell id="mUMtNzAeGzC2DuIsBwiV-2" value="&lt;div style=&quot;font-size: 8px&quot;&gt;&lt;span style=&quot;font-size: 8px ; color: rgb(255 , 255 , 255)&quot;&gt;10.0.2.1&lt;/span&gt;&lt;/div&gt;" style="text;html=1;align=center;verticalAlign=middle;resizable=0;points=[];autosize=1;fontSize=8;fontFamily=Fira Code;fontColor=#001135;fontSource=https%3A%2F%2Ffonts.googleapis.com%2Fcss%3Ffamily%3DFira%2BCode;connectable=0;rotation=0;fillColor=#4D5766;opacity=60;" parent="1" vertex="1">
          <mxGeometry x="214.5" y="245" width="48" height="14" as="geometry" />
        </mxCell>
        <mxCell id="mUMtNzAeGzC2DuIsBwiV-3" value="&lt;div style=&quot;font-size: 8px&quot;&gt;&lt;span style=&quot;font-size: 8px ; color: rgb(255 , 255 , 255)&quot;&gt;10.0.2.2&lt;/span&gt;&lt;/div&gt;" style="text;html=1;align=center;verticalAlign=middle;resizable=0;points=[];autosize=1;fontSize=8;fontFamily=Fira Code;fontColor=#001135;fontSource=https%3A%2F%2Ffonts.googleapis.com%2Fcss%3Ffamily%3DFira%2BCode;connectable=0;rotation=0;fillColor=#4D5766;opacity=60;" parent="1" vertex="1">
          <mxGeometry x="315.5" y="245" width="48" height="14" as="geometry" />
        </mxCell>
      </root>
    </mxGraphModel>
  </diagram>
  <diagram id="i9QO7ex6fhY0OOlDZZa7" name="[1] wiring">
    <mxGraphModel dx="286" dy="148" grid="0" gridSize="2" guides="1" tooltips="1" connect="1" arrows="1" fold="1" page="1" pageScale="1" pageWidth="827" pageHeight="1169" background="#4D5766" math="0" shadow="0">
      <root>
        <mxCell id="qmLtoWKtNvX0ufszp72u-0" />
        <mxCell id="qmLtoWKtNvX0ufszp72u-1" parent="qmLtoWKtNvX0ufszp72u-0" />
        <mxCell id="tEZGEbmFmbo_nm0fESEB-4" style="rounded=0;orthogonalLoop=1;jettySize=auto;html=1;exitX=1;exitY=0;exitDx=0;exitDy=0;startSize=6;endArrow=none;endFill=0;endSize=2;fontFamily=Manrope;fontSize=8;strokeColor=#98A2AE;fontSource=https%3A%2F%2Ffonts.googleapis.com%2Fcss%3Ffamily%3DManrope;" parent="qmLtoWKtNvX0ufszp72u-1" source="tEZGEbmFmbo_nm0fESEB-56" target="tEZGEbmFmbo_nm0fESEB-66" edge="1">
          <mxGeometry relative="1" as="geometry">
            <mxPoint x="181" y="326" as="sourcePoint" />
            <mxPoint x="261" y="302" as="targetPoint" />
          </mxGeometry>
        </mxCell>
        <mxCell id="tEZGEbmFmbo_nm0fESEB-5" style="rounded=0;orthogonalLoop=1;jettySize=auto;html=1;startSize=6;endArrow=none;endFill=0;endSize=2;fontFamily=Manrope;fontSize=8;strokeColor=#98A2AE;fontSource=https%3A%2F%2Ffonts.googleapis.com%2Fcss%3Ffamily%3DManrope;" parent="qmLtoWKtNvX0ufszp72u-1" source="tEZGEbmFmbo_nm0fESEB-72" target="tEZGEbmFmbo_nm0fESEB-65" edge="1">
          <mxGeometry relative="1" as="geometry">
            <mxPoint x="283" y="326" as="sourcePoint" />
            <mxPoint x="256" y="312" as="targetPoint" />
          </mxGeometry>
        </mxCell>
        <mxCell id="tEZGEbmFmbo_nm0fESEB-6" style="rounded=0;orthogonalLoop=1;jettySize=auto;html=1;startSize=6;endArrow=none;endFill=0;endSize=2;fontFamily=Manrope;fontSize=8;strokeColor=#98A2AE;fontSource=https%3A%2F%2Ffonts.googleapis.com%2Fcss%3Ffamily%3DManrope;" parent="qmLtoWKtNvX0ufszp72u-1" source="tEZGEbmFmbo_nm0fESEB-73" target="tEZGEbmFmbo_nm0fESEB-68" edge="1">
          <mxGeometry relative="1" as="geometry">
            <mxPoint x="283" y="326" as="sourcePoint" />
            <mxPoint x="261" y="302" as="targetPoint" />
          </mxGeometry>
        </mxCell>
        <mxCell id="tEZGEbmFmbo_nm0fESEB-7" value="" style="group;fontFamily=Manrope;fontSource=https%3A%2F%2Ffonts.googleapis.com%2Fcss%3Ffamily%3DManrope;" parent="qmLtoWKtNvX0ufszp72u-1" vertex="1" connectable="0">
          <mxGeometry x="324" y="272" width="30" height="30" as="geometry" />
        </mxCell>
        <mxCell id="tEZGEbmFmbo_nm0fESEB-8" value="" style="whiteSpace=wrap;html=1;aspect=fixed;fillColor=#001135;strokeColor=none;connectable=1;allowArrows=1;fontFamily=Manrope;fontSource=https%3A%2F%2Ffonts.googleapis.com%2Fcss%3Ffamily%3DManrope;" parent="tEZGEbmFmbo_nm0fESEB-7" vertex="1">
          <mxGeometry width="30" height="30" as="geometry" />
        </mxCell>
        <mxCell id="tEZGEbmFmbo_nm0fESEB-9" value="" style="endArrow=open;html=1;edgeStyle=orthogonalEdgeStyle;rounded=0;endFill=0;startSize=6;endSize=2;strokeColor=#FFFFFF;fontFamily=Manrope;fontSource=https%3A%2F%2Ffonts.googleapis.com%2Fcss%3Ffamily%3DManrope;" parent="tEZGEbmFmbo_nm0fESEB-7" edge="1">
          <mxGeometry width="50" height="50" relative="1" as="geometry">
            <mxPoint x="3" y="12" as="sourcePoint" />
            <mxPoint x="11" y="3" as="targetPoint" />
            <Array as="points">
              <mxPoint x="11" y="12" />
            </Array>
          </mxGeometry>
        </mxCell>
        <mxCell id="tEZGEbmFmbo_nm0fESEB-10" value="" style="endArrow=open;html=1;edgeStyle=orthogonalEdgeStyle;rounded=0;endFill=0;startSize=6;endSize=2;strokeColor=#FFFFFF;fontFamily=Manrope;fontSource=https%3A%2F%2Ffonts.googleapis.com%2Fcss%3Ffamily%3DManrope;" parent="tEZGEbmFmbo_nm0fESEB-7" edge="1">
          <mxGeometry width="50" height="50" relative="1" as="geometry">
            <mxPoint x="11" y="27" as="sourcePoint" />
            <mxPoint x="3" y="19" as="targetPoint" />
            <Array as="points">
              <mxPoint x="11" y="19" />
            </Array>
          </mxGeometry>
        </mxCell>
        <mxCell id="tEZGEbmFmbo_nm0fESEB-11" value="" style="endArrow=open;html=1;edgeStyle=orthogonalEdgeStyle;rounded=0;endFill=0;startSize=6;endSize=2;strokeColor=#FFFFFF;fontFamily=Manrope;fontSource=https%3A%2F%2Ffonts.googleapis.com%2Fcss%3Ffamily%3DManrope;" parent="tEZGEbmFmbo_nm0fESEB-7" edge="1">
          <mxGeometry width="50" height="50" relative="1" as="geometry">
            <mxPoint x="18" y="3" as="sourcePoint" />
            <mxPoint x="27" y="12" as="targetPoint" />
            <Array as="points">
              <mxPoint x="18" y="12" />
            </Array>
          </mxGeometry>
        </mxCell>
        <mxCell id="tEZGEbmFmbo_nm0fESEB-12" value="" style="endArrow=open;html=1;edgeStyle=orthogonalEdgeStyle;rounded=0;endFill=0;startSize=6;endSize=2;strokeColor=#FFFFFF;fontFamily=Manrope;fontSource=https%3A%2F%2Ffonts.googleapis.com%2Fcss%3Ffamily%3DManrope;" parent="tEZGEbmFmbo_nm0fESEB-7" edge="1">
          <mxGeometry width="50" height="50" relative="1" as="geometry">
            <mxPoint x="27" y="19" as="sourcePoint" />
            <mxPoint x="18" y="27" as="targetPoint" />
            <Array as="points">
              <mxPoint x="18" y="19" />
            </Array>
          </mxGeometry>
        </mxCell>
        <mxCell id="tEZGEbmFmbo_nm0fESEB-19" style="rounded=0;orthogonalLoop=1;jettySize=auto;html=1;startSize=6;endArrow=none;endFill=0;endSize=2;fontFamily=Manrope;fontSize=8;strokeColor=#98A2AE;fontSource=https%3A%2F%2Ffonts.googleapis.com%2Fcss%3Ffamily%3DManrope;" parent="qmLtoWKtNvX0ufszp72u-1" source="tEZGEbmFmbo_nm0fESEB-64" target="tEZGEbmFmbo_nm0fESEB-62" edge="1">
          <mxGeometry relative="1" as="geometry">
            <mxPoint x="183" y="328" as="sourcePoint" />
            <mxPoint x="246" y="322" as="targetPoint" />
          </mxGeometry>
        </mxCell>
        <mxCell id="tEZGEbmFmbo_nm0fESEB-20" style="rounded=0;orthogonalLoop=1;jettySize=auto;html=1;startSize=6;endArrow=none;endFill=0;endSize=2;fontFamily=Manrope;fontSize=8;strokeColor=#98A2AE;fontSource=https%3A%2F%2Ffonts.googleapis.com%2Fcss%3Ffamily%3DManrope;" parent="qmLtoWKtNvX0ufszp72u-1" source="tEZGEbmFmbo_nm0fESEB-67" target="tEZGEbmFmbo_nm0fESEB-71" edge="1">
          <mxGeometry relative="1" as="geometry">
            <mxPoint x="233" y="328" as="sourcePoint" />
            <mxPoint x="205" y="304" as="targetPoint" />
          </mxGeometry>
        </mxCell>
        <mxCell id="tEZGEbmFmbo_nm0fESEB-21" value="&lt;font style=&quot;font-size: 10px&quot;&gt;leaf1&lt;/font&gt;" style="text;html=1;align=center;verticalAlign=middle;resizable=0;points=[];autosize=1;fontSize=10;fontFamily=Manrope;fontStyle=0;fontColor=#FFFFFF;" parent="qmLtoWKtNvX0ufszp72u-1" vertex="1">
          <mxGeometry x="163" y="426" width="39" height="24" as="geometry" />
        </mxCell>
        <mxCell id="tEZGEbmFmbo_nm0fESEB-23" value="" style="group;fontFamily=Manrope;fontSource=https%3A%2F%2Ffonts.googleapis.com%2Fcss%3Ffamily%3DManrope;" parent="qmLtoWKtNvX0ufszp72u-1" vertex="1" connectable="0">
          <mxGeometry x="387" y="403" width="30" height="30" as="geometry" />
        </mxCell>
        <mxCell id="tEZGEbmFmbo_nm0fESEB-24" value="" style="whiteSpace=wrap;html=1;aspect=fixed;fillColor=#001135;strokeColor=none;connectable=1;allowArrows=1;fontFamily=Manrope;fontSource=https%3A%2F%2Ffonts.googleapis.com%2Fcss%3Ffamily%3DManrope;" parent="tEZGEbmFmbo_nm0fESEB-23" vertex="1">
          <mxGeometry width="30" height="30" as="geometry" />
        </mxCell>
        <mxCell id="tEZGEbmFmbo_nm0fESEB-25" value="" style="endArrow=open;html=1;edgeStyle=orthogonalEdgeStyle;rounded=0;endFill=0;startSize=6;endSize=2;strokeColor=#FFFFFF;fontFamily=Manrope;fontSource=https%3A%2F%2Ffonts.googleapis.com%2Fcss%3Ffamily%3DManrope;" parent="tEZGEbmFmbo_nm0fESEB-23" edge="1">
          <mxGeometry width="50" height="50" relative="1" as="geometry">
            <mxPoint x="3" y="12" as="sourcePoint" />
            <mxPoint x="11" y="3" as="targetPoint" />
            <Array as="points">
              <mxPoint x="11" y="12" />
            </Array>
          </mxGeometry>
        </mxCell>
        <mxCell id="tEZGEbmFmbo_nm0fESEB-26" value="" style="endArrow=open;html=1;edgeStyle=orthogonalEdgeStyle;rounded=0;endFill=0;startSize=6;endSize=2;strokeColor=#FFFFFF;fontFamily=Manrope;fontSource=https%3A%2F%2Ffonts.googleapis.com%2Fcss%3Ffamily%3DManrope;" parent="tEZGEbmFmbo_nm0fESEB-23" edge="1">
          <mxGeometry width="50" height="50" relative="1" as="geometry">
            <mxPoint x="11" y="27" as="sourcePoint" />
            <mxPoint x="3" y="19" as="targetPoint" />
            <Array as="points">
              <mxPoint x="11" y="19" />
            </Array>
          </mxGeometry>
        </mxCell>
        <mxCell id="tEZGEbmFmbo_nm0fESEB-27" value="" style="endArrow=open;html=1;edgeStyle=orthogonalEdgeStyle;rounded=0;endFill=0;startSize=6;endSize=2;strokeColor=#FFFFFF;fontFamily=Manrope;fontSource=https%3A%2F%2Ffonts.googleapis.com%2Fcss%3Ffamily%3DManrope;" parent="tEZGEbmFmbo_nm0fESEB-23" edge="1">
          <mxGeometry width="50" height="50" relative="1" as="geometry">
            <mxPoint x="18" y="3" as="sourcePoint" />
            <mxPoint x="27" y="12" as="targetPoint" />
            <Array as="points">
              <mxPoint x="18" y="12" />
            </Array>
          </mxGeometry>
        </mxCell>
        <mxCell id="tEZGEbmFmbo_nm0fESEB-28" value="" style="endArrow=open;html=1;edgeStyle=orthogonalEdgeStyle;rounded=0;endFill=0;startSize=6;endSize=2;strokeColor=#FFFFFF;fontFamily=Manrope;fontSource=https%3A%2F%2Ffonts.googleapis.com%2Fcss%3Ffamily%3DManrope;" parent="tEZGEbmFmbo_nm0fESEB-23" edge="1">
          <mxGeometry width="50" height="50" relative="1" as="geometry">
            <mxPoint x="27" y="19" as="sourcePoint" />
            <mxPoint x="18" y="27" as="targetPoint" />
            <Array as="points">
              <mxPoint x="18" y="19" />
            </Array>
          </mxGeometry>
        </mxCell>
        <mxCell id="tEZGEbmFmbo_nm0fESEB-29" value="" style="group;fontFamily=Manrope;fontSource=https%3A%2F%2Ffonts.googleapis.com%2Fcss%3Ffamily%3DManrope;" parent="qmLtoWKtNvX0ufszp72u-1" vertex="1" connectable="0">
          <mxGeometry x="274" y="403" width="30" height="30" as="geometry" />
        </mxCell>
        <mxCell id="tEZGEbmFmbo_nm0fESEB-30" value="" style="whiteSpace=wrap;html=1;aspect=fixed;fillColor=#001135;strokeColor=none;connectable=1;allowArrows=1;fontFamily=Manrope;fontSource=https%3A%2F%2Ffonts.googleapis.com%2Fcss%3Ffamily%3DManrope;" parent="tEZGEbmFmbo_nm0fESEB-29" vertex="1">
          <mxGeometry width="30" height="30" as="geometry" />
        </mxCell>
        <mxCell id="tEZGEbmFmbo_nm0fESEB-31" value="" style="endArrow=open;html=1;edgeStyle=orthogonalEdgeStyle;rounded=0;endFill=0;startSize=6;endSize=2;strokeColor=#FFFFFF;fontFamily=Manrope;fontSource=https%3A%2F%2Ffonts.googleapis.com%2Fcss%3Ffamily%3DManrope;" parent="tEZGEbmFmbo_nm0fESEB-29" edge="1">
          <mxGeometry width="50" height="50" relative="1" as="geometry">
            <mxPoint x="3" y="12" as="sourcePoint" />
            <mxPoint x="11" y="3" as="targetPoint" />
            <Array as="points">
              <mxPoint x="11" y="12" />
            </Array>
          </mxGeometry>
        </mxCell>
        <mxCell id="tEZGEbmFmbo_nm0fESEB-32" value="" style="endArrow=open;html=1;edgeStyle=orthogonalEdgeStyle;rounded=0;endFill=0;startSize=6;endSize=2;strokeColor=#FFFFFF;fontFamily=Manrope;fontSource=https%3A%2F%2Ffonts.googleapis.com%2Fcss%3Ffamily%3DManrope;" parent="tEZGEbmFmbo_nm0fESEB-29" edge="1">
          <mxGeometry width="50" height="50" relative="1" as="geometry">
            <mxPoint x="11" y="27" as="sourcePoint" />
            <mxPoint x="3" y="19" as="targetPoint" />
            <Array as="points">
              <mxPoint x="11" y="19" />
            </Array>
          </mxGeometry>
        </mxCell>
        <mxCell id="tEZGEbmFmbo_nm0fESEB-33" value="" style="endArrow=open;html=1;edgeStyle=orthogonalEdgeStyle;rounded=0;endFill=0;startSize=6;endSize=2;strokeColor=#FFFFFF;fontFamily=Manrope;fontSource=https%3A%2F%2Ffonts.googleapis.com%2Fcss%3Ffamily%3DManrope;" parent="tEZGEbmFmbo_nm0fESEB-29" edge="1">
          <mxGeometry width="50" height="50" relative="1" as="geometry">
            <mxPoint x="18" y="3" as="sourcePoint" />
            <mxPoint x="27" y="12" as="targetPoint" />
            <Array as="points">
              <mxPoint x="18" y="12" />
            </Array>
          </mxGeometry>
        </mxCell>
        <mxCell id="tEZGEbmFmbo_nm0fESEB-34" value="" style="endArrow=open;html=1;edgeStyle=orthogonalEdgeStyle;rounded=0;endFill=0;startSize=6;endSize=2;strokeColor=#FFFFFF;fontFamily=Manrope;fontSource=https%3A%2F%2Ffonts.googleapis.com%2Fcss%3Ffamily%3DManrope;" parent="tEZGEbmFmbo_nm0fESEB-29" edge="1">
          <mxGeometry width="50" height="50" relative="1" as="geometry">
            <mxPoint x="27" y="19" as="sourcePoint" />
            <mxPoint x="18" y="27" as="targetPoint" />
            <Array as="points">
              <mxPoint x="18" y="19" />
            </Array>
          </mxGeometry>
        </mxCell>
        <mxCell id="tEZGEbmFmbo_nm0fESEB-35" value="" style="group" parent="qmLtoWKtNvX0ufszp72u-1" vertex="1" connectable="0">
          <mxGeometry x="166" y="403" width="30" height="30" as="geometry" />
        </mxCell>
        <mxCell id="tEZGEbmFmbo_nm0fESEB-36" value="" style="whiteSpace=wrap;html=1;aspect=fixed;fillColor=#001135;strokeColor=none;connectable=1;allowArrows=1;fontFamily=Manrope;fontSource=https%3A%2F%2Ffonts.googleapis.com%2Fcss%3Ffamily%3DManrope;" parent="tEZGEbmFmbo_nm0fESEB-35" vertex="1">
          <mxGeometry width="30" height="30" as="geometry" />
        </mxCell>
        <mxCell id="tEZGEbmFmbo_nm0fESEB-37" value="" style="endArrow=open;html=1;edgeStyle=orthogonalEdgeStyle;rounded=0;endFill=0;startSize=6;endSize=2;strokeColor=#FFFFFF;fontFamily=Manrope;fontSource=https%3A%2F%2Ffonts.googleapis.com%2Fcss%3Ffamily%3DManrope;" parent="tEZGEbmFmbo_nm0fESEB-35" edge="1">
          <mxGeometry width="50" height="50" as="geometry">
            <mxPoint x="3" y="12" as="sourcePoint" />
            <mxPoint x="11" y="3" as="targetPoint" />
            <Array as="points">
              <mxPoint x="11" y="12" />
            </Array>
          </mxGeometry>
        </mxCell>
        <mxCell id="tEZGEbmFmbo_nm0fESEB-38" value="" style="endArrow=open;html=1;edgeStyle=orthogonalEdgeStyle;rounded=0;endFill=0;startSize=6;endSize=2;strokeColor=#FFFFFF;fontFamily=Manrope;fontSource=https%3A%2F%2Ffonts.googleapis.com%2Fcss%3Ffamily%3DManrope;" parent="tEZGEbmFmbo_nm0fESEB-35" edge="1">
          <mxGeometry width="50" height="50" as="geometry">
            <mxPoint x="11" y="27" as="sourcePoint" />
            <mxPoint x="3" y="19" as="targetPoint" />
            <Array as="points">
              <mxPoint x="11" y="19" />
            </Array>
          </mxGeometry>
        </mxCell>
        <mxCell id="tEZGEbmFmbo_nm0fESEB-39" value="" style="endArrow=open;html=1;edgeStyle=orthogonalEdgeStyle;rounded=0;endFill=0;startSize=6;endSize=2;strokeColor=#FFFFFF;fontFamily=Manrope;fontSource=https%3A%2F%2Ffonts.googleapis.com%2Fcss%3Ffamily%3DManrope;" parent="tEZGEbmFmbo_nm0fESEB-35" edge="1">
          <mxGeometry width="50" height="50" as="geometry">
            <mxPoint x="18" y="3" as="sourcePoint" />
            <mxPoint x="27" y="12" as="targetPoint" />
            <Array as="points">
              <mxPoint x="18" y="12" />
            </Array>
          </mxGeometry>
        </mxCell>
        <mxCell id="tEZGEbmFmbo_nm0fESEB-40" value="" style="endArrow=open;html=1;edgeStyle=orthogonalEdgeStyle;rounded=0;endFill=0;startSize=6;endSize=2;strokeColor=#FFFFFF;fontFamily=Manrope;fontSource=https%3A%2F%2Ffonts.googleapis.com%2Fcss%3Ffamily%3DManrope;" parent="tEZGEbmFmbo_nm0fESEB-35" edge="1">
          <mxGeometry width="50" height="50" as="geometry">
            <mxPoint x="27" y="19" as="sourcePoint" />
            <mxPoint x="18" y="27" as="targetPoint" />
            <Array as="points">
              <mxPoint x="18" y="19" />
            </Array>
          </mxGeometry>
        </mxCell>
        <mxCell id="tEZGEbmFmbo_nm0fESEB-47" value="&lt;font style=&quot;font-size: 10px&quot;&gt;leaf2&lt;/font&gt;" style="text;html=1;align=center;verticalAlign=middle;resizable=0;points=[];autosize=1;fontSize=10;fontFamily=Manrope;fontStyle=0;fontColor=#FFFFFF;" parent="qmLtoWKtNvX0ufszp72u-1" vertex="1">
          <mxGeometry x="272" y="426" width="41" height="24" as="geometry" />
        </mxCell>
        <mxCell id="tEZGEbmFmbo_nm0fESEB-48" value="&lt;font style=&quot;font-size: 10px&quot;&gt;leaf3&lt;/font&gt;" style="text;html=1;align=center;verticalAlign=middle;resizable=0;points=[];autosize=1;fontSize=10;fontFamily=Manrope;fontStyle=0;fontColor=#FFFFFF;" parent="qmLtoWKtNvX0ufszp72u-1" vertex="1">
          <mxGeometry x="382" y="426" width="41" height="24" as="geometry" />
        </mxCell>
        <mxCell id="tEZGEbmFmbo_nm0fESEB-49" value="&lt;font style=&quot;font-size: 10px&quot;&gt;spine1&lt;/font&gt;" style="text;html=1;align=center;verticalAlign=middle;resizable=0;points=[];autosize=1;fontSize=10;fontFamily=Manrope;fontStyle=0;fontColor=#FFFFFF;connectable=0;" parent="qmLtoWKtNvX0ufszp72u-1" vertex="1">
          <mxGeometry x="215" y="252" width="47" height="24" as="geometry" />
        </mxCell>
        <mxCell id="IpwsD7Z_NkDkLYFzNpUv-0" value="1" style="ellipse;whiteSpace=wrap;html=1;aspect=fixed;fontColor=#FFFFFF;fontSize=6;strokeColor=#98A2AE;fontFamily=Manrope;fontSource=https%3A%2F%2Ffonts.googleapis.com%2Fcss%3Ffamily%3DManrope;fillColor=#BEC8D2;" parent="qmLtoWKtNvX0ufszp72u-1" vertex="1">
          <mxGeometry x="224" y="302" width="8" height="8" as="geometry" />
        </mxCell>
        <mxCell id="tEZGEbmFmbo_nm0fESEB-56" value="2" style="ellipse;whiteSpace=wrap;html=1;aspect=fixed;fontColor=#FFFFFF;fontSize=6;strokeColor=#98A2AE;fontFamily=Manrope;fontSource=https%3A%2F%2Ffonts.googleapis.com%2Fcss%3Ffamily%3DManrope;fillColor=#BEC8D2;" parent="qmLtoWKtNvX0ufszp72u-1" vertex="1">
          <mxGeometry x="184" y="395" width="8" height="8" as="geometry" />
        </mxCell>
        <mxCell id="tEZGEbmFmbo_nm0fESEB-60" value="1" style="ellipse;whiteSpace=wrap;html=1;aspect=fixed;fontSize=6;strokeColor=#98A2AE;fontFamily=Manrope;fontSource=https%3A%2F%2Ffonts.googleapis.com%2Fcss%3Ffamily%3DManrope;fillColor=#BEC8D2;fontColor=#FFFFFF;" parent="qmLtoWKtNvX0ufszp72u-1" vertex="1">
          <mxGeometry x="172" y="395" width="8" height="8" as="geometry" />
        </mxCell>
        <mxCell id="tEZGEbmFmbo_nm0fESEB-61" style="rounded=0;orthogonalLoop=1;jettySize=auto;html=1;startSize=6;endArrow=none;endFill=0;endSize=2;fontFamily=Manrope;fontSize=8;strokeColor=#98A2AE;fontSource=https%3A%2F%2Ffonts.googleapis.com%2Fcss%3Ffamily%3DManrope;" parent="qmLtoWKtNvX0ufszp72u-1" source="tEZGEbmFmbo_nm0fESEB-60" target="IpwsD7Z_NkDkLYFzNpUv-0" edge="1">
          <mxGeometry relative="1" as="geometry">
            <mxPoint x="404" y="405" as="sourcePoint" />
            <mxPoint x="258" y="314" as="targetPoint" />
          </mxGeometry>
        </mxCell>
        <mxCell id="tEZGEbmFmbo_nm0fESEB-62" value="2" style="ellipse;whiteSpace=wrap;html=1;aspect=fixed;fontColor=#FFFFFF;fontSize=6;strokeColor=#98A2AE;fontFamily=Manrope;fontSource=https%3A%2F%2Ffonts.googleapis.com%2Fcss%3Ffamily%3DManrope;fillColor=#BEC8D2;" parent="qmLtoWKtNvX0ufszp72u-1" vertex="1">
          <mxGeometry x="233" y="302" width="8" height="8" as="geometry" />
        </mxCell>
        <mxCell id="tEZGEbmFmbo_nm0fESEB-64" value="1" style="ellipse;whiteSpace=wrap;html=1;aspect=fixed;fontColor=#FFFFFF;fontSize=6;strokeColor=#98A2AE;fontFamily=Manrope;fontSource=https%3A%2F%2Ffonts.googleapis.com%2Fcss%3Ffamily%3DManrope;fillColor=#BEC8D2;" parent="qmLtoWKtNvX0ufszp72u-1" vertex="1">
          <mxGeometry x="278" y="395" width="8" height="8" as="geometry" />
        </mxCell>
        <mxCell id="tEZGEbmFmbo_nm0fESEB-65" value="3" style="ellipse;whiteSpace=wrap;html=1;aspect=fixed;fontColor=#FFFFFF;fontSize=6;strokeColor=#98A2AE;fontFamily=Manrope;fontSource=https%3A%2F%2Ffonts.googleapis.com%2Fcss%3Ffamily%3DManrope;fillColor=#BEC8D2;" parent="qmLtoWKtNvX0ufszp72u-1" vertex="1">
          <mxGeometry x="242" y="302" width="8" height="8" as="geometry" />
        </mxCell>
        <mxCell id="tEZGEbmFmbo_nm0fESEB-66" value="1" style="ellipse;whiteSpace=wrap;html=1;aspect=fixed;fontColor=#FFFFFF;fontSize=6;strokeColor=#98A2AE;fontFamily=Manrope;fontSource=https%3A%2F%2Ffonts.googleapis.com%2Fcss%3Ffamily%3DManrope;fillColor=#BEC8D2;" parent="qmLtoWKtNvX0ufszp72u-1" vertex="1">
          <mxGeometry x="326" y="302" width="8" height="8" as="geometry" />
        </mxCell>
        <mxCell id="tEZGEbmFmbo_nm0fESEB-67" value="2" style="ellipse;whiteSpace=wrap;html=1;aspect=fixed;fontColor=#FFFFFF;fontSize=6;strokeColor=#98A2AE;fontFamily=Manrope;fontSource=https%3A%2F%2Ffonts.googleapis.com%2Fcss%3Ffamily%3DManrope;fillColor=#BEC8D2;" parent="qmLtoWKtNvX0ufszp72u-1" vertex="1">
          <mxGeometry x="335" y="302" width="8" height="8" as="geometry" />
        </mxCell>
        <mxCell id="tEZGEbmFmbo_nm0fESEB-68" value="3" style="ellipse;whiteSpace=wrap;html=1;aspect=fixed;fontColor=#FFFFFF;fontSize=6;strokeColor=#98A2AE;fontFamily=Manrope;fontSource=https%3A%2F%2Ffonts.googleapis.com%2Fcss%3Ffamily%3DManrope;fillColor=#BEC8D2;" parent="qmLtoWKtNvX0ufszp72u-1" vertex="1">
          <mxGeometry x="344" y="302" width="8" height="8" as="geometry" />
        </mxCell>
        <mxCell id="tEZGEbmFmbo_nm0fESEB-71" value="2" style="ellipse;whiteSpace=wrap;html=1;aspect=fixed;fontColor=#FFFFFF;fontSize=6;strokeColor=#98A2AE;fontFamily=Manrope;fontSource=https%3A%2F%2Ffonts.googleapis.com%2Fcss%3Ffamily%3DManrope;fillColor=#BEC8D2;" parent="qmLtoWKtNvX0ufszp72u-1" vertex="1">
          <mxGeometry x="292" y="395" width="8" height="8" as="geometry" />
        </mxCell>
        <mxCell id="tEZGEbmFmbo_nm0fESEB-72" value="1" style="ellipse;whiteSpace=wrap;html=1;aspect=fixed;fontColor=#FFFFFF;fontSize=6;strokeColor=#98A2AE;fontFamily=Manrope;fontSource=https%3A%2F%2Ffonts.googleapis.com%2Fcss%3Ffamily%3DManrope;fillColor=#BEC8D2;" parent="qmLtoWKtNvX0ufszp72u-1" vertex="1">
          <mxGeometry x="391" y="395" width="8" height="8" as="geometry" />
        </mxCell>
        <mxCell id="tEZGEbmFmbo_nm0fESEB-73" value="2" style="ellipse;whiteSpace=wrap;html=1;aspect=fixed;fontColor=#FFFFFF;fontSize=6;strokeColor=#98A2AE;fontFamily=Manrope;fontSource=https%3A%2F%2Ffonts.googleapis.com%2Fcss%3Ffamily%3DManrope;fillColor=#BEC8D2;" parent="qmLtoWKtNvX0ufszp72u-1" vertex="1">
          <mxGeometry x="405" y="395" width="8" height="8" as="geometry" />
        </mxCell>
        <mxCell id="tEZGEbmFmbo_nm0fESEB-74" value="&lt;font style=&quot;font-size: 10px&quot;&gt;spine2&lt;/font&gt;" style="text;html=1;align=center;verticalAlign=middle;resizable=0;points=[];autosize=1;fontSize=10;fontFamily=Manrope;fontStyle=0;fontColor=#FFFFFF;connectable=0;" parent="qmLtoWKtNvX0ufszp72u-1" vertex="1">
          <mxGeometry x="315" y="252" width="49" height="24" as="geometry" />
        </mxCell>
        <mxCell id="tEZGEbmFmbo_nm0fESEB-76" value="10" style="ellipse;whiteSpace=wrap;html=1;aspect=fixed;fontColor=#FFFFFF;fontSize=6;strokeColor=#98A2AE;fontFamily=Manrope;fontSource=https%3A%2F%2Ffonts.googleapis.com%2Fcss%3Ffamily%3DManrope;fillColor=#BEC8D2;" parent="qmLtoWKtNvX0ufszp72u-1" vertex="1">
          <mxGeometry x="304" y="414" width="8" height="8" as="geometry" />
        </mxCell>
        <mxCell id="tEZGEbmFmbo_nm0fESEB-78" value="10" style="ellipse;whiteSpace=wrap;html=1;aspect=fixed;fontColor=#FFFFFF;fontSize=6;strokeColor=#98A2AE;fontFamily=Manrope;fontSource=https%3A%2F%2Ffonts.googleapis.com%2Fcss%3Ffamily%3DManrope;fillColor=#BEC8D2;" parent="qmLtoWKtNvX0ufszp72u-1" vertex="1">
          <mxGeometry x="379" y="414" width="8" height="8" as="geometry" />
        </mxCell>
        <mxCell id="tEZGEbmFmbo_nm0fESEB-80" value="" style="group" parent="qmLtoWKtNvX0ufszp72u-1" vertex="1" connectable="0">
          <mxGeometry x="329" y="448" width="36" height="19.85000000000005" as="geometry" />
        </mxCell>
        <mxCell id="Npf5GpqRj1pCR8M79W8l-1" value="" style="rounded=1;whiteSpace=wrap;html=1;strokeColor=none;arcSize=2;" parent="tEZGEbmFmbo_nm0fESEB-80" vertex="1">
          <mxGeometry x="4.090000000000032" y="2.410000000000041" width="23" height="13.59" as="geometry" />
        </mxCell>
        <mxCell id="tEZGEbmFmbo_nm0fESEB-81" value="" style="shape=image;editableCssRules=\.color;verticalLabelPosition=bottom;labelBackgroundColor=#ffffff;verticalAlign=top;aspect=fixed;imageAspect=0;image=data:image/svg+xml,PHN2ZyB4bWxucz0iaHR0cDovL3d3dy53My5vcmcvMjAwMC9zdmciIHhtbG5zOnhsaW5rPSJodHRwOi8vd3d3LnczLm9yZy8xOTk5L3hsaW5rIiB2aWV3Qm94PSIwIDAgMTMxIDgxIiBmaWxsPSIjZmZmIiBmaWxsLXJ1bGU9ImV2ZW5vZGQiIHN0cm9rZT0iIzAwMCIgc3Ryb2tlLWxpbmVjYXA9InJvdW5kIiBzdHJva2UtbGluZWpvaW49InJvdW5kIj48dXNlIHhsaW5rOmhyZWY9IiNBIiB4PSIuNSIgeT0iLjUiLz48c3ltYm9sIGlkPSJBIiBvdmVyZmxvdz0idmlzaWJsZSI+PHBhdGggY2xhc3M9ImNvbG9yIiBkPSJNMTE5LjA3OCA2Mi43MDNWNy4yNzVjMC0yLjc0Ni0yLjU0LTcuMjc1LTUuNTgtNy4yNzVIMTYuNDc1Yy0zLjA0IDAtNi4wOCA0LjUzLTYuMDggNy4yNzV2NTUuNDI3Qy0uNDk4IDc0LjI0NC4wMDQgNzQuMjQ0LjAwNCA3NC4yNDQuMDA0IDc3LjUxNiAzLjA0NCA4MCA2Ljg1MiA4MGgxMTYuM2MzLjgwOCAwIDYuODQ4LTIuNzQ3IDYuODQ4LTUuNzU2bC0xMC45MjItMTEuNTR6TTczLjk3NSA3NS4yMzdoLTIwLjI4Yy0xLjAwNCAwLTIuMDM3LS40OTctMi4wMzctLjk5M2wyLjI3My0zLjc3YzAtLjQ5Ny43NjctLjc2IDEuNzctLjc2SDcxLjkxYy43NjcgMCAxLjUzNS4yNjMgMS41MzUuNzZsMi41NCAzLjc3Yy4wMy43My0xLjAwNC45OTMtMi4wMDcuOTkzaDB6bTQwLjI5Mi0xMi43OThIMTUuMjA1VjcuNzcyYzAtMS4yNTYgMS4yNy0zLjAxIDIuNzc1LTMuMDFoOTMuNzVjMS41MzUgMCAyLjU0IDEuNzUzIDIuNTQgM1Y2Mi40NHoiIGZpbGw9IiMyYTMyODIiIHN0cm9rZT0ibm9uZSIvPjwvc3ltYm9sPjxzdHlsZSB0eXBlPSJ0ZXh0L2NzcyI+LmNvbG9yIHsgZmlsbDogcmdiKDAsIDE3LCA1Myk7IH0gPC9zdHlsZT48L3N2Zz4=;" parent="tEZGEbmFmbo_nm0fESEB-80" vertex="1">
          <mxGeometry y="0.5600000000000325" width="31.197407407407447" height="19.290000000000017" as="geometry" />
        </mxCell>
        <mxCell id="tEZGEbmFmbo_nm0fESEB-82" value="" style="shape=image;verticalLabelPosition=bottom;labelBackgroundColor=#ffffff;verticalAlign=top;aspect=fixed;imageAspect=0;image=data:image/svg+xml,PHN2ZyB4bWxucz0iaHR0cDovL3d3dy53My5vcmcvMjAwMC9zdmciIHhtbG5zOnhsaW5rPSJodHRwOi8vd3d3LnczLm9yZy8xOTk5L3hsaW5rIiB2aWV3Qm94PSIwIDAgNjUgNTciIGZpbGw9IiNmZmYiIGZpbGwtcnVsZT0iZXZlbm9kZCIgc3Ryb2tlPSIjMDAwIiBzdHJva2UtbGluZWNhcD0icm91bmQiIHN0cm9rZS1saW5lam9pbj0icm91bmQiPjx1c2UgeGxpbms6aHJlZj0iI0EiIHg9Ii41IiB5PSIuNSIvPjxzeW1ib2wgaWQ9IkEiIG92ZXJmbG93PSJ2aXNpYmxlIj48ZyBzdHJva2U9Im5vbmUiIGZpbGw9IiMwZDU5N2YiIGZpbGwtcnVsZT0ibm9uemVybyI+PHBhdGggZD0iTTIzLjI1MiAzNC41Mjd2LTYuNzQ1bC00Ljg1NSA0Ljg2NGMuNDc0LjMzMy45NjguNjM1IDEuNDguOTA2LjQ2My4yNDMuODcuNDM0IDEuMzAzLjU4YTcuOTcgNy45NyAwIDAgMCAxLjEzLjMwNGMuMzQ4LjA2NC42Ni4wOTMuOTUuMDk2bTI0LjgyMi0uNTYyYTEuMTcgMS4xNyAwIDAgMCAuMTQyLjFjLjEyMy4wNzguMjUyLjE0NS4zODUuMjAzYTIuOTMgMi45MyAwIDAgMCAuNjM3LjE5NGMuMjk2LjA2LjU5OC4wODguOS4wODdhNS44NCA1Ljg0IDAgMCAwIC45NTUtLjA4NyA3LjI0IDcuMjQgMCAwIDAgMS4xMzgtLjMwMWMuNDUzLS4xNi44OTUtLjM1NCAxLjMyLS41OC41Mi0uMjc0IDEuMDItLjU4IDEuNTAzLS45MThsLTMuNjg1LTMuNi0xMi4yLTEyLjI1OC01LjM1NiA1LjM1Ni03LjIzLTcuNDU1TDguNDQgMzIuNjQ3Yy40OC4zMzcuOTguNjQ0IDEuNS45MTguNDcuMjQ2LjkuNDM0IDEuMzE3LjU4YTcuMTggNy4xOCAwIDAgMCAxLjEzNS4zMDEgNS41MyA1LjUzIDAgMCAwIC45NTUuMDg3IDQuNTMgNC41MyAwIDAgMCAuOS0uMDg3IDMuMjkgMy4yOSAwIDAgMCAuNjM3LS4xOTRjLjEzNC0uMDU0LjI2My0uMTIuMzg1LS4xOTdsLjE0NS0uMTA0IDguMTkzLTguMTkzIDIuOTI0LTIuODA4IDguMTA2IDguMTA2IDIuODM3IDIuOTEyYy4wNDYuMDM3LjA5NC4wNy4xNDUuMS4xMjIuMDc4LjI1LjE0NS4zODUuMmEzLjQ5IDMuNDkgMCAwIDAgLjYzNy4xOTRjLjI1NS4wNTIuNTU2LjA4Ny45MDMuMDg3YTUuODQgNS44NCAwIDAgMCAuOTU1LS4wODdjLjM4Ny0uMDY4Ljc2OC0uMTY4IDEuMTM4LS4zYTkuOTQgOS45NCAwIDAgMCAxLjMyLS41NzljLjUyLS4yNzQgMS4wMi0uNTggMS41MDMtLjkxOGwtNi41MDgtNi4zNyAxLjItMS4yIDUuNjMgNS42MyAzLjI4MyAzLjI1NE00Ny45OTYuMDJsMTUuOTk4IDI3LjcxNC0xNS45OSAyNy42OTRIMTUuOTk4TDAgMjcuNzE0IDE1Ljk5OCAweiIvPjxwYXRoIGQ9Ik0zOC4wMjIgMjYuMzY3TDMzLjc2IDIyLjExbC4zMDQtLjMwNCA0LjMgNC4yNDR6Ii8+PC9nPjwvc3ltYm9sPjwvc3ZnPg==;fontColor=#001135;" parent="tEZGEbmFmbo_nm0fESEB-80" vertex="1">
          <mxGeometry x="9.892276841632592" y="4.203888888888923" width="11.40491481481483" height="10.002222222222235" as="geometry" />
        </mxCell>
        <mxCell id="tEZGEbmFmbo_nm0fESEB-83" style="rounded=0;orthogonalLoop=1;jettySize=auto;html=1;startSize=6;endArrow=none;endFill=0;endSize=2;fontFamily=Manrope;fontSize=8;strokeColor=#98A2AE;fontSource=https%3A%2F%2Ffonts.googleapis.com%2Fcss%3Ffamily%3DManrope;entryX=1;entryY=0.5;entryDx=0;entryDy=0;exitX=0.5;exitY=0;exitDx=0;exitDy=0;" parent="qmLtoWKtNvX0ufszp72u-1" source="tEZGEbmFmbo_nm0fESEB-94" target="tEZGEbmFmbo_nm0fESEB-84" edge="1">
          <mxGeometry relative="1" as="geometry">
            <mxPoint x="228" y="418" as="sourcePoint" />
            <mxPoint x="210" y="422" as="targetPoint" />
            <Array as="points">
              <mxPoint x="232" y="418" />
            </Array>
          </mxGeometry>
        </mxCell>
        <mxCell id="tEZGEbmFmbo_nm0fESEB-84" value="10" style="ellipse;whiteSpace=wrap;html=1;aspect=fixed;fontColor=#FFFFFF;fontSize=6;strokeColor=#98A2AE;fontFamily=Manrope;fontSource=https%3A%2F%2Ffonts.googleapis.com%2Fcss%3Ffamily%3DManrope;fillColor=#BEC8D2;" parent="qmLtoWKtNvX0ufszp72u-1" vertex="1">
          <mxGeometry x="196" y="414" width="8" height="8" as="geometry" />
        </mxCell>
        <mxCell id="tEZGEbmFmbo_nm0fESEB-85" value="" style="group" parent="qmLtoWKtNvX0ufszp72u-1" vertex="1" connectable="0">
          <mxGeometry x="218" y="450" width="77" height="41.410000000000025" as="geometry" />
        </mxCell>
        <mxCell id="Npf5GpqRj1pCR8M79W8l-0" value="" style="rounded=1;whiteSpace=wrap;html=1;strokeColor=none;arcSize=2;" parent="tEZGEbmFmbo_nm0fESEB-85" vertex="1">
          <mxGeometry x="2" y="0.410000000000041" width="23" height="13.59" as="geometry" />
        </mxCell>
        <mxCell id="tEZGEbmFmbo_nm0fESEB-86" value="" style="shape=image;editableCssRules=\.color;verticalLabelPosition=bottom;labelBackgroundColor=#ffffff;verticalAlign=top;aspect=fixed;imageAspect=0;image=data:image/svg+xml,PHN2ZyB4bWxucz0iaHR0cDovL3d3dy53My5vcmcvMjAwMC9zdmciIHhtbG5zOnhsaW5rPSJodHRwOi8vd3d3LnczLm9yZy8xOTk5L3hsaW5rIiB2aWV3Qm94PSIwIDAgMTMxIDgxIiBmaWxsPSIjZmZmIiBmaWxsLXJ1bGU9ImV2ZW5vZGQiIHN0cm9rZT0iIzAwMCIgc3Ryb2tlLWxpbmVjYXA9InJvdW5kIiBzdHJva2UtbGluZWpvaW49InJvdW5kIj48dXNlIHhsaW5rOmhyZWY9IiNBIiB4PSIuNSIgeT0iLjUiLz48c3ltYm9sIGlkPSJBIiBvdmVyZmxvdz0idmlzaWJsZSI+PHBhdGggY2xhc3M9ImNvbG9yIiBkPSJNMTE5LjA3OCA2Mi43MDNWNy4yNzVjMC0yLjc0Ni0yLjU0LTcuMjc1LTUuNTgtNy4yNzVIMTYuNDc1Yy0zLjA0IDAtNi4wOCA0LjUzLTYuMDggNy4yNzV2NTUuNDI3Qy0uNDk4IDc0LjI0NC4wMDQgNzQuMjQ0LjAwNCA3NC4yNDQuMDA0IDc3LjUxNiAzLjA0NCA4MCA2Ljg1MiA4MGgxMTYuM2MzLjgwOCAwIDYuODQ4LTIuNzQ3IDYuODQ4LTUuNzU2bC0xMC45MjItMTEuNTR6TTczLjk3NSA3NS4yMzdoLTIwLjI4Yy0xLjAwNCAwLTIuMDM3LS40OTctMi4wMzctLjk5M2wyLjI3My0zLjc3YzAtLjQ5Ny43NjctLjc2IDEuNzctLjc2SDcxLjkxYy43NjcgMCAxLjUzNS4yNjMgMS41MzUuNzZsMi41NCAzLjc3Yy4wMy43My0xLjAwNC45OTMtMi4wMDcuOTkzaDB6bTQwLjI5Mi0xMi43OThIMTUuMjA1VjcuNzcyYzAtMS4yNTYgMS4yNy0zLjAxIDIuNzc1LTMuMDFoOTMuNzVjMS41MzUgMCAyLjU0IDEuNzUzIDIuNTQgM1Y2Mi40NHoiIGZpbGw9IiMyYTMyODIiIHN0cm9rZT0ibm9uZSIvPjwvc3ltYm9sPjxzdHlsZSB0eXBlPSJ0ZXh0L2NzcyI+LmNvbG9yIHsgZmlsbDogcmdiKDAsIDE3LCA1Myk7IH0gPC9zdHlsZT48L3N2Zz4=;" parent="tEZGEbmFmbo_nm0fESEB-85" vertex="1">
          <mxGeometry x="-2" y="-1.4399999999999675" width="31.197407407407447" height="19.290000000000017" as="geometry" />
        </mxCell>
        <mxCell id="tEZGEbmFmbo_nm0fESEB-87" value="" style="shape=image;verticalLabelPosition=bottom;labelBackgroundColor=#ffffff;verticalAlign=top;aspect=fixed;imageAspect=0;image=data:image/svg+xml,PHN2ZyB4bWxucz0iaHR0cDovL3d3dy53My5vcmcvMjAwMC9zdmciIHhtbG5zOnhsaW5rPSJodHRwOi8vd3d3LnczLm9yZy8xOTk5L3hsaW5rIiB2aWV3Qm94PSIwIDAgNjUgNTciIGZpbGw9IiNmZmYiIGZpbGwtcnVsZT0iZXZlbm9kZCIgc3Ryb2tlPSIjMDAwIiBzdHJva2UtbGluZWNhcD0icm91bmQiIHN0cm9rZS1saW5lam9pbj0icm91bmQiPjx1c2UgeGxpbms6aHJlZj0iI0EiIHg9Ii41IiB5PSIuNSIvPjxzeW1ib2wgaWQ9IkEiIG92ZXJmbG93PSJ2aXNpYmxlIj48ZyBzdHJva2U9Im5vbmUiIGZpbGw9IiMwZDU5N2YiIGZpbGwtcnVsZT0ibm9uemVybyI+PHBhdGggZD0iTTIzLjI1MiAzNC41Mjd2LTYuNzQ1bC00Ljg1NSA0Ljg2NGMuNDc0LjMzMy45NjguNjM1IDEuNDguOTA2LjQ2My4yNDMuODcuNDM0IDEuMzAzLjU4YTcuOTcgNy45NyAwIDAgMCAxLjEzLjMwNGMuMzQ4LjA2NC42Ni4wOTMuOTUuMDk2bTI0LjgyMi0uNTYyYTEuMTcgMS4xNyAwIDAgMCAuMTQyLjFjLjEyMy4wNzguMjUyLjE0NS4zODUuMjAzYTIuOTMgMi45MyAwIDAgMCAuNjM3LjE5NGMuMjk2LjA2LjU5OC4wODguOS4wODdhNS44NCA1Ljg0IDAgMCAwIC45NTUtLjA4NyA3LjI0IDcuMjQgMCAwIDAgMS4xMzgtLjMwMWMuNDUzLS4xNi44OTUtLjM1NCAxLjMyLS41OC41Mi0uMjc0IDEuMDItLjU4IDEuNTAzLS45MThsLTMuNjg1LTMuNi0xMi4yLTEyLjI1OC01LjM1NiA1LjM1Ni03LjIzLTcuNDU1TDguNDQgMzIuNjQ3Yy40OC4zMzcuOTguNjQ0IDEuNS45MTguNDcuMjQ2LjkuNDM0IDEuMzE3LjU4YTcuMTggNy4xOCAwIDAgMCAxLjEzNS4zMDEgNS41MyA1LjUzIDAgMCAwIC45NTUuMDg3IDQuNTMgNC41MyAwIDAgMCAuOS0uMDg3IDMuMjkgMy4yOSAwIDAgMCAuNjM3LS4xOTRjLjEzNC0uMDU0LjI2My0uMTIuMzg1LS4xOTdsLjE0NS0uMTA0IDguMTkzLTguMTkzIDIuOTI0LTIuODA4IDguMTA2IDguMTA2IDIuODM3IDIuOTEyYy4wNDYuMDM3LjA5NC4wNy4xNDUuMS4xMjIuMDc4LjI1LjE0NS4zODUuMmEzLjQ5IDMuNDkgMCAwIDAgLjYzNy4xOTRjLjI1NS4wNTIuNTU2LjA4Ny45MDMuMDg3YTUuODQgNS44NCAwIDAgMCAuOTU1LS4wODdjLjM4Ny0uMDY4Ljc2OC0uMTY4IDEuMTM4LS4zYTkuOTQgOS45NCAwIDAgMCAxLjMyLS41NzljLjUyLS4yNzQgMS4wMi0uNTggMS41MDMtLjkxOGwtNi41MDgtNi4zNyAxLjItMS4yIDUuNjMgNS42MyAzLjI4MyAzLjI1NE00Ny45OTYuMDJsMTUuOTk4IDI3LjcxNC0xNS45OSAyNy42OTRIMTUuOTk4TDAgMjcuNzE0IDE1Ljk5OCAweiIvPjxwYXRoIGQ9Ik0zOC4wMjIgMjYuMzY3TDMzLjc2IDIyLjExbC4zMDQtLjMwNCA0LjMgNC4yNDR6Ii8+PC9nPjwvc3ltYm9sPjwvc3ZnPg==;fontColor=#001135;" parent="tEZGEbmFmbo_nm0fESEB-85" vertex="1">
          <mxGeometry x="7.892276841632592" y="2.2038888888889234" width="11.40491481481483" height="10.002222222222235" as="geometry" />
        </mxCell>
        <mxCell id="Npf5GpqRj1pCR8M79W8l-17" value="&lt;font style=&quot;font-size: 6px&quot;&gt;.31&lt;/font&gt;" style="text;html=1;align=center;verticalAlign=middle;resizable=0;points=[];autosize=1;fontSize=6;fontFamily=Fira Code;fontStyle=0;connectable=0;fontColor=#4BDD33;fontSource=https%3A%2F%2Ffonts.googleapis.com%2Fcss%3Ffamily%3DFira%2BCode;textOpacity=50;" parent="tEZGEbmFmbo_nm0fESEB-85" vertex="1">
          <mxGeometry x="25" y="-1.4399999999999977" width="21" height="11" as="geometry" />
        </mxCell>
        <mxCell id="tEZGEbmFmbo_nm0fESEB-91" value="&lt;font style=&quot;font-size: 10px&quot;&gt;client1&lt;/font&gt;" style="text;html=1;align=center;verticalAlign=middle;resizable=0;points=[];autosize=1;fontSize=10;fontFamily=Manrope;fontStyle=0;fontColor=#FFFFFF;" parent="tEZGEbmFmbo_nm0fESEB-85" vertex="1">
          <mxGeometry x="-10.5" y="11" width="48" height="24" as="geometry" />
        </mxCell>
        <mxCell id="tEZGEbmFmbo_nm0fESEB-92" value="&lt;font style=&quot;font-size: 10px&quot;&gt;client2&lt;/font&gt;" style="text;html=1;align=center;verticalAlign=middle;resizable=0;points=[];autosize=1;fontSize=10;fontFamily=Manrope;fontStyle=0;fontColor=#FFFFFF;" parent="qmLtoWKtNvX0ufszp72u-1" vertex="1">
          <mxGeometry x="320" y="461" width="49" height="24" as="geometry" />
        </mxCell>
        <mxCell id="tEZGEbmFmbo_nm0fESEB-94" value="eth1" style="whiteSpace=wrap;html=1;fontFamily=Manrope;fontSource=https%3A%2F%2Ffonts.googleapis.com%2Fcss%3Ffamily%3DManrope;fontSize=6;align=center;fillColor=#BEC8D2;fontColor=#FFFFFF;strokeColor=#98A2AE;perimeterSpacing=0;rounded=1;" parent="qmLtoWKtNvX0ufszp72u-1" vertex="1">
          <mxGeometry x="225" y="443" width="14" height="6" as="geometry" />
        </mxCell>
        <mxCell id="4BjNVexfN0YR6-iCTYC8-0" style="rounded=0;orthogonalLoop=1;jettySize=auto;html=1;startSize=6;endArrow=none;endFill=0;endSize=2;fontFamily=Manrope;fontSize=8;strokeColor=#98A2AE;fontSource=https%3A%2F%2Ffonts.googleapis.com%2Fcss%3Ffamily%3DManrope;entryX=1;entryY=0.5;entryDx=0;entryDy=0;exitX=0.5;exitY=0;exitDx=0;exitDy=0;" parent="qmLtoWKtNvX0ufszp72u-1" source="4BjNVexfN0YR6-iCTYC8-1" target="tEZGEbmFmbo_nm0fESEB-76" edge="1">
          <mxGeometry relative="1" as="geometry">
            <mxPoint x="340" y="416" as="sourcePoint" />
            <mxPoint x="316.0000000000008" y="416" as="targetPoint" />
            <Array as="points">
              <mxPoint x="333" y="418" />
            </Array>
          </mxGeometry>
        </mxCell>
        <mxCell id="4BjNVexfN0YR6-iCTYC8-1" value="eth1" style="rounded=1;whiteSpace=wrap;html=1;fontFamily=Manrope;fontSource=https%3A%2F%2Ffonts.googleapis.com%2Fcss%3Ffamily%3DManrope;fontSize=6;align=center;fillColor=#BEC8D2;fontColor=#FFFFFF;strokeColor=#98A2AE;" parent="qmLtoWKtNvX0ufszp72u-1" vertex="1">
          <mxGeometry x="326" y="443" width="14" height="6" as="geometry" />
        </mxCell>
        <mxCell id="M0d44r2Romzp_ubsgTKp-0" value="" style="endArrow=none;html=1;shadow=0;strokeWidth=4;fillColor=#666666;fontFamily=nasa;fontSize=18;fontColor=#FFFFFF;strokeColor=#4BDD33;" parent="qmLtoWKtNvX0ufszp72u-1" edge="1">
          <mxGeometry width="50" height="50" relative="1" as="geometry">
            <mxPoint x="136" y="240" as="sourcePoint" />
            <mxPoint x="468" y="240" as="targetPoint" />
          </mxGeometry>
        </mxCell>
        <mxCell id="M0d44r2Romzp_ubsgTKp-1" value="&lt;font style=&quot;font-size: 12px&quot; color=&quot;#ffffff&quot;&gt;mgmt net&lt;br&gt;172.22.22.0/24&lt;br&gt;&lt;/font&gt;" style="text;html=1;align=right;verticalAlign=middle;resizable=0;points=[];autosize=1;fontSize=10;fontFamily=Manrope;fontColor=#001135;" parent="qmLtoWKtNvX0ufszp72u-1" vertex="1">
          <mxGeometry x="34" y="219" width="98" height="41" as="geometry" />
        </mxCell>
        <mxCell id="M0d44r2Romzp_ubsgTKp-4" style="edgeStyle=orthogonalEdgeStyle;rounded=0;orthogonalLoop=1;jettySize=auto;html=1;fontFamily=Manrope;fontSize=12;fontColor=#FFFFFF;endArrow=oval;endFill=1;startArrow=oval;startFill=1;strokeColor=#4BDD33;startSize=5;endSize=3;entryX=1;entryY=0.5;entryDx=0;entryDy=0;dashed=1;opacity=20;" parent="qmLtoWKtNvX0ufszp72u-1" target="tEZGEbmFmbo_nm0fESEB-8" edge="1">
          <mxGeometry relative="1" as="geometry">
            <mxPoint x="369" y="240" as="sourcePoint" />
            <mxPoint x="224" y="289.0000000000001" as="targetPoint" />
            <Array as="points">
              <mxPoint x="369" y="287" />
            </Array>
          </mxGeometry>
        </mxCell>
        <mxCell id="M0d44r2Romzp_ubsgTKp-5" style="edgeStyle=orthogonalEdgeStyle;rounded=0;orthogonalLoop=1;jettySize=auto;html=1;fontFamily=Manrope;fontSize=12;fontColor=#FFFFFF;endArrow=oval;endFill=1;startArrow=oval;startFill=1;strokeColor=#4BDD33;startSize=5;endSize=3;entryX=0;entryY=0.5;entryDx=0;entryDy=0;dashed=1;opacity=20;" parent="qmLtoWKtNvX0ufszp72u-1" target="tEZGEbmFmbo_nm0fESEB-36" edge="1">
          <mxGeometry relative="1" as="geometry">
            <mxPoint x="148" y="240" as="sourcePoint" />
            <mxPoint x="224" y="289" as="targetPoint" />
            <Array as="points">
              <mxPoint x="148" y="240" />
              <mxPoint x="148" y="418" />
            </Array>
          </mxGeometry>
        </mxCell>
        <mxCell id="M0d44r2Romzp_ubsgTKp-6" style="edgeStyle=orthogonalEdgeStyle;rounded=0;orthogonalLoop=1;jettySize=auto;html=1;fontFamily=Manrope;fontSize=12;fontColor=#FFFFFF;endArrow=oval;endFill=1;startArrow=oval;startFill=1;strokeColor=#4BDD33;startSize=5;endSize=3;entryX=0.5;entryY=0;entryDx=0;entryDy=0;dashed=1;opacity=20;" parent="qmLtoWKtNvX0ufszp72u-1" target="tEZGEbmFmbo_nm0fESEB-30" edge="1">
          <mxGeometry relative="1" as="geometry">
            <mxPoint x="289" y="240" as="sourcePoint" />
            <mxPoint x="168" y="420" as="targetPoint" />
            <Array as="points">
              <mxPoint x="289" y="240" />
            </Array>
          </mxGeometry>
        </mxCell>
        <mxCell id="M0d44r2Romzp_ubsgTKp-7" style="edgeStyle=orthogonalEdgeStyle;rounded=0;orthogonalLoop=1;jettySize=auto;html=1;fontFamily=Manrope;fontSize=12;fontColor=#FFFFFF;endArrow=oval;endFill=1;startArrow=oval;startFill=1;strokeColor=#4BDD33;startSize=5;endSize=3;dashed=1;opacity=20;" parent="qmLtoWKtNvX0ufszp72u-1" edge="1">
          <mxGeometry relative="1" as="geometry">
            <mxPoint x="438" y="240" as="sourcePoint" />
            <mxPoint x="417" y="408" as="targetPoint" />
            <Array as="points">
              <mxPoint x="438" y="408" />
            </Array>
          </mxGeometry>
        </mxCell>
        <mxCell id="M0d44r2Romzp_ubsgTKp-15" value="&lt;font style=&quot;font-size: 10px&quot;&gt;elastic&lt;/font&gt;" style="text;html=1;align=center;verticalAlign=middle;resizable=0;points=[];autosize=1;fontSize=10;fontFamily=Manrope;fontStyle=0;fontColor=#FFFFFF;connectable=0;" parent="qmLtoWKtNvX0ufszp72u-1" vertex="1">
          <mxGeometry x="204" y="149" width="49" height="24" as="geometry" />
        </mxCell>
        <mxCell id="M0d44r2Romzp_ubsgTKp-16" value="&lt;font style=&quot;font-size: 10px&quot;&gt;logstash&lt;/font&gt;" style="text;html=1;align=center;verticalAlign=middle;resizable=0;points=[];autosize=1;fontSize=10;fontFamily=Manrope;fontStyle=0;fontColor=#FFFFFF;connectable=0;" parent="qmLtoWKtNvX0ufszp72u-1" vertex="1">
          <mxGeometry x="275.5" y="149" width="58" height="24" as="geometry" />
        </mxCell>
        <mxCell id="M0d44r2Romzp_ubsgTKp-17" value="&lt;font style=&quot;font-size: 10px&quot;&gt;kibana&lt;/font&gt;" style="text;html=1;align=center;verticalAlign=middle;resizable=0;points=[];autosize=1;fontSize=10;fontFamily=Manrope;fontStyle=0;fontColor=#FFFFFF;connectable=0;" parent="qmLtoWKtNvX0ufszp72u-1" vertex="1">
          <mxGeometry x="356.50000000000006" y="149" width="48" height="24" as="geometry" />
        </mxCell>
        <mxCell id="Npf5GpqRj1pCR8M79W8l-3" value="&lt;font style=&quot;font-size: 6px&quot;&gt;.10&lt;/font&gt;" style="text;html=1;align=center;verticalAlign=middle;resizable=0;points=[];autosize=1;fontSize=6;fontFamily=Fira Code;fontStyle=0;connectable=0;fontColor=#4BDD33;fontSource=https%3A%2F%2Ffonts.googleapis.com%2Fcss%3Ffamily%3DFira%2BCode;textOpacity=50;" parent="qmLtoWKtNvX0ufszp72u-1" vertex="1">
          <mxGeometry x="220" y="195.67" width="29" height="19" as="geometry" />
        </mxCell>
        <mxCell id="Npf5GpqRj1pCR8M79W8l-4" value="&lt;font style=&quot;font-size: 6px&quot;&gt;.11&lt;/font&gt;" style="text;html=1;align=center;verticalAlign=middle;resizable=0;points=[];autosize=1;fontSize=6;fontFamily=Fira Code;fontStyle=0;connectable=0;fontColor=#4BDD33;fontSource=https%3A%2F%2Ffonts.googleapis.com%2Fcss%3Ffamily%3DFira%2BCode;textOpacity=50;" parent="qmLtoWKtNvX0ufszp72u-1" vertex="1">
          <mxGeometry x="296.5" y="195.67" width="29" height="19" as="geometry" />
        </mxCell>
        <mxCell id="Npf5GpqRj1pCR8M79W8l-5" value="&lt;font style=&quot;font-size: 6px&quot;&gt;.12&lt;/font&gt;" style="text;html=1;align=center;verticalAlign=middle;resizable=0;points=[];autosize=1;fontSize=6;fontFamily=Fira Code;fontStyle=0;connectable=0;fontColor=#4BDD33;fontSource=https%3A%2F%2Ffonts.googleapis.com%2Fcss%3Ffamily%3DFira%2BCode;textOpacity=50;" parent="qmLtoWKtNvX0ufszp72u-1" vertex="1">
          <mxGeometry x="374" y="195.67" width="29" height="19" as="geometry" />
        </mxCell>
        <mxCell id="Npf5GpqRj1pCR8M79W8l-6" value="&lt;font style=&quot;font-size: 6px&quot;&gt;.21&lt;/font&gt;" style="text;html=1;align=center;verticalAlign=middle;resizable=0;points=[];autosize=1;fontSize=6;fontFamily=Fira Code;fontStyle=0;connectable=0;fontColor=#4BDD33;fontSource=https%3A%2F%2Ffonts.googleapis.com%2Fcss%3Ffamily%3DFira%2BCode;textOpacity=50;" parent="qmLtoWKtNvX0ufszp72u-1" vertex="1">
          <mxGeometry x="143" y="403" width="29" height="19" as="geometry" />
        </mxCell>
        <mxCell id="Npf5GpqRj1pCR8M79W8l-7" value="&lt;font style=&quot;font-size: 6px&quot;&gt;.22&lt;/font&gt;" style="text;html=1;align=center;verticalAlign=middle;resizable=0;points=[];autosize=1;fontSize=6;fontFamily=Fira Code;fontStyle=0;connectable=0;fontColor=#4BDD33;fontSource=https%3A%2F%2Ffonts.googleapis.com%2Fcss%3Ffamily%3DFira%2BCode;textOpacity=50;" parent="qmLtoWKtNvX0ufszp72u-1" vertex="1">
          <mxGeometry x="276" y="382" width="29" height="19" as="geometry" />
        </mxCell>
        <mxCell id="Npf5GpqRj1pCR8M79W8l-8" value="&lt;font style=&quot;font-size: 6px&quot;&gt;.23&lt;/font&gt;" style="text;html=1;align=center;verticalAlign=middle;resizable=0;points=[];autosize=1;fontSize=6;fontFamily=Fira Code;fontStyle=0;connectable=0;fontColor=#4BDD33;fontSource=https%3A%2F%2Ffonts.googleapis.com%2Fcss%3Ffamily%3DFira%2BCode;textOpacity=50;" parent="qmLtoWKtNvX0ufszp72u-1" vertex="1">
          <mxGeometry x="409" y="393" width="29" height="19" as="geometry" />
        </mxCell>
        <mxCell id="Npf5GpqRj1pCR8M79W8l-9" value="&lt;font style=&quot;font-size: 6px&quot;&gt;.25&lt;/font&gt;" style="text;html=1;align=center;verticalAlign=middle;resizable=0;points=[];autosize=1;fontSize=6;fontFamily=Fira Code;fontStyle=0;connectable=0;fontColor=#4BDD33;fontSource=https%3A%2F%2Ffonts.googleapis.com%2Fcss%3Ffamily%3DFira%2BCode;textOpacity=50;" parent="qmLtoWKtNvX0ufszp72u-1" vertex="1">
          <mxGeometry x="200" y="271" width="29" height="19" as="geometry" />
        </mxCell>
        <mxCell id="Npf5GpqRj1pCR8M79W8l-10" value="&lt;font style=&quot;font-size: 6px&quot;&gt;.26&lt;/font&gt;" style="text;html=1;align=center;verticalAlign=middle;resizable=0;points=[];autosize=1;fontSize=6;fontFamily=Fira Code;fontStyle=0;connectable=0;fontColor=#4BDD33;fontSource=https%3A%2F%2Ffonts.googleapis.com%2Fcss%3Ffamily%3DFira%2BCode;textOpacity=50;" parent="qmLtoWKtNvX0ufszp72u-1" vertex="1">
          <mxGeometry x="346" y="271" width="29" height="19" as="geometry" />
        </mxCell>
        <mxCell id="Npf5GpqRj1pCR8M79W8l-11" value="" style="endArrow=none;html=1;shadow=0;strokeWidth=4;fillColor=#666666;fontFamily=nasa;fontSize=18;fontColor=#FFFFFF;strokeColor=#4BDD33;" parent="qmLtoWKtNvX0ufszp72u-1" edge="1">
          <mxGeometry width="50" height="50" relative="1" as="geometry">
            <mxPoint x="135" y="510" as="sourcePoint" />
            <mxPoint x="467" y="510" as="targetPoint" />
          </mxGeometry>
        </mxCell>
        <mxCell id="Npf5GpqRj1pCR8M79W8l-12" value="&lt;font style=&quot;font-size: 12px&quot; color=&quot;#ffffff&quot;&gt;mgmt net&lt;/font&gt;" style="text;html=1;align=right;verticalAlign=middle;resizable=0;points=[];autosize=1;fontSize=10;fontFamily=Manrope;fontColor=#001135;" parent="qmLtoWKtNvX0ufszp72u-1" vertex="1">
          <mxGeometry x="68" y="500" width="64" height="18" as="geometry" />
        </mxCell>
        <mxCell id="Npf5GpqRj1pCR8M79W8l-13" style="edgeStyle=orthogonalEdgeStyle;rounded=0;orthogonalLoop=1;jettySize=auto;html=1;fontFamily=Manrope;fontSize=12;fontColor=#FFFFFF;endArrow=oval;endFill=1;startArrow=oval;startFill=1;strokeColor=#4BDD33;startSize=5;endSize=3;dashed=1;opacity=20;" parent="qmLtoWKtNvX0ufszp72u-1" edge="1">
          <mxGeometry relative="1" as="geometry">
            <mxPoint x="266" y="510" as="sourcePoint" />
            <mxPoint x="247" y="458" as="targetPoint" />
            <Array as="points">
              <mxPoint x="266" y="458" />
            </Array>
          </mxGeometry>
        </mxCell>
        <mxCell id="Npf5GpqRj1pCR8M79W8l-14" style="edgeStyle=orthogonalEdgeStyle;rounded=0;orthogonalLoop=1;jettySize=auto;html=1;fontFamily=Manrope;fontSize=12;fontColor=#FFFFFF;endArrow=oval;endFill=1;startArrow=oval;startFill=1;strokeColor=#4BDD33;startSize=5;endSize=3;entryX=1;entryY=0.5;entryDx=0;entryDy=0;dashed=1;opacity=20;" parent="qmLtoWKtNvX0ufszp72u-1" target="tEZGEbmFmbo_nm0fESEB-81" edge="1">
          <mxGeometry relative="1" as="geometry">
            <mxPoint x="380.8" y="510.4" as="sourcePoint" />
            <mxPoint x="361.9974074074075" y="460.04499999999996" as="targetPoint" />
            <Array as="points">
              <mxPoint x="381" y="458" />
            </Array>
          </mxGeometry>
        </mxCell>
        <mxCell id="Npf5GpqRj1pCR8M79W8l-18" value="&lt;font style=&quot;font-size: 6px&quot;&gt;.32&lt;/font&gt;" style="text;html=1;align=center;verticalAlign=middle;resizable=0;points=[];autosize=1;fontSize=6;fontFamily=Fira Code;fontStyle=0;connectable=0;fontColor=#4BDD33;fontSource=https%3A%2F%2Ffonts.googleapis.com%2Fcss%3Ffamily%3DFira%2BCode;textOpacity=50;" parent="qmLtoWKtNvX0ufszp72u-1" vertex="1">
          <mxGeometry x="354" y="448.56" width="21" height="11" as="geometry" />
        </mxCell>
        <mxCell id="rYo3D_EzcANgmWhAMxCA-0" value="" style="whiteSpace=wrap;html=1;aspect=fixed;fontFamily=Fira Code;fontSource=https%3A%2F%2Ffonts.googleapis.com%2Fcss%3Ffamily%3DFira%2BCode;fontSize=6;align=left;strokeColor=none;" parent="qmLtoWKtNvX0ufszp72u-1" vertex="1">
          <mxGeometry x="213" y="171.32" width="30" height="30" as="geometry" />
        </mxCell>
        <mxCell id="rYo3D_EzcANgmWhAMxCA-3" value="" style="whiteSpace=wrap;html=1;aspect=fixed;fontFamily=Fira Code;fontSource=https%3A%2F%2Ffonts.googleapis.com%2Fcss%3Ffamily%3DFira%2BCode;fontSize=6;align=left;strokeColor=none;" parent="qmLtoWKtNvX0ufszp72u-1" vertex="1">
          <mxGeometry x="289" y="171.32" width="30" height="30" as="geometry" />
        </mxCell>
        <mxCell id="rYo3D_EzcANgmWhAMxCA-4" value="" style="whiteSpace=wrap;html=1;aspect=fixed;fontFamily=Fira Code;fontSource=https%3A%2F%2Ffonts.googleapis.com%2Fcss%3Ffamily%3DFira%2BCode;fontSize=6;align=left;strokeColor=none;" parent="qmLtoWKtNvX0ufszp72u-1" vertex="1">
          <mxGeometry x="365" y="171.32" width="30" height="30" as="geometry" />
        </mxCell>
        <mxCell id="M0d44r2Romzp_ubsgTKp-18" style="edgeStyle=orthogonalEdgeStyle;rounded=0;orthogonalLoop=1;jettySize=auto;html=1;fontFamily=Manrope;fontSize=12;fontColor=#FFFFFF;endArrow=oval;endFill=1;startArrow=oval;startFill=1;strokeColor=#4BDD33;startSize=5;endSize=3;dashed=1;opacity=20;entryX=0.5;entryY=1;entryDx=0;entryDy=0;" parent="qmLtoWKtNvX0ufszp72u-1" target="rYo3D_EzcANgmWhAMxCA-0" edge="1">
          <mxGeometry relative="1" as="geometry">
            <mxPoint x="228" y="240" as="sourcePoint" />
            <mxPoint x="228" y="207" as="targetPoint" />
            <Array as="points" />
          </mxGeometry>
        </mxCell>
        <mxCell id="M0d44r2Romzp_ubsgTKp-19" style="edgeStyle=orthogonalEdgeStyle;rounded=0;orthogonalLoop=1;jettySize=auto;html=1;fontFamily=Manrope;fontSize=12;fontColor=#FFFFFF;endArrow=oval;endFill=1;startArrow=oval;startFill=1;strokeColor=#4BDD33;startSize=5;endSize=3;dashed=1;opacity=20;entryX=0.5;entryY=1;entryDx=0;entryDy=0;" parent="qmLtoWKtNvX0ufszp72u-1" target="rYo3D_EzcANgmWhAMxCA-3" edge="1">
          <mxGeometry relative="1" as="geometry">
            <mxPoint x="304" y="240" as="sourcePoint" />
            <mxPoint x="304" y="236" as="targetPoint" />
            <Array as="points">
              <mxPoint x="304" y="210" />
              <mxPoint x="304" y="210" />
            </Array>
          </mxGeometry>
        </mxCell>
        <mxCell id="M0d44r2Romzp_ubsgTKp-20" style="edgeStyle=orthogonalEdgeStyle;rounded=0;orthogonalLoop=1;jettySize=auto;html=1;fontFamily=Manrope;fontSize=12;fontColor=#FFFFFF;endArrow=oval;endFill=1;startArrow=oval;startFill=1;strokeColor=#4BDD33;startSize=5;endSize=3;dashed=1;opacity=20;entryX=0.5;entryY=1;entryDx=0;entryDy=0;" parent="qmLtoWKtNvX0ufszp72u-1" target="rYo3D_EzcANgmWhAMxCA-4" edge="1">
          <mxGeometry relative="1" as="geometry">
            <mxPoint x="380" y="239" as="sourcePoint" />
            <mxPoint x="387.00499999999994" y="207.67000000000002" as="targetPoint" />
            <Array as="points">
              <mxPoint x="380" y="201" />
            </Array>
          </mxGeometry>
        </mxCell>
        <mxCell id="rYo3D_EzcANgmWhAMxCA-5" value="" style="group;fontFamily=Manrope;fontSource=https%3A%2F%2Ffonts.googleapis.com%2Fcss%3Ffamily%3DManrope;" parent="qmLtoWKtNvX0ufszp72u-1" vertex="1" connectable="0">
          <mxGeometry x="222" y="272" width="30" height="30" as="geometry" />
        </mxCell>
        <mxCell id="rYo3D_EzcANgmWhAMxCA-6" value="" style="whiteSpace=wrap;html=1;aspect=fixed;fillColor=#001135;strokeColor=none;connectable=1;allowArrows=1;fontFamily=Manrope;fontSource=https%3A%2F%2Ffonts.googleapis.com%2Fcss%3Ffamily%3DManrope;" parent="rYo3D_EzcANgmWhAMxCA-5" vertex="1">
          <mxGeometry width="30" height="30" as="geometry" />
        </mxCell>
        <mxCell id="rYo3D_EzcANgmWhAMxCA-7" value="" style="endArrow=open;html=1;edgeStyle=orthogonalEdgeStyle;rounded=0;endFill=0;startSize=6;endSize=2;strokeColor=#FFFFFF;fontFamily=Manrope;fontSource=https%3A%2F%2Ffonts.googleapis.com%2Fcss%3Ffamily%3DManrope;" parent="rYo3D_EzcANgmWhAMxCA-5" edge="1">
          <mxGeometry width="50" height="50" relative="1" as="geometry">
            <mxPoint x="3" y="12" as="sourcePoint" />
            <mxPoint x="11" y="3" as="targetPoint" />
            <Array as="points">
              <mxPoint x="11" y="12" />
            </Array>
          </mxGeometry>
        </mxCell>
        <mxCell id="rYo3D_EzcANgmWhAMxCA-8" value="" style="endArrow=open;html=1;edgeStyle=orthogonalEdgeStyle;rounded=0;endFill=0;startSize=6;endSize=2;strokeColor=#FFFFFF;fontFamily=Manrope;fontSource=https%3A%2F%2Ffonts.googleapis.com%2Fcss%3Ffamily%3DManrope;" parent="rYo3D_EzcANgmWhAMxCA-5" edge="1">
          <mxGeometry width="50" height="50" relative="1" as="geometry">
            <mxPoint x="11" y="27" as="sourcePoint" />
            <mxPoint x="3" y="19" as="targetPoint" />
            <Array as="points">
              <mxPoint x="11" y="19" />
            </Array>
          </mxGeometry>
        </mxCell>
        <mxCell id="rYo3D_EzcANgmWhAMxCA-9" value="" style="endArrow=open;html=1;edgeStyle=orthogonalEdgeStyle;rounded=0;endFill=0;startSize=6;endSize=2;strokeColor=#FFFFFF;fontFamily=Manrope;fontSource=https%3A%2F%2Ffonts.googleapis.com%2Fcss%3Ffamily%3DManrope;" parent="rYo3D_EzcANgmWhAMxCA-5" edge="1">
          <mxGeometry width="50" height="50" relative="1" as="geometry">
            <mxPoint x="18" y="3" as="sourcePoint" />
            <mxPoint x="27" y="12" as="targetPoint" />
            <Array as="points">
              <mxPoint x="18" y="12" />
            </Array>
          </mxGeometry>
        </mxCell>
        <mxCell id="rYo3D_EzcANgmWhAMxCA-10" value="" style="endArrow=open;html=1;edgeStyle=orthogonalEdgeStyle;rounded=0;endFill=0;startSize=6;endSize=2;strokeColor=#FFFFFF;fontFamily=Manrope;fontSource=https%3A%2F%2Ffonts.googleapis.com%2Fcss%3Ffamily%3DManrope;" parent="rYo3D_EzcANgmWhAMxCA-5" edge="1">
          <mxGeometry width="50" height="50" relative="1" as="geometry">
            <mxPoint x="27" y="19" as="sourcePoint" />
            <mxPoint x="18" y="27" as="targetPoint" />
            <Array as="points">
              <mxPoint x="18" y="19" />
            </Array>
          </mxGeometry>
        </mxCell>
        <mxCell id="M0d44r2Romzp_ubsgTKp-2" style="edgeStyle=orthogonalEdgeStyle;rounded=0;orthogonalLoop=1;jettySize=auto;html=1;fontFamily=Manrope;fontSize=12;fontColor=#FFFFFF;endArrow=oval;endFill=1;startArrow=oval;startFill=1;strokeColor=#4BDD33;startSize=5;endSize=3;entryX=0;entryY=0.5;entryDx=0;entryDy=0;dashed=1;opacity=20;" parent="qmLtoWKtNvX0ufszp72u-1" edge="1">
          <mxGeometry relative="1" as="geometry">
            <mxPoint x="202" y="240" as="sourcePoint" />
            <mxPoint x="222" y="287" as="targetPoint" />
            <Array as="points">
              <mxPoint x="202" y="240" />
              <mxPoint x="202" y="287" />
            </Array>
          </mxGeometry>
        </mxCell>
        <mxCell id="-aj84QVjm4sUKLIxQllU-1" value="" style="shape=image;verticalLabelPosition=bottom;labelBackgroundColor=default;verticalAlign=top;aspect=fixed;imageAspect=0;image=data:image/svg+xml,PHN2ZyB4bWxucz0iaHR0cDovL3d3dy53My5vcmcvMjAwMC9zdmciIHZpZXdCb3g9IjAgMCAyNCAyNCIgcm9sZT0iaW1nIj48dGl0bGUvPjxwYXRoIGQ9Ik0xMi42IDcuMlYyNGMtNS4yIDAtMTAuOC00LTEwLjgtOS4zVjBoMy42YzMuOCAwIDcuMiAzLjQgNy4yIDcuMnptMi40IDZWMjRoNy4yVjEzLjJ6Ii8+PC9zdmc+;" parent="qmLtoWKtNvX0ufszp72u-1" vertex="1">
          <mxGeometry x="292.00434782608687" y="174.3142028985507" width="24" height="24" as="geometry" />
        </mxCell>
        <mxCell id="-aj84QVjm4sUKLIxQllU-2" value="" style="shape=image;verticalLabelPosition=bottom;labelBackgroundColor=default;verticalAlign=top;aspect=fixed;imageAspect=0;image=data:image/svg+xml,PHN2ZyB4bWxucz0iaHR0cDovL3d3dy53My5vcmcvMjAwMC9zdmciIHZpZXdCb3g9IjAgMCAyNCAyNCIgcm9sZT0iaW1nIj48dGl0bGUvPjxwYXRoIGQ9Ik0yMS4wNCAyMy45OUg0LjE4bDkuODgtMTEuODZjNC4yMyAyLjc2IDYuOTggNy4wNCA2Ljk4IDExLjg2em0wLTIzLjk1SDMuMDh2MjEuNTV6Ii8+PC9zdmc+;" parent="qmLtoWKtNvX0ufszp72u-1" vertex="1">
          <mxGeometry x="367.9957971014493" y="174.31057971014488" width="24" height="24" as="geometry" />
        </mxCell>
        <mxCell id="-aj84QVjm4sUKLIxQllU-3" value="" style="shape=image;verticalLabelPosition=bottom;labelBackgroundColor=default;verticalAlign=top;aspect=fixed;imageAspect=0;image=data:image/svg+xml,PHN2ZyB4bWxucz0iaHR0cDovL3d3dy53My5vcmcvMjAwMC9zdmciIHZpZXdCb3g9IjAgMCAyNCAyNCIgcm9sZT0iaW1nIj48dGl0bGUvPjxwYXRoIGQ9Ik0xMS4yNyAxNS41OEgxLjYxQTExLjgxIDExLjgxIDAgMCAxIDEuMDcgMTJjMC0xLjI1LjE4LTIuNDUuNTQtMy41OGgxNS44NkEzLjU3IDMuNTcgMCAwIDEgMjEuMDUgMTJhMy41NiAzLjU2IDAgMCAxLTMuNTUgMy41OHptLS40NSAxLjJIMi4wNWExMS44IDExLjggMCAwIDAgNC4zOSA1LjE4QTExLjggMTEuOCAwIDAgMCAxMyAyMy45M2M0LjE1IDAgNy43OC0yLjEyIDkuOTMtNS4zYTYuMDggNi4wOCAwIDAgMC00LjM1LTEuODZ6bTcuNzYtOS41NWMxLjcgMCAzLjI1LS43MiA0LjM1LTEuODVBMTEuOTYgMTEuOTYgMCAwIDAgMi4wNSA3LjIzaDguNzR6Ii8+PC9zdmc+;" parent="qmLtoWKtNvX0ufszp72u-1" vertex="1">
          <mxGeometry x="216.0015942028985" y="174.31913043478255" width="24" height="24" as="geometry" />
        </mxCell>
        <mxCell id="-aj84QVjm4sUKLIxQllU-15" style="rounded=0;orthogonalLoop=1;jettySize=auto;html=1;startSize=6;endArrow=none;endFill=0;endSize=2;fontFamily=Manrope;fontSize=8;strokeColor=#98A2AE;fontSource=https%3A%2F%2Ffonts.googleapis.com%2Fcss%3Ffamily%3DManrope;entryX=0;entryY=0.5;entryDx=0;entryDy=0;exitX=0.5;exitY=0;exitDx=0;exitDy=0;" parent="qmLtoWKtNvX0ufszp72u-1" source="-aj84QVjm4sUKLIxQllU-16" target="tEZGEbmFmbo_nm0fESEB-78" edge="1">
          <mxGeometry relative="1" as="geometry">
            <mxPoint x="359" y="440" as="sourcePoint" />
            <mxPoint x="313.9999999999993" y="419.9999999999999" as="targetPoint" />
            <Array as="points">
              <mxPoint x="355" y="418" />
            </Array>
          </mxGeometry>
        </mxCell>
        <mxCell id="-aj84QVjm4sUKLIxQllU-16" value="eth2" style="rounded=1;whiteSpace=wrap;html=1;fontFamily=Manrope;fontSource=https%3A%2F%2Ffonts.googleapis.com%2Fcss%3Ffamily%3DManrope;fontSize=6;align=center;fillColor=#BEC8D2;fontColor=#FFFFFF;strokeColor=#98A2AE;" parent="qmLtoWKtNvX0ufszp72u-1" vertex="1">
          <mxGeometry x="348" y="442.56" width="14" height="6" as="geometry" />
        </mxCell>
      </root>
    </mxGraphModel>
  </diagram>
  <diagram name="[2] data flow" id="9cltNjBBLz0sYYKDnAAX">
    <mxGraphModel dx="446" dy="231" grid="0" gridSize="2" guides="1" tooltips="1" connect="1" arrows="1" fold="1" page="1" pageScale="1" pageWidth="827" pageHeight="1169" background="#4D5766" math="0" shadow="0">
      <root>
        <mxCell id="vGxgYzopPI0-jjYZtrRY-0" />
        <mxCell id="vGxgYzopPI0-jjYZtrRY-1" parent="vGxgYzopPI0-jjYZtrRY-0" />
        <mxCell id="AlfmLz3gew_HR5XVYKHi-0" value="" style="shape=image;verticalLabelPosition=bottom;labelBackgroundColor=default;verticalAlign=top;aspect=fixed;imageAspect=0;image=data:image/png,iVBORw0KGgoAAAANSUhEUgAAAgAAAAIACAYAAAD0eNT6AAAMa2lDQ1BJQ0MgUHJvZmlsZQAASImVVwdYU8kWnluSkJDQAghICb0jUgNICaEFkN5thCSQUGJMCCr2sqjg2kUUK7oqomBZaXbsyqLY+2JBRVkXdbGh8iYkoOu+8r3zfXPvnzNn/lPuTO49AGh+4Eok+agWAAXiQmlCeDAjLT2DQXoGEIABdeABfLk8mYQVFxcNoAze/y7vbkBrKFedFVz/nP+vosMXyHgAIGMhzuLLeAUQHwcAX8+TSAsBICr0lpMLJQo8G2JdKQwQ4lUKnKPEOxU4S4kPD9gkJbAhvgyAGpXLleYAoHEP6hlFvBzIo/EZYlcxXyQGQNMJ4gCekMuHWBG7U0HBRAWugNgO2ksghvEAZtZ3nDl/488a4udyc4awMq8BUQsRyST53Kn/Z2n+txTkywd92MBBFUojEhT5wxreypsYpcBUiLvFWTGxilpD/EHEV9YdAJQilEckK+1RY56MDesH9CF25XNDoiA2hjhMnB8TrdJnZYvCOBDD3YJOERVykiA2gHihQBaaqLLZLJ2YoPKF1mdL2SyV/hxXOuBX4euBPC+ZpeJ/IxRwVPyYRrEwKRViCsRWRaKUGIg1IHaR5SVGqWxGFQvZMYM2UnmCIn4riBME4vBgJT9WlC0NS1DZlxbIBvPFNgtFnBgV3l8oTIpQ1gc7xeMOxA9zwS4LxKzkQR6BLC16MBe+ICRUmTv2XCBOTlTxfJAUBico1+IUSX6cyh63EOSHK/QWEHvIihJVa/GUQrg5lfx4tqQwLkkZJ16cy42MU8aDLwPRgA1CAAPI4cgCE0EuELV1N3TDX8qZMMAFUpADBMBZpRlckTowI4bXRFAM/oBIAGRD64IHZgWgCOq/DGmVV2eQPTBbNLAiDzyFuABEgXz4Wz6wSjzkLQU8gRrRP7xz4eDBePPhUMz/e/2g9puGBTXRKo180CNDc9CSGEoMIUYQw4j2uBEegPvh0fAaBIcbzsR9BvP4Zk94SmgnPCJcJ3QQbk8QzZX+EOVo0AH5w1S1yPq+FrgN5PTEg3F/yA6ZcX3cCDjjHtAPCw+Enj2hlq2KW1EVxg/cf8vgu6ehsiO7klHyMHIQ2e7HlRoOGp5DLIpaf18fZaxZQ/VmD8386J/9XfX58B71oyW2EDuAncVOYOexw1gDYGDHsEasFTuiwEO768nA7hr0ljAQTx7kEf3D3+CTVVRS5lrj2uX6WTlXKJhSqDh47ImSqVJRjrCQwYJvBwGDI+a5ODHcXN3cAVC8a5R/X2/jB94hiH7rN9283wHwP9bf33/omy7yGAD7vOHxb/qms2MCoK0OwLkmnlxapNThigsB/ktowpNmCEyBJbCD+bgBL+AHgkAoiASxIAmkg/EweiHc51IwGUwHc0AJKAPLwGqwDmwCW8FOsAfsBw3gMDgBzoCL4DK4Du7C3dMJXoIe8A70IQhCQmgIHTFEzBBrxBFxQ5hIABKKRCMJSDqSieQgYkSOTEfmIWXICmQdsgWpRvYhTcgJ5DzSjtxGHiJdyBvkE4qhVFQXNUFt0BEoE2WhUWgSOg7NQSehxeh8dAlagVahu9F69AR6Eb2OdqAv0V4MYOqYPmaOOWNMjI3FYhlYNibFZmKlWDlWhdVizfA5X8U6sG7sI07E6TgDd4Y7OAJPxnn4JHwmvhhfh+/E6/FT+FX8Id6DfyXQCMYER4IvgUNII+QQJhNKCOWE7YSDhNPwLHUS3hGJRH2iLdEbnsV0Yi5xGnExcQOxjnic2E58TOwlkUiGJEeSPymWxCUVkkpIa0m7ScdIV0idpA9q6mpmam5qYWoZamK1uWrlarvUjqpdUXum1kfWIluTfcmxZD55KnkpeRu5mXyJ3Enuo2hTbCn+lCRKLmUOpYJSSzlNuUd5q66ubqHuox6vLlKfrV6hvlf9nPpD9Y9UHaoDlU0dS5VTl1B3UI9Tb1Pf0mg0G1oQLYNWSFtCq6adpD2gfdCga7hocDT4GrM0KjXqNa5ovNIka1prsjTHaxZrlmse0Lyk2a1F1rLRYmtxtWZqVWo1ad3U6tWma4/UjtUu0F6svUv7vPZzHZKOjU6oDl9nvs5WnZM6j+kY3ZLOpvPo8+jb6KfpnbpEXVtdjm6ubpnuHt023R49HT0PvRS9KXqVekf0OvQxfRt9jn6+/lL9/fo39D8NMxnGGiYYtmhY7bArw94bDDcIMhAYlBrUGVw3+GTIMAw1zDNcbthgeN8IN3IwijeabLTR6LRR93Dd4X7DecNLh+8ffscYNXYwTjCeZrzVuNW418TUJNxEYrLW5KRJt6m+aZBprukq06OmXWZ0swAzkdkqs2NmLxh6DBYjn1HBOMXoMTc2jzCXm28xbzPvs7C1SLaYa1Fncd+SYsm0zLZcZdli2WNlZjXaarpVjdUda7I101povcb6rPV7G1ubVJsFNg02z20NbDm2xbY1tvfsaHaBdpPsquyu2RPtmfZ59hvsLzugDp4OQodKh0uOqKOXo8hxg2O7E8HJx0nsVOV005nqzHIucq5xfuii7xLtMtelweXVCKsRGSOWjzg74qurp2u+6zbXuyN1RkaOnDuyeeQbNwc3nlul2zV3mnuY+yz3RvfXHo4eAo+NHrc86Z6jPRd4tnh+8fL2knrVenV5W3lneq/3vsnUZcYxFzPP+RB8gn1m+Rz2+ejr5Vvou9/3Tz9nvzy/XX7PR9mOEozaNuqxv4U/13+Lf0cAIyAzYHNAR6B5IDewKvBRkGUQP2h70DOWPSuXtZv1Ktg1WBp8MPg925c9g308BAsJDykNaQvVCU0OXRf6IMwiLCesJqwn3DN8WvjxCEJEVMTyiJscEw6PU83pifSOnBF5KooalRi1LupRtEO0NLp5NDo6cvTK0fdirGPEMQ2xIJYTuzL2fpxt3KS4Q/HE+Lj4yvinCSMTpiecTaQnTkjclfguKThpadLdZLtkeXJLimbK2JTqlPepIakrUjvSRqTNSLuYbpQuSm/MIGWkZGzP6B0TOmb1mM6xnmNLxt4YZztuyrjz443G548/MkFzAnfCgUxCZmrmrszP3FhuFbc3i5O1PquHx+at4b3kB/FX8bsE/oIVgmfZ/tkrsp/n+OeszOkSBgrLhd0itmid6HVuRO6m3Pd5sXk78vrzU/PrCtQKMguaxDriPPGpiaYTp0xslzhKSiQdk3wnrZ7UI42SbpchsnGyxkJd+FHfKreT/yR/WBRQVFn0YXLK5ANTtKeIp7ROdZi6aOqz4rDiX6bh03jTWqabT58z/eEM1owtM5GZWTNbZlnOmj+rc3b47J1zKHPy5vw213Xuirl/zUud1zzfZP7s+Y9/Cv+ppkSjRFpyc4Hfgk0L8YWihW2L3BetXfS1lF96ocy1rLzs82Le4gs/j/y54uf+JdlL2pZ6Ld24jLhMvOzG8sDlO1doryhe8Xjl6JX1qxirSlf9tXrC6vPlHuWb1lDWyNd0VERXNK61Wrts7ed1wnXXK4Mr69Ybr1+0/v0G/oYrG4M21m4y2VS26dNm0eZbW8K31FfZVJVvJW4t2vp0W8q2s78wf6nebrS9bPuXHeIdHTsTdp6q9q6u3mW8a2kNWiOv6do9dvflPSF7Gmuda7fU6deV7QV75Xtf7Mvcd2N/1P6WA8wDtb9a/7r+IP1gaT1SP7W+p0HY0NGY3tjeFNnU0uzXfPCQy6Edh80PVx7RO7L0KOXo/KP9x4qP9R6XHO8+kXPiccuElrsn005eOxV/qu101OlzZ8LOnDzLOnvsnP+5w+d9zzddYF5ouOh1sb7Vs/Xgb56/HWzzaqu/5H2p8bLP5eb2Ue1HrwReOXE15OqZa5xrF6/HXG+/kXzj1s2xNztu8W89v51/+/Wdojt9d2ffI9wrva91v/yB8YOq3+1/r+vw6jjyMORh66PER3cf8x6/fCJ78rlz/lPa0/JnZs+qn7s9P9wV1nX5xZgXnS8lL/u6S/7Q/mP9K7tXv/4Z9GdrT1pP52vp6/43i98avt3xl8dfLb1xvQ/eFbzre1/6wfDDzo/Mj2c/pX561jf5M+lzxRf7L81fo77e6y/o75dwpdyBTwEMDjQ7G4A3OwCgpQNAh30bZYyyFxwQRNm/DiDwn7CyXxwQLwBq4fd7fDf8urkJwN5tsP2C/JqwV42jAZDkA1B396GhElm2u5uSiwr7FMKD/v63sGcjrQTgy7L+/r6q/v4vW2GwsHc8Llb2oAohwp5hc8yXrIIs8G9E2Z9+l+OPd6CIwAP8eP8X4ySRDWNdyOAAAAA4ZVhJZk1NACoAAAAIAAGHaQAEAAAAAQAAABoAAAAAAAKgAgAEAAAAAQAAAgCgAwAEAAAAAQAAAgAAAAAAKDCXvwAAQABJREFUeAHsnQd4FUXXxw+BNEIghAAJvTfpTXoH6b1Lk6KCDUWwvy/6vnaU+iHIK72D0psU6b2I9F5NgAACSSCEEL6ZC4QAucm998zu3b37n+fZJ3t35/znzG9usiezU4iQQAAEQAAEQAAEQAAEQAAEQAAEQAAEQAAEQAAEQAAEQAAEQAAEQAAEQAAEQAAEQAAEQAAEQAAEQAAEQAAEQAAEQAAEQAAEQAAEQAAEQAAEQAAEQAAEQAAEQAAEQAAEQAAEQAAEQAAEQAAEQAAEQAAEQAAEQAAEQAAEQAAEQAAEQAAEQAAEQAAEQAAEQAAEQAAEQAAEQAAEQAAEQAAEQAAEQAAEQAAEQAAEQAAEQAAEQAAEQAAEQAAEQAAEQAAEniWQ5tkL+GwKAl7Cy7ziKCqOYo9+5hc/M4ojQBwZxJH50bmP+IkEAiDgHgIxotiz4lgtjgniOCwOJBAwBAEEAIZohlSdkA/0muKoK4464iglDj9xIIEACJiHwH3h6k/iGCSOOPO4DU89lQACAOO2bHHhWmdx1BdHZXF4iwMJBEDA/ATWiyq0EEe0+auCGpiZAAIAY7We7LbvII4e4qhuLNfgDQiAgEICW4VWY3FEKdSEFAg4RQABgFO4NMtcSyi/J46m4sB/+pphhjAIGIrAZuFNE3GgJ8BQzWIdZxAAuLeta4jih4pDdvMjgQAIWI8AegKs1+aGqTECAPc0RWtR7KfiqOCe4lEqCICAgQigJ8BAjWElVxAA6NvahURxY8Txkr7FojQQAAGDE0BPgMEbyBPdk/PJkbQn4C+KGCqOg+LAw19AQAIBEHiKQDXxaaU4Ap+6ig8goCEB9ABoCPeRdCPxc5w48mtfFEoAARAwOQG8DjB5A5rJffQAaNda6YT0UHGsEAce/gICEgiAQKoE5MDgVeJAT0CqqJCBSwA9AFyCydvnEpdnikOu3ocEAiAAAs4SwJgAZ4khv9ME0APgNLJUDeS83n3iwMM/VVTIAAIgYIeAHBOwXBxyGXAkENCEAAIAtVh7CrnF4ghRKws1EAABCxLA6wALNrqeVUYAoI72B0Jqkjjku38kEAABEFBBALMDVFCERrIEMAYgWSxOXZQMvxPH+05ZITMIgAAIOE4AYwIcZ4WcDhJAAOAgKDvZZA/KZHF0t3Nf08sBGbJSjlxlKSRrYcqavSiFZCtCGTJkIx/fDOTvHyR+BlDatD6a+gBxELAygY8H6vr7hSmCVv6yaVB3dFfzoA4X5ro9/L29/algkXriqEsFC9el7GElKU0axHC8JoQ1CJiGgBwTIKcVYwMh0zSZsR1FAOB6+3wqTN923dxxy5y5y1O5ii9T2YpdKX1AFscNkRMEQMDTCDweGIithD2tZd1QHwQArkHvK8y+cM3UMat06XypfOUeVKveIAoOKeCYEXKBAAhYgcDjKYLoCbBCa2tYRwQAzsOVv3RyaV9N+t5lN3/l6q9SzbrvUcZMYc57BwsQAAErEMDrACu0ssZ1RADgHOBcIvtUcaR1zsyx3MVeaEYt2g6nzFnyOWaAXCAAAlYmgNcBVm59BXVHAOA4RMlqljiUL/ITlDk3NW87gkqUauG4N8gJAiAAAkR4HYBvgcsEEAA4ju4/IquMuJWm4iWbU/uu/yP/9MFKdSEGAiBgGQLoCbBMU6utKAIAx3g2EtmGOJbVsVxyfn6TVt9Q1ZpvYCqfY8iQCwRAwD4B9ATYZ4M7dgggALADJsnl9OJcDvqTi/4oSf7pM1OPfgsob375O4sEAiAAAkoIyJ4ArBOgBKU1RJQ91DwY18eibvlV1S8wYxj1fWM1Hv6qgEIHBEAgKYHHrwMCk17EOQgkRwABQHJUnlwrKk6VrfGfJWsh6j9wE4XlLP2kBJyBAAhYlkC5ctW1qPvj1wHYSlgLuh6kiQAg5cYcIW77ppzFsbtyTn/v/isoKDiPYwbIBQIg4PEE/m/ccqpYqbYW9URPgBZUPUwTAYD9Bm0tbsnlNtlJjvB/RTz8MwfnZWtBAARAwHMI+PsH0MjRiwg9AZ7TpmaqCQIA+631qf1bjt+Ro/179PuNsoeWcNwIOUEABCxDIH36DDTmp2VaBQGPBwbidYBlvlGOVxQBQPKs5H/+FZK/5dxVOdUPo/2dY4bcIGA1AjIIwOsAq7W6++uLACD5NpAj/9lJLu0r5/kjgQAIgEBqBOTrgFFjFms1JkAODFwpDswOSK0hLHQfAcDzjV1LXKr5/GXnrsjlfTu8PBGL/DiHDblBwNIEMCbA0s2ve+URADyP/L3nLzl/Ra7tLxf8QQIBEAABZwhgTIAztJCXQwABwNP0soiPcrtfVipS/CVs7MMiCGMQsDYBjAmwdvvrVXsEAE+T7io++jx9yblP3t7+1Kr9aOeMkBsEQAAEniGA1wHPAMFH5QQQADyNtMfTH53/9GL11yhzlnzOG8ICBEAABJ4hgJ6AZ4Dgo1ICCACe4CwuTis++ej8Wbp0vlSj7kDnDWEBAiAAAnYIYHaAHTC4zCaAAOAJws5PTl07K1+5B2XMlMM1Y1iBAAiAgB0CeB1gBwwuswggAHiCr/6TU+fP0qRJQ7XqDXLeEBYgAAIg4AABzA5wABKyOEUAAcBDXHKZzMpOkXsmc76CNSk4pMAzV/ERBEAABNQRwJgAdSyhRIQA4OG3QC784835QpSr+DLHHLYgAAIg4BABjAlwCBMyOUAAAcBDSHUdYGU3SzpvPypZpo3d+7gBAiAAAioJIAhQSdO6WggAHrY9KwAoVKQ++fkHWfdbhJqDAAjoTgADA3VH7nEFIgB4+BqkJKdlCxZhxQ+comELAiBgYQIYE2DhxldQdQQARPkERz8Oy4KFEQBw+MEWBEDAdQJ4HeA6O6tbIgAgKsL5EgRkyErZw1gdCJziYQsCIAAChNcB+BK4QgABAFExV8A9tsmRqyy2/H0MAz9BAATcRgCvA9yG3rQFIwAgKsppvZBsrA4ETtGwBQEQAIGnCOB1wFM48CEVAggAHo4BSAWT/dtZEQDYh4M7IAACuhPA6wDdkZu2QAQARBk5rReStTDHHLYgAAIgoJwAlg1WjtQjBREAMAOAwIxhHvnFQKVAAATMTQBjAszdfnp4jwCAKJAD2teXZc4pGrYgAAIgkCIBjAlIEY/lbyIA4AYAfnIfISQQAAEQMCYBBAHGbBcjeIUAgIj1BPfxZZkb4TsAH0AABDycAIIAD29gF6uHAIDIx0V2NrO0aVnmnKJhCwIg4GYC3N//e/fidKsBggDdUJumIAQApmkqOAoCIGA0AtwewNu3o3WtEoIAXXEbvjAEAIZvIjgIAiBgVAK+zDFAt2OidK8aggDdkRu2QAQAhm0aOAYCIGB0AtxZQDE69wA85okg4DEJa/9EAGDt9kftQQAEGAR8/VjriNHVyAhG6TxTGQSMHL2IypWrzhNK3rqauLxcHBglnTwfQ1xFAGCIZoATIAACZiTgxwwAzp495tZqY8VAt+J3e+EIANzeBHAABEDArAQyB+dluX7u3AmWvQpjrBiogqI5NRAAmLPd4DUIgIABCHB3Az3n5h6AxwgxJuAxCWv9RABgrfZGbUEABBQSyJqNtZs4HTm8jxISEhR65LoUxgS4zs6slggAzNpy8BsEQMDtBLgBwI0bV+nkiYNur8djB/A64DEJa/xEAGCNdkYtQQAENCAQFJyHvL39Wco7d65j2as2xusA1USNq4cAwLhtA89AAAQMTiBNGi/KHvYCy8tdO/9g2WthjNcBWlA1niYCAOO1CTwCARAwEYH8hWqzvN2+fS1FRd1gaWhhjNcBWlA1liYCAGO1B7wBARAwGYGChXkBQNzdWFqz+ldD1hqvAwzZLMqcQgCgDCWEQAAErEggX8GaxN0VcOmS6YZFhyDAsE3DdgwBABshBEAABKxMwMcngHLnrcRCsG/vZrpw/iRLQ0tjjAnQkq77tBEAuI89SgYBEPAQAgWL1GPV5MGDBzRl8g8sDa2NsWyw1oT110cAoD9zlAgCIOBhBMpU6Myu0aKFk+lSxHm2jpYCGBioJV39tREA6M8cJYIACHgYgZCshSlXnoqsWsXH36Pp00ayNPQwxpgAPSjrUwYCAH04oxQQAAEPJ1CuUjd2DefNG08XL5xi62gtgDEBWhPWRx8BgD6cUQoIgICHEyhTvhN7NoCcEvj1l2+ZghReB5iimVJ0EgFAinhwEwRAAAQcI5A+IAsVLdHYscwp5Nq69Xdau2ZBCjmMcws9AcZpC1c8QQDgCjXYgAAIgEAyBGrUHZjMVecvff/tu3Tz5nXnDd1ggdkBboCuqEgEAIpAQgYEQAAE8hWoQfLgpsuXL9Jnn/QiOT3QDAmvA8zQSs/7iADgeSa4AgIgAAIuE6jb6EOXbZMabtq4XMwKGJH0kqHPMTvA0M2TrHMIAJLFgosgAAIg4BqBwsUasacEPi551IiPae+eTY8/Gv4nxgQYvomechABwFM48AEEQAAE+ATqNvqYLyIU5NoAA99uQyeOH1Cip4cIxgToQVlNGQgA1HCECgiAAAgkEihesjkVKc6fESAF5VbBb/RvRuHhZxP1jX6CMQFGb6GH/iEAMEc7wUsQAAGTEWjR9kdKl85XideRkeH0+quNTRUE4HWAkqbXVAQBgKZ4IQ4CIGBVAlmyFqJa9d9XVn25W2CPbjXo2NH9yjS1FkJPgNaEefoIAHj8YA0CIAACdgnUbjCEgrPkt3vf2RvXrl6ifn3qY2DgE3DVxOlycWR4cglnjhJAAOAoKeQDARAAAScJeHv7U5tOP1GaNOr+1MoxAa/1a0TTpg431ToBY35aRuXKVXeSoEPZ5cILK8SBIMAhXE8yqftWPtHEGQiAAAiAwCMCBYvUozoNPlDKQ84O+HHYYHpXzBAw04qB/zduOVWsVFspi0diMghYJY5ALcQ9VRMBgKe2LOoFAiBgGAL1m/yL8heqpdyfDRuWUqf25cXeAb8p19ZCEAMDtaDquiYCANfZwRIEQAAEHCLg5ZWWuvScQYEZQx3K70wmuWzw++91pNf6NqSzZ446Y+qWvBgY6BbsyRaKACBZLLgIAiAAAmoJZAjMTu27/kJeXunUCj9S27nzD+rUsSJ9+81AunTpgiZlqBJFT4AqkjwdBAA8frAGARAAAYcJFC7W8NGgwDQO2ziTMe5uLM2eOYZaNitKXwx9jc6dO+6Mua55sWKgrriTLUybb2GyRRn2Imu7ra9GxBm2YnAMBEDAmAQ2rPmOVi39VBfnipcoT81bdKOmzbpSUFCILmU6U8idOzH09pstafeuDc6YOZp3q8gol2SMctTASvkQABAhALDSNx51BQGDEFi24H3asmGUbt74+PpRpUp1qHLlulTpxXpUtGgZ8TrCGJ3At29H05tiueN9+7ZowWOzEG0ijmgtxM2siQAAAYCZv7+m8D0+/i7FREfS3bvRFCeO2NibdDc2mhIS4iltWh/y8U1vq4e/f2aS88YzZc5Fvr6YzWSKxmU4+eDBA/p1Vl/au3MaQ8V100yZgqlosbKUN28Ryp+/KOUVR3BwNsqQISMFZshE6QMCxffRx/UCnLREEOAkMAXZEQAgAFDwNYKEJHDzxkW6cG4XXbl0iK5fO0P/XDtr+3nrZrhYsCXBKUgyAJCBQMZMOW0ryYXlLENhOUtTaFhJETBgvROnYBo4swwCVi75mDat+8HAXnqMa3gd8ExTIgBAAPDMVwIfHSGQkHBfPOx30OmTG+iieOhfPL+Hom5FOGLKyiNXlAsOKUB58lWhQkXqU6Gi9cTUsjCWJozdT2DrhtG0bOH7plnZz/3EXPYAQUASdAgAEAAk+TrgNCUCd2Nv0fGjq+nooWV0/PBKiom5mlJ23e5lD3tBBAINqESplpSvQHWly87qVgkUJF4FTKXfZr9uezUEHJoS2CDUG4nD8iO4EQAgAND0N83s4vI//eNHVtLu7RPpmHjo379/z9BVyhSUi8pU6ExlK3Sh0BylDO0rnHuewMlja2jutF4UHX3l+Zu4opLAGCH2lkpBM2ohAEAAYMbvreY+X7t6ivZsn0x7d02lWze179rXokKyZ6BqzQFUrlI32+BCLcqApnoC8vs2d1oP2+sl9epQfETgvvhZRhyHrEwEAQACACt//5+r+6XwA7Tpjx9p/57ZoitW/o0wf/Lzy0TlK3enmvUGUaagnOavkAVqIL97f/z+le3wlO+hAZtthPDpXQP6pZtLCAAQAOj2ZTNyQefPbKM/Vn8juvnlrqKemdKl87UFAvVe+kzMLsDAQTO08qnj62jB3AF0/eppM7hrNh/lf/8lzea0Sn8RACAAUPl9Mp2WnLq3YE5/8Z5f7iRqjeTtk56q136batd/n3z9Mlqj0iauZfy9WNqw9nvbIc+RlBGQCwMFKlMzoRACAAQAJvzaqnH53JmtNOXn1hR754YaQZOpBASEUN2XPqYqNV7XbIMakyExtLuyF2DxrwNtg1IN7ai5nLP0M9DSlX/0PcVSwOb6hVXi7bXIkzR2eA26c/u6Ej0zi+TIVY7adZlgW2jIzPWwiu9yGuq6VV+JtSd2WaXKWtbT0s9AS1f+0bcKAYCWv14G1Z7ycyuPft/vLHa5RW3Nuu9S/Sb/IjlWAMn4BM6e3kIb1w6zrUthfG8N66Gln4GWrvyjryQCAMP+bmrjWPjFP2nMsMraiJtcNXtoCerQbTLlyFXW5DWxjvsyENiyfoQIBFaIdSosv7aNsw1v6WdgOmdpIT8ImJ2AXNgHKXkCly8dpnEjalLztsOpcrW+yWfCVUMRkKs/ykOOZflr33zat2s6nT+7DcsKG6qVjOmMpaOfR02CHgBjfjc182r21G701965mul7inClKr2pRbsRlM7bz1OqZJl6XL1yXAQD80hOIzx/dgd6Buy3vKWfgZau/KPvBAIA+78cHnln+i/t6PCBJR5ZN9WVkgMEu/WeR0HBeVRLQ08nAvfibpN8TSA3rjp9Yj1dijhI8hqSjYCln4F4BYDfAssRCMiQTfc6Z86cmcLCwihbtmyUJUsWMe3Oi3x9fW3dtHFxcRQVFWU7wsPDKSIigmJjjTHfO/ziPho3sib1en2ZbSti3cGhQDYBue5D4WINbYcUk1sQ3/znAl2NPE6Roqcg8vJRsW31WYq7G0V370aT3PQqVhx3Y6PQc8Cmb2wBS0c/j5oGPQDG/o4q926X2Nhngdh1TYvk5+dHFStWpGrVqlHJkiWpePHiVKxYMcqQIYNTxV26dIkOHTpER44coT///JO2bt1KR48eddt7XT//IOrRb4HtXbNTFUFmENCQwMcDfbjqln4GWrryj745CAC4v0Ims79z+x/67vNC4r+dKKWeFy1alLZv305BQUFKdR+LXb16lTZs2EBLly6lZcuWUWRk5ONbuvz09vanLr1mUrEXmulSHgoBgdQIIABIjVDK971Svo27IOB5BPzTZ6bqdd5WXrFjx45Ru3bt6PZtbd6vhoSE2PQnTZpEsodABgOvvPIKBQbqs5rpvXt3aPovHeiAGGmOBAIgYH4CCADM34aogQsE6r30CRUoXMcFy5RN1q1bRy1atNAsCHhcuhxDUKtWLZo4caJtzMCECROoRIkSj29r9jMhIZ7mTu+F5Wg1IwxhENCPAAIA/VijJAMRkCvfdes9l3LmrqDcK72CgMeOBwQEUN++fengwYO0fPly2/iDx/e0+CkXm5kxqbNtZLkW+tAEARDQhwACAH04oxQDEpAD2/oMWOERQYDEmyZNGmrSpAlt2bKFFi9eTKVKldKMupxGNnVCG4r4e79mZUAYBEBAWwIIALTlC3WDE7AFAW+spNx51S8NLHsCGjduTNHRctdRfZN8DSFnD0yZMsU27VCL0uXKczIIiI6+ooU8NEEABDQmgABAY8CQNz4BP79M9MrrSylXnorKnd20aRO1atVK8zEByTkuxwn06NGDDhw4QB06dEguC/vazRsXadbkrmK++D22FgRAAAT0JYAAQF/eKM2gBGRPQG/xOsDTegIkbrkA0dy5c22HXJBIdTpzciMtXzhYtSz0QAAENCaAAEBjwJA3DwFP7Ql43AKyF2DPnj22hYoeX1P1c9umsfTn7pmq5KADAiCgAwEEADpARhHmIeDJPQGyFfLnz0+bN2+mXr16KW+URfPfphvXzyvXhSAIgIA2BBAAaMMVqiYm4Ok9AXIPArmY0LfffmubOaCqqeQa8vNn9RXLFSeokoQOCICAhgQQAGgIF9LaEpCbmmiVbD0B/ZdrMjBQ73UC7DEaMmQI/fLLL5Q2bVp7WZy+Lneb27pxjNN2MAABENCfAPYCEJtjcbB/NSKOYw5bBwnIFej27pxGB/f/RmdPbaa4uBjx4PKm0BylbGvTV6nZnwICQhxUczybnOo28aemdPH8bseNHMxZr14925r+cgMhd6YFCxZQp06d6N49NSP55Z4B73ywj4JDCrizWijbAgSwFwCvkREAIADgfYN0sL4UfoBmTekqti09Zrc0H58Aat3x/6hsxa5287h642EQ0EwEAbtclbBr16ZNG5o3b57S/8LtFpbCjVmzZlG3bt0oIUFN932JUi2oW59fUygRt0CATwABAI8hXgHw+MFaYwLnz2yj8aPqpvjwly7IHgG5Rv3vy/6l3KOHrwOWidcBlZRry/++Bw0apFzXWcEuXbrQ6NGjnTWzm//wgSV04ujvdu/jBgiAgPsJIABwfxvAAzsE5H/es6a8THJwmaNp/epvaNXSTx3N7nA+LYOAkSNH0sKFCx32RauMAwYMoM8++0yZ/NIFg7BAkDKaEAIB9QQQAKhnCkVFBNas+ILkSnPOpg1rvjNdENCnTx+6fPmys1VVnn/o0KG23QxVCMtXNju3/KxCChogAAIaEEAAoAFUSPIJRN26RLu2/eKykAwCli/6wGV7e4YP1wlYrnzFwOvXr9PHH39sr1jdrsvlg2fMmEHFixdXUuZ60Q7x92KVaEEEBEBALQEEAGp5Qk0RgY3rfhCj0u+w1Db/MVybngC5d0B/9WMCJk+eTPv27WPVWYVxYGAgzZkzh1TMToi6FUF7dk5R4RY0QAAEFBNAAKAYKOT4BKKjLtPOrRP4QkJBs54AEQT0HqC2J0COwJeL8xghya2E5esAFWn96m/FWIA4FVLQAAEQUEgAAYBCmJBSQ2Dz+pEk95tXlbTuCVC5gdD8+fPp7NmzqqrO0nn//fepcmX+NslyHMefu2exfIExCICAegIIANQzhSKDgHxfvHv7JIZC8qaaDQx89DpAVRBw//59knPyjZDkCoFyyWAfHx+2Ozu2jGdrQAAEQEAtAQQAanlCjUng0F8L6XbMNaZK8uZmCQJmz56dfAXccLVEiRLUv39/dslyJcW/L+xl60AABEBAHQEEAOpYQkkBAc7If0eKN0MQcODAAbp06ZIj1dElj1wbIHPmzOyyMCWQjRACIKCUAAIApTghxiFwNfIEnTm1kSPhkK2WQUCPVxdS5uC8DvlhL5Pc5GjTpk32but+PUuWLPTJJ5+wy92/dw7dvRvF1oEACICAGgIIANRwhIoCAvt2ThdbybL2ZnLYC62CALkhUfuurq9f8LgCe/caq7tcrhKYLVu2x+659FMu13z04DKXbGEEAiCgngACAPVMoegigUMH9F0OV6sgIH+hWlSgcB0XKTw0O3nyJMtetbG/vz+98cYbbNlDfy1ga0AABEBADQEEAGo4QoVJ4FrkSbpy6QhTxXlzrYKAkmXaOO9MEovz588n+WSMU9kLkD59epYzx46sUjrFk+UMjEHA4gQQAFj8C2CU6h8+sMhtrmgRBOTMVZ5Vn6go470rDwkJsW0ZzKmYXN9BBgFIIAAC7ieAAMD9bQAPBIFDBxa7lYPqICB9QBZWfWJiYlj2Whn37NmTLX38yEq2BgRAAAT4BBAA8BlCgUkg7m40XTy3i6nCN5dBwIrFH/KFhAJ3LQP5zt2IqVq1alSkSBGWa2dObmTZwxgEQEANAQQAajhChUHgwvldlJAQz1BQZ7pp3Y9KNhCKCP+L5ZTckMeoqWvXrizXrl09RbduhrM0YAwCIMAngACAzxAKTALnTm9lKqg1V/E64NBfvDENuXLlUlsphWqtW7dmq6EXgI0QAiDAJoAAgI0QAlwC589u50oot+cEARfO7qCTx1azfCpcuDDLXkvj0qVLU2hoKKuIs6c3s+xhDAIgwCeAAIDPEAoMAnLhn/PigclJsks6a9asHIlkbWUQ8PvSz5K9Z+9ibOxNmj+rL3tBI/mQNWpKkyYNNWrUiOVeRPgBlj2MQQAE+AQQAPAZQoFBIOpWBMXeucFQIOrbty+tXbtWkyBg/ZpvafH8d8R+9vdS9TE6+gpN/bk1RV4+lmre1DLUrl07tSxuvd+gQQNW+VciDrODJJYDMAYBECAEAPgSuJXA1SvHWeWnS5fOtmd9qVKlNAsCtm/+iX4eVZfsvbeWAxj37pxKY76vTGdPb2HVRxrLUfa5c+dm62gpUKlSJZa87Cm5dfNvlgaMQQAEeATS8cxhDQI8ApHMAKBkyZIUEBBgc+JxEFC/fn2KjIzkOfaM9YVzO2nCmAYUHFKAChSqTZmCctH9+Di6du2UeN+/ju7cvv6MhesfO3Xq5LqxTpYySJEzFTgLFl2OOGjjqJPLKAYEQOAZAggAngGCj/oSkDsAclLx4sWfMtcyCJAFXb962nY8VajCD/L9OneanUJ37Ep5eXlR2bJlWbsWXr92xq4+boAACGhPAK8AtGeMElIgIPcA4KRnAwCp9TgI0GJgIMdXR2ybNm1KxYoVcySr2/OUKFGC5UPUzUssexiDAAjwCCAA4PGDNZMAd8U8e6vSmTUI+PBDNSsRMpvFIfM8efI4lM9eplu3sBiQPTa4DgJ6EEAAoAdllGGXQEzMVbv3HLmRM2dOu9lkELBhwwb2nHW7BSi+0a5dO6pRo4ZiVe3kuAFA1C30AGjXOlAGgdQJIABInRFyaEjgzu1/WOrZs2dP0V6+Ivj99981mSKYYsFO3pTb7P7www9OWrk3O3emQnTUZfdWAKWDgMUJIACw+BfAndV/8CBBjJ7nBQDZsmVLtQpmeB0watQoyps3b6p1MVKGoKAgljv37t1h2cMYBECARwABAI8frBkE4uJixGIwCQwFIvmfsyPJyEGAHPXfp08fR6phqDyPp1+66lR8/F1XTWEHAiCggAACAAUQIeEiAbEMMCfJqWje3t4OSxhxTECtWrXol19+cbgORsrI3bJYrqOABAIg4D4CCADcxx4liznvnOTj4+O0+eMxAamNHXBa2AWD8uXL06JFi8jPz88Fa/ebIABwfxvAAxDgEEAAwKEHW7cSuHcv9fX5k3NQ9gRs3bqVChUqlNxtXa41bNiQ1q9fT9z36Lo4a6eQ2NhYO3dwGQRAwAwEEACYoZU81Mc0xOsBuH//PsXFudaNXKBAAdq2bRs1btxYV7pypb933nmHli5daltKV9fCFRd2+/ZtlqK3r2PjN1iFwBgEQMAuAQQAdtHghtYE0nn7kXwgchLnIRQSEkLLly+3Tb9zdDAhx9ccOXLYuvxHjBhBrry+4JSthe2dO7xR/L4+GbRwC5ogAAIOEkAA4CAoZFNPwMsrHfn586aSXb3KW0hIBiDvvfceHT16lDp27MgOSJKjJN/xDxkyxFZGixYtkstiyms3bvC2cfb2ebiJkykrD6dBwAMIIADwgEY0cxXSB2RhuR8ermY5WbmozZw5c+jgwYPUq1cv4g5wk5WSPQwfffQRnT17lr799lvTd/k/21AXLlx49pJTn3190QPgFDBkBgHFBBAAKAYKOecIcAOAv/9Wu6e83OBm0qRJdPnyZZo6dSp16NCBnJkxIAcWyjn9y5YtIxmcfPXVV07ZO0fPvbm5AUBgpjD3VgClg4DFCWA7YIt/Adxd/YCAEJYLJ0/ydhO0V7jc67579+62Q+Y5deoUnThxgmR5t27dsh3yeubMmSk4OJgKFy5s28UvNDRUXrZE4gYAQZl5mwlZAjIqCQIaEkAAoCFcSKdOIHMwb/nbw4cPp16IghwFCxYkeSA9IcBlH5Q59xMxnIEACOhOAK8AdEeOApMSCMlWJOlHp88PHTrktA0M+AQeiFUc9+3bxxJCAMDCB2MQYBNAAMBGCAEOgazMAODIkSMUExPDcQG2LhA4ffo0cWcBBIegR8UF9DABAWUEEAAoQwkhVwiEZCvqilmiTXx8PG3fvj3xM070IbB7925WQT5iBkAWBAAshjAGAS4BBABcgrBnEcgUlJPkw4CTNm/ezDGHrQsE1q5d64LVE5OwHKXFmgv48/OECM5AQH8C+A3UnzlKTEJAPgRy5amY5Irzp6tXr3beCBYsAqtWrWLZ58xdnmUPYxAAAT4BBAB8hlBgEsibvxpLQb4C4K4IyHLAYsZy4OX58+dZtQ7LWYZlD2MQAAE+AQQAfIZQYBLIm78qS0FuCiTX9EfSh8CSJUvYBeUrWIOtAQEQAAEeAQQAPH6wVkBABgBeXmlZSnPnzmXZw9hxAjNmzHA8czI55doPGACYDBhcAgGdCSAA0Bk4inuegK9fRgoVg8I4Sb6TjoiI4EjA1gECcvS/3C+BkwoVbcAxhy0IgIAiAggAFIGEDI9AiVK8XfLkdMDp06fznIB1qgSmTJmSap7UMiAASI0Q7oOAPgQQAOjDGaWkQqB4yZap5Ej99k8//URyPACSNgTkHgjTpk1jiadN602FitRlacAYBEBADQEEAGo4QoVJICxnacqcJR9L5cyZM7RgwQKWBoztE5AB1s2bN+1ncOBO4WKNyD99sAM5kQUEQEBrAggAtCYMfYcJlFDQCzBs2DCHy0NGxwnExcXRqFGjHDewk7N0+Y527uAyCICA3gQQAOhNHOXZJVC2Yle79xy9sWPHDlq2bJmj2ZHPQQIzZ86k8PBwB3Mnn83bJz2VKMkb65G8Mq6CAAi4QgABgCvUYKMJAbk6XI5c5djan3zyCSUkJLB1IPCEwNixY598cPGs2AtN2cs+u1g0zEAABJIhgAAgGSi45D4Clav1ZRe+f/9+4s5VZzvhQQL//PMPcTf/kThOHF1DJ4/z9hDwIKyoCgi4nQACALc3ARxISqBshS7k6xuY9JJL54MHDyb54ELiEzh16hQ9ePCALRR75wZNHteCtm/+ia0FARAAAT4BBAB8hlBQSEDuDFimQme24uXLl+nTTz9l60CASK6xoColJMTT4vnv0IrFH4qgAq9pVHGFDgi4QgABgCvUYKMpgVr13xdLA6djlzFu3DjasGEDW8fqAnny5FGOYNO6H2nGxI4UFxejXBuCIAACjhFAAOAYJ+TSkUBwlvxUtmIXdolyIGCPHj3oxo0bbC0rC+TIkYMKFy6sHMHhA4tpwuj6dOsmlnBWDheCIOAAAQQADkBCFv0J1Gn4IXuDIOm13La2f//++lfAw0rs16+fJjX6+8Je+ml4NYr4e78m+hAFARCwTwABgH02uONGAiFZC1Opch2UeDB79mwaPny4Ei2rigwYMECTXgDJ8+aNv2n8qLp09BDWb7Dq9wv1dg8BBADu4Y5SHSDQqOkX5O3t70DO1LMMGTKE1qxZk3pG5EiWQEBAAM2bN4+Cg7VZxjfubjRN/6U9bdnAX20w2QrgIgiAwHMEEAA8hwQXjEJA7g1Qs94gJe7IkewdO3Zkb2WrxBmTipQpU4b++OMPyp07tyY1SEi4T8sWvE+L5r0lFnJSN/NAE2chCgIeQAABgAc0oidXoXaDwZQ5OK+SKsp1AerXr0/Hjx9XomdFkdKlS5NcbrlSpUqaVX/HlvE0eXxLio3lbTykmYMQBgEPIYAAwEMa0lOrIV8BNG7xtbLqXblyhZo2bUoXLlxQpmk1obCwMFq/fj21adNGs6qfPLaGxo+sQ/9cP6dZGRAGAasTQABg9W+ACepfqlx7KllG3cNGrmz34osv4nUAo+3Tp09Pv/76K/373/9mqKRsejniEI39oSqdPb055Yy4CwIg4BIBBAAuYYOR3gRadRhDGQKzKys2IiKCateuTdu3b1emaTWhNGnS0NChQ+mXX34RgzW9Nal+TMxVmji2Cf25Z5Ym+hAFASsTQABg5dY3Ud0DMmSl1h35O9IlrfL169epUaNG9NtvvyW9jHMnCfTu3ZtWrFhBmTNndtLSsezx8Xdp3vRe9Mdqda+CHCsZuUDAswkgAPDs9vWo2pUo1YIqVnlFaZ2ioqKoffv29M477yhd816pkyYQk4Mrd+7cSUWKFNHEW7kZ0epl/6bZU7tR/L1YTcqAKAhYjQACAKu1uMnr27zNDxSao5TSWsiHy6hRo2yDA+WrASTXCBQqVIi2bNlC1atXd03AAau/9s6lSeOa0e2Yaw7kRhYQAIGUCCAASIkO7hmOgNwtsEffBSRfCahOq1evpuLFi9PPP/+sWtoyeiEhIbR27Vrq3r27ZnU+c2oTjR1enSIvH9OsDAiDgBUIIACwQit7WB2DgvNQl14zKW1a9QPPbt68Sa+99hq1aNGCzp4962Hk9KmOr68vTZkyxTZAUA4U1CJdv3qaxo2sTadPYrdHLfhC0xoE0lqjminWcmiKd1O5Wb/xZ6nkwG0tCGQOzkfpA7LQscMrtJC3LRY0fvx4kmMEKleuTH5+fpqUo5Wo9Hvp0qU0a9YsWrRoEe3atYtiYmIoV65cmo3YT1oX+eCvU6eObf+AZcuW0f3795PeVnIef+8O7d8zh4Iy56KwnGWUaELEXATWrvwP1+HPuQJmttcmPDcXkQccd78aEccxhy2TwO/L/kXrV3/DVEnZXHZrf/jhh/Tqq69SYGBgypndfPfcuXO2jY8mTZpEt27des6bx3UZOHCg6EHRJ/6X4wLkokGRkZHP+aPqQp0GH1DDZl+QVj0OqvyEjloCHw/04Qpa+hlo6co/+uYgAOD+CrnZfumCQbR1w2jNvQgKCrK9Hnj77bcpR44cmpfnTAH79++n77//nubMmePQbIZ69erR4sWLSW7yo0c6ffo0NW/enI4cOaJZcaXKtqP2L09UtoGUZo5CWBkBBAA8lAgAiBAA8L5DbreWo/gXzh1Au7b9oosvctGbJk2aUI8ePWwPNfnO2x3p2rVrJLc6njp1qm0KnrM+yCBg5cqVurwSkL7duHHDNuVSDhLUKuXKU4m69/2VAjOGalUEdA1EAAEArzEQACAA4H2DDGL94EECzZ/Zl/btmq6rR3Lxm1atWlHjxo2pQYMGlCVLFk3LP3PmjO2hLRfeWbVqFcXF8V5ByUV85Ep+eqV79+7RgAED6H//+59mRcpBoj36LaTQsJKalQFhYxBAAMBrBwQACAB43yADWcuegJVLPqJN6350i1deXl5UsWJFqlq1KpUvX54qVKhAxYoVc/lde2xsLP3111+0Z88e2rt3L23atImOHVM/9e2bb76hDz74QFdm8nWFHFeRkJCgSbm+fhmpS88ZVKT4S5roQ9QYBBAA8NoBAQACAN43yIDWWzaMouULh5DsFXB3kq8H8uTJQ7lz57YdoaGhJDfSkdflmAL5H7EcnS+P27dvU3h4OJ0/f952yEWJ4uPjNa+CDFzmzp1L7dq107yspAUsWLDAtl6ArLsWycsrHTVv+yNVqfG6FvLQNAABBAC8RkAAgACA9w0yqPVf++bR/Bm9xQP0rkE9NJZbMiiRW/xWqlRJV8dk74Zcc0HLFRir1XqTmrb+nry89Jn1oCtAixeGAID3BcBCQDx+sDYogdLlOtDrAzdScJb8BvXQWG7J3oeWLVvaeh709Ey+Jtm9e7ftdYlW5W7dOIam/NyK7sY+Py1SqzKhCwJmIIAAwAytBB9dIpAjVzl6a/AuKlmmjUv2VjO6dOmSbXaDXA1RzySnVMreBxmAaJVOHP2dxo+sQzf+uaBVEdAFAdMRQABguiaDw84QsA0G6zWbXmr+X9EFnM4ZU0vmPXz4MHXt2lWTlftSApohQwbbtsxyV0at0qWIg/TT8Br094U9WhUBXRAwFQEEAKZqLjjrCgG5OlztBkPozfd3UM7cFVyRsJTN8uXLqX///rrXWa5MOGLECNtmTHKtBS1S1K0IGj+qLsldBZFAwOoEEABY/RtgofrLbYT7v7uJXmrxJaVL557Fe8yCe8KECTRmzBi3uNuvXz+S+wdkypRJk/Lj78XSnGndScE68pr4B1EQ0IsAAgC9SKMcQxCQrwFq1x9Mb4qxAQUL1zWET0Z1Qu4XIHsD3JEaNmxoW/cgb968mhQv14yQAcCC2a+L1x33NCkDoiBgdAIIAIzeQvBPEwLZshejPm+sot4DVmAnOTuE5Q5+nTt3JrnPgDtSqVKlbDMEatSooVnxu7ZPpMnjW1DsnRualQFhEDAqAQQARm0Z+KULgUJF6tvGBrTrMoEyBeXSpUwzFSK3FZaj87Wcp58SD7l74e+//04dOnRIKRvr3qnj6+inETXp+tXTLB0Yg4DZCCAAMFuLwV/lBNKk8aIKL/ak9z87Rl16zSK5oQzSEwJyZUK5WI9WK/Y9KSn5M39/f9suh//+97+Tz6DgauTlYzR2eHU6c3KjAjVIgIA5CCAAMEc7wUsdCKRN601yS9kB722xvRqQ68jL4ACJbPsR9OzZU7O1+1NjLGdyDB06lCZNmkQ+Puw94JMt7nbMNZo0rhn9uWdWsvdxEQQ8jQDWxiQaymnU+o0/45jD1qAEgrMUoLIVu1LFKr0oQ4asJKePxURfNai3T9ySD8rc+V6kWnXfs015PHt685ObzLMjR47Q3bt3bbseMqVcNi9btizVrFmTlixZQnfu3HFZx55hQsJ9Onxgke12/oK1RACI1dLtsTLCdQUzOT43Qj3c5QO+3dgLwF3fPdOVG35xH+0X88dPHFlFclEZoyT5kArLWUb0XrSn0uU7UebgJyPn5RbJe3dOVeqq3D5YbiPsznT8+HFq3rw5nThxQjM3ylToTO06/0zpvP00KwPCPALYC4DHDwEAAgDeN8ii1jdv/E3Hj64SwcDvdO7MVtFDcElXEsEhBahQkXpUQExlLFi4DgWIXork0v37cTTxp6ZK323LRXpWrVpFdevWTa5I3a5du3aN2rZtSxs3btSszLz5q1G3PvPs8tWsYAg7RAABgEOY7GZCAIAAwO6XAzccJ3DrZjhdPL+Hwi/uFUvN7qPr107RP9fPkVx0hpPkgkVZshai0LCSFJqzNIWJxYxCc5SmjJlyOCx75/Z1sQRuTboaqe6/5cyZM9O2bduoaNGiDvuhRca4uDiSCwdNnaq2lyOpr3JDqR6vLiI5dRTJWAQQAPDaAwEAAgDeNwjWKRKQYwdkIHDrZoR4Z/0P3bsbQ3FxMWJnuqhEO7k4kY9fBtvn9AFZKGPGUPGAz0WBmULF+INsifk4J9ciT9qmusmBbqpSwYIFafv27SSn6rk7ffnll/TZZ5+RXOBHi+TnH0RdX5klel3qayEPTRcJIABwEdwjMwQACAB43yBYm4aAHBA4cWwTio+/q8xnuUjPmjVryNfX/Usrz58/n+RMBbm1sRZJBmrN2/5IVWq8roU8NF0ggADABWhJTLySnOMUBEDAgwnkK1CDWnccq7SGmzdvtj10tfrP2xln27dvT+vWraPs2bM7Y+Zw3oSEeFo8/21a+tt7oqchwWE7ZAQBoxJAAGDUloFfIKABgfKVu1Odhh8qVZ4zZw7997//VarpqtiLL75oWz5YThfUKm3dOIam/NxaTIl88hpHq7KgCwJaEkAAoCVdaIOAAQk0bPo5ySluKpNcpW/GjBkqJV3WypUrl21mQLNmzVzWSM3w+JGV9LPYVvjmjYupZcV9EDAsAQQAhm0aOAYC2hCQ6wbI+e158lVRVoB8BdC3b1/aunWrMk2OUGBgIC1atIjefPNNjkyKthF//yVmV1QXsz72ppgPN0HAqAQQABi1ZeAXCGhIQC5uI+e3J100iFtcbGwstWnThs6cOcOVUmKfNm1aGj16NP34448kz7VIcnbHhNH1ac+OKVrIQxMENCWAAEBTvBAHAeMSyBCYnXr0W0i+fhmVOXnlyhXbCn03bhhne913332XFixYIKZUPpxqqayyj4TktM5fZ/WjudN6YlyAarjQ05QAAgBN8UIcBIxNIHvYC9S110ySU9xUpcOHD9t6AuQiPUZJcjfDLVu2UJ48eTRzSW4iNE4suCRXiUQCATMQQABghlaCjyCgIYHCxRpRq45jlJawfv16GjBggFJNrljp0qVtCxdVrFiRK2XX/vKlwzR+VG26euW43Ty4AQJGIYAAwCgtAT9AwI0EKlXpTdVrv63UA7lp0A8//KBUkysWFhZGMjhp1aoVV8qu/Y3r58UMgXp07eopu3lwAwSMQAABgBFaAT6AgAEING39HZUo1UKpJ0OGDKGFCxcq1eSKBQQE2MYEyKmLWqXo6CtiE6Ymum8SpVV9oOuZBBAAeGa7olYg4DSBNGm8qGO3KbathZ02tmOQkJBA3bp1o717jTVVTk6FHDp0KI0fP57SpVM3/iEphn+unRULBrWke3HaLE2ctCycg4ArBBAAuEINNiDgoQR8fDNQz1cXU6agnMpqGBMTY5sZcOHCBWWaqoReffVVWrFiBQUFBamSfEon/OKftGzh+09dwwcQMAoBBABGaQn4AQIGIZAxUxh17/sb+fgEKPMoIiKCWrZsSdHR0co0VQk1aNCAdu7cSYULF1Yl+ZTOzq3/o/17Zj91DR9AwAgEEAAYoRXgAwgYjECOXOWoY/cpJF8LqEp//vknde3ale7fv69KUpmOfPjLjY2qVq2qTDOp0OJf3xHBz5Wkl3AOAm4noO632+1VgQMgAAIqCZQo1ZIat/hSpSQtWbKE5MBAI6Zs2bLRH3/8YRuzoNq/O7f/od+XfqZaFnogwCKAAICFD8Yg4NkEatYbRJWq9lFaSbk077hx45RqqhLz9fWlqVOn0r/+9S/R+5FGlaxNRy4XfPH8bqWaEAMBDgEEABx6sAUBCxBo2X4UFSpSX2lN33rrLVq1apVSTVVi8sH/+eef07Rp00hOGVSVHjxIoDUrvlAlBx0QYBNAAMBGCAEQ8GwCadN6U9dXZlG27MWUVTQ+Pp46depEhw4dUqapWujll1+mXbt2Ubly5ZRJnzi6ii6FH1CmByEQ4BBAAMChB1sQsAgBP/8g6vHqIgrIkFVZjW/evGmbHnj58mVlmqqFihcvTtu2baNXXnlFibTcNnnTHz8q0YIICHAJIADgEoQ9CFiEQHCW/LYthOVWwqrS2bNnqXXr1nTnzh1Vksp15LgAuazxe++9p0T74J+/YddAJSQhwiWAAIBLEPYgYCECefNXo3adf1Y6QG779u3Uq1cvkv8dGzXJcQHDhg2zTWPk+njv3h06/NdirgzsQYBNAAEAGyEEQMBaBMpU6Ez1XvpUaaXnzp1Ln31m7GlyMgiYMGECFS1alF33v/bNY2tAAAS4BBAAcAnCHgQsSEAGAGUrdFFa8y+//NI2BU+pqGKx9OnT08SJE9k9IGdObRQLIt1T7B3kQMA5AggAnOOF3CAAAoKA/G+4bZefSb4SUJn69etHGzduVCmpXKtaNfEapF07lm7c3WgKv7iPpQFjEOASQADAJQh7ELAogXTpfKlb3/kUHFJAGYG4uDhq27YtnThxQpmmFkKDBw9my549tZmtAQEQ4BBAAMChB1sQsDiBgIAQ6tlvEfmnz6yMxLVr12zTA69fv65MU7VQ5cqVqUyZMizZK5ePsOxhDAJcAggAuARhDwIWJ5A1e1Hq1nsepU3ro4zE8ePHbdMD7969q0xTtVDz5s1ZktciT7HsYQwCXAIIALgEYQ8CIED5C9Wilh1GKSWxadMmev3115VqqhSrU6cOS+7aVQQALIAwZhNAAMBGCAEQAAFJoFKV3iQ3D1KZJk+eTF9//bVKSWVaJUuWZGndufMPyx7GIMAlgACASxD2IAACiQTk9sEvlG6V+FnFySeffEKzZs1SIaVUIzQ0lNKlS+eyZvy9WEwFdJkeDFUQQACggiI0QAAEbATSpPGijt2mUM7cFZQRkSsE9unTh3bs2KFMU5VQYGAgS+peXAzLHsYgwCGAAIBDD7YgAALPEfD2SU89+v1GQZlzP3fP1QtyrwA56O7UKWO9N4+NjXW1SjY7lQMnWY7A2JIEEABYstlRaRDQlkBgxjDq3ncB+fry/kNO6uXVq1dtMwNu3bqV9LLbzuXDn7OJkZdXWkrn7e82/1EwCCAAwHcABEBAEwJhOUtT557TSD7oVKWDBw9Sp06dKD4+XpWkyzrHjh1z2VYa+vhkYC8pzHIAxpYngADA8l8BAAAB7QgULdGUmrb6TmkBK1eupHfeeUeppitie/bsccUs0SZTUM7Ec5yAgDsIIABwB3WUCQIWIlCt9ltUpUZ/pTUeO3YsjRw5Uqmms2IyEOGkLFkLccxhCwJsAggA2AghAAIgkBqB5m1/oCLFX0otm1P3Bw0aREuXLnXKRlXmmzdv0ooVK1hyWbIWZtnDGAS4BBAAcAnCHgRAIFUCXl7pqEvPGZQ97IVU8zqa4f79+9S1a1fav3+/oybK8skFiqKjo1l6ufJUZNnDGAS4BBAAcAnCHgRAwCECvn4ZbRsHBWYMdSi/I5mioqKoRYsWFBkZ6Uh2JXnkg/+bb75hacntlPMXrMHSgDEIcAkgAOAShD0IgIDDBIKC81C3PvPJW+H0twsXLtArr7xCcsEgPdLQoUPp0qVLrKKyZitKGQKzszRgDAJcAggAuARhDwIg4BSB3HkrU/uXJyqdArds2TIaM2aMU364knn16tU0fPhwV0yfsilequVTn/EBBNxBAAGAO6ijTBCwOIFSZdtRw6afK6Xw7rvv0sKFC5VqJhU7fPiwbQ2ChISEpJddOi9TobNLdjACAZUEEACopAktEAABhwnUafghla/cw+H8qWWUgwJffvllWrJkSWpZnb6/d+9eql+/Pv3zD38HPzkQMjSMt5Og0xWAAQgkQwABQDJQcAkEQEAfAm06jaUChWorK+z27dvUpk0b2yA9Ff+pS8dmzpxJderUYb/3f1zJqjXfeHyKnyDgVgIIANyKH4WDgLUJyM1wXu49h0IUzomXPQEfffQR1apVi3bv3u0y4DNnzlCHDh1svQpytoGKJPdIKF+pmwopaIAAmwACADZCCIAACHAI+KcPpp6vLqL0AVk4Ms/ZbtmyhSpXrkwtW7a0LdrjyP4BcibB9u3bbbMKihUrRvPnz39Ol3OhRp23xQZAfhwJ2IKAMgJplCmZV4g1d+irEXHmrTk8BwEDEThzahNNHNuE7t/X5ncqU6ZMVLduXSpXrhwVLlyYMmbMSGnTpiW5u6D8b//AgQO0du1aZV39z6INDilAAz/4EwHAs2AYnz8e6MOwtpla+hlo6co/+uYgAOD+CsEeBBQR2LtzGs2f2UeRmrFkevRbQMVeaGYsp0zuDQIAXgPiFQCPH6xBAAQUEihfuTvVrDdIoaIxpF4o3QoPf2M0BbxIQgABQBIYOAUBEHA/gZea/4fy5K/qfkcUeSC3/W3TaZwiNciAgDoCCADUsYQSCICAAgJy46BO3aeSn3+QAjX3Stjq0mO68gGO7q0VSvcUAggAPKUlUQ8Q8CACmYPzUrfecyldOl/T1kpu+NOq4xjKV6C6aesAxz2bAAIAz25f1A4ETEugQOE6j/YMMOefqfqN/0WVqvQ2LX847vkEzPmb5fntghqCAAgIAqXLdaBWHUaLjYPM9aeqRt13qd5Ln6ANQcDQBMz1W2VolHAOBEBACwKVq/UTqwWK1wEmWEBHdvvXb/wZNW31rRYooAkCSgkgAFCKE2IgAAJaECghts/t9doSCsiQVQt5JZrePumpQ7fJtgBAiSBEQEBjAggANAYMeRAAAercLH0AACW/SURBVDUE5KZB73ywlwoXa6RGUKFKtuzFqP/ATVS2QheFqpACAW0JIADQli/UQQAEFBLIEJjdtm/AS83/S/I/bncnOc2vWq036Y33d1BojlLudgflg4BTBNI5lRuZQQAEQMDNBLy80lLtBkOonNhVb9XST2jfrhlu8Sh/wZrUot0IPPjdQh+FqiCAAEAFRWiAAAjoTiBjphzU4eVJVKX667Rh7fd05OBSevAgQXM/8heqRbXEcsVFSzTRvCwUAAJaEkAAoCVdaIMACGhOIHe+F6lbn/kUefkY7dw6gf7aN4+ibkUoLdc/fWZ6oXRrqlS1D+XOW1mpNsRAwF0EsBsgEXYDdNe3D+WCgAYEEhLu05lTG+nooeV0VmwxHPH3fpLXnElyOl9WMbAvf8FatkGHRYo3MvWqhM7U3Ux5sRsgr7XQA8DjB2sQAAGDEZBjBAoWrms7pGt3Y29RRPgBuhZ5kq5dPUXRUZdt12Jjo2yvDPz9M4kBhQG2KYZZQgpSSNZClD3sBUNPOTQYcrhjUgIIAEzacHAbBEDAMQK+fhlt6/FjTX7HeCGXdQhgGqB12ho1BQEQAAEQAIFEAggAElHgBARAAARAAASsQwABgHXaGjUFARAAARAAgUQCCAASUeAEBEAABEAABKxDAAGAddoaNQUBEAABEACBRAIIABJR4AQEQAAEQAAErEMAAYB12ho1BQEQAAEQAIFEAggAElHgBARAAARAAASsQwABgHXaGjUFARAAARAAgUQCCAASUeAEBEAABEAABKxDAAGAddoaNQUBEAABEACBRAIIABJR4AQEQAAEQAAErEMAAYB12ho1BQEQAAEQAIFEAggAElHgBARAAARAAASsQwABgHXaGjUFARAAARAAgUQCCAASUeAEBEAABEAABKxDAAGAddoaNQUBEAABEACBRAIIABJR4AQEQAAEQAAErEMAAYB12ho1BQEQAAEQAIFEAggAElHgBARAAARAAASsQwABgHXaGjUFARAAARAAgUQCCAASUeAEBEAABEAABKxDAAGAddoaNQUBEAABEACBRAIIABJR4AQEQAAEQAAErEMAAYB12ho1BQEQAAEQAIFEAggAElHgBARAAARAAASsQwABgHXaGjUFARAAARAAgUQCCAASUeAEBEAABEAABKxDAAGAddoaNQUBEAABEACBRAIIABJR4AQEQAAEQAAErEMAAYB12ho1BQEQAAEQAIFEAggAElHgBARAAARAAASsQwABgHXaGjUFARAAARAAgUQCCAASUeAEBEAABEAABKxDAAGAddoaNQUBEAABEACBRAIIABJR4AQEQAAEQAAErEMAAYB12ho1BQEQAAEQAIFEAggAElHgBARAAARAAASsQwABgHXaGjUFARAAARAAgUQCCAASUeAEBEAABEAABKxDAAGAddoaNQUBEAABEACBRAIIABJR4AQEQAAEQAAErEMAAYB12ho1BQEQAAEQAIFEAggAElHgBARAAARAAASsQwABgHXaGjUFARAAARAAgUQCCAASUeAEBEAABEAABKxDAAGAddoaNQUBEAABEACBRAJpEs+se/LAulVHzUEABEDA0gQs/QxED4Clv/uoPAiAAAiAgFUJIACwasuj3iAAAiAAApYmgADA0s2PyoMACIAACFiVAAIAq7Y86g0CIAACIGBpAggALN38qDwIgAAIgIBVCSAAsGrLo94gAAIgAAKWJoAAwNLNj8qDAAiAAAhYlQACAKu2POoNAiAAAiBgaQIIACzd/Kg8CIAACICAVQkgALBqy6PeIAACIAACliaAAMDSzY/KgwAIgAAIWJUAAgCrtjzqDQIgAAIgYGkCCAAs3fyoPAiAAAiAgFUJIACwasuj3iAAAiAAApYmgADA0s2PyoMACIAACFiVQDqrVlxVvff9Fa9KCjogAAIgAAJOEChXGo8wJ3A9lxU9AM8hwQUQAAEQAAEQ8HwCCAA8v41RQxAAARAAARB4jgACgOeQ4AIIgAAIgAAIeD4BBACe38aoIQiAAAiAAAg8RwABwHNIcAEEQAAEQAAEPJ8AAgDPb2PUEARAAARAAASeI4AA4DkkuAACIAACIAACnk8AAYDntzFqCAIgAAIgAALPEUAA8BwSXAABEAABEAABzyeAAMDz2xg1BAEQAAEQAIHnCCAAeA4JLoAACIAACICA5xNAAOD5bYwaggAIgAAIgMBzBBAAPIcEF0AABEAABEDA8wkgAPD8NkYNQQAEQAAEQOA5AggAnkOCCyAAAiAAAiDg+QSwmbLnt7GhanjixEFa8NsvtHP7WgoPP2fzLUeOvPRilQbUpl0fKlToBUP5awZnzpw+QgcP7qJjR/fTsWN/0tXISxQVfZOiom7Y3A8MDCJ5ZM0aSkWKlKFixctSyZKVKF/+YmaonuY+psjvwQNKnz6QMgRmohxheaiA+H4WLFiCKlasBX6atwwK0JpAGq0LMIH+A46P+/6K55hbxjYu7i4N+24Q/Tr/Z0pISEi23l5eaalDx9do0OBh5O3tk2weXHxIQD7sV62aS+vWLKBz5467hCVfvqJUr0EbeumljlSkaGmXNMxqpIJfjhz5qGatptSqdS8qXqK8WVGY2u9ypdn/w1r6GWjpyj/65iMA0PhPgHz4vzmgGe3aud6hkipXrktjflqGICAZWvv2baHJE7+jjRuWJXPX9Utly1WjXr2HUK1azShNGs/8s/BA/De/ZfNKmjJ5GO3etcF1WMlYyh6Vbj0GUiMRTHkqv2Sq7fZLCAB4TeCZv+nOMUEA4Bwvp3N/+d83aP7c8U7Zde7yBn3w0UinbDw585/7ttK3X79NR4/+qWk15X+yH340ikqXqaJpOXqL68Wvgng18N2w2RQcnE3vKlqyPAQAvGZHAECEAID3HUrRWr7z79yhvN1uf3vG8nXA3F/32d632stjhev//BNJw3/4gJYumUbyP1g9kvwPVnZrv/Pu1xQUFKJHkZqV4Q5+efIUpinTN5menWaNolAYAQAPJmYB8PjBOhUCcsCfvXf+KZkmJNynhb9NTCmLx9/bu3czdWpfgZYsnqrbw19ClYHGwgWTbGXL/5zNmtzF7/z5EzT0X/3Mig1+W4gAAgALNbY7qrpDjPZ3NW3fttpVU1PbyQfw5Enf06t9GlBkZLjb6nLlyt/Ur099mjZ1uNt8cKVgI/DbsH4JyfEaSCBgZAIIAIzcOh7g26WI8y7XIoJh63KhbjaUDy85W2Lk8I/o/n33zzCJj79HPw4bTF/9902XenL0xil7m7768k1D8LN6D5bebY/ynCfAnkPhfJGwsBKB27ejXa5uTEyUy7ZmNJQP/M///aqty99o/s+bO46ixdoCX/x3IqVL520092z+yGDls09eoZUrZhvCP/kKAgkEjEwAAYCRWwe+WYaA/M/14w+70++r5hm2ziuWz7L59uXXUw031U3y++SjHobid/3aZcO2JRwDAUkArwDwPQABAxAYMfxDQz287CGRQcDokZ/Yu+226yNHfGQ4fnImCxIIGJkAAgAjtw58swSBuXN+omlTfjRNXSeJhYicXddBy8pJflMn/6BlES5p581X2CU7GIGAXgQQAOhFGuWAQDIEjhzeaxv0l8wtQ1/69puBdODATrf7aGR+tWs3dzsfOAACKRFAAJASHdwDAQ0JyAGSH33Qje7di9OwFG2k5YA7+c7dnQM1Y6Jv0ZDBXQzJz98/gFq06qkNfKiCgCICCAAUgYQMCDhL4Osv33J5Ix9ny9Ii/4XzJ0XvxXtaSDuk+c3X79DFC6ccyqt3pv5vDKXQ0Nx6F4vyQMApAggAnMKFzCCghoCcIrZs6XQ1Ym5UWbRwMu3ZvVF3D+RmPnJ5ZCMmuY9F9x7vGtE1+AQCTxHANMCncOADCGhPQHaff/WfAcqX95Xdzo1e6kA1ajahEi9UoCxZstsqc01MRzt0cDdt3rSCVv8+n+7ciVFWSblw0bffvEOz5uyitGn1+XMi+X3z1VvK6vBYKDl+8ffu0aXLF+nUyUO2WQabNi2nuLuxj02e+pkpKAsNHPg1tW7b+6nr+AACRiWAzYCwGZCm303uZh37/nL/aniqAc2YPlLpwD8fH1/q0vUt6tPvQwoMDErR3aioG/S/CV/TrBmjlb47lzs3yv989Uju5CcXQ1q3diFt37aG/v77DKUVU/1Cw/KQ3ML6pSadSAYRSPoR4P59EZ5a+hlo6co/+pqytljzxAeUyl9f7i+op/GNjb1NzZsUJvlfuYqUL19R+vq7GVSsWFmn5I4c2UcfDu5KcuMaFSkkaxgtW36CfHz9VMjZ1TAKP7sO4oauBLh/X4Szln4GYgyArl9XFGZ1Ar/On6Ds4V+yZCWaPHWj0w9/2QbFi5ej6bO2Udly1ZQ0ydXICFqwQPvdG43CTwk0iICAmwkgAHBzA6B46xCIi7srFqxRs+BP6TJVaMLEtSTfO7ua5OuCseNWkAwkVKTJk4Ypfa3wrE9G4/esf/gMAmYjgADAbC0Gf01LYO2a30husctNuXIVoJGjF5KfX3qulO2d9aj/W0w5cuRja8mdH/9Yt4itY0/AiPzs+YrrIGAGAggAzNBK8NEjCKjYHlaOtJeb8QQFhShjkjlzVvpu2Gzy9vZhay5aMImtYU/AqPzs+YvrIGB0AggAjN5C8M8jCMgR47t3b2DXpXefD0h2/6tOL5SsSD17vc+W3b59DUWEn2PrPCtgdH7P+ovPIGAGAggAzNBK8NH0BJYtmU5yy1pOkl3/cqqfVklqc18FyDouWzZDuYtm4Ke80hAEAY0JIADQGDDkQUASWL9+CRvE6/3/Rb6+/mwdewJyTMGrr39q77bD1zeuX+pwXkczmoGfo3VBPhAwCgEEAEZpCfjhsQTkFLmjYt49J+XJU5iaNOvCkXDItnmLbpQrd0GH8trLdOjQbrp+/Yq9205fNxM/pysHAxBwIwEEAG6Ej6KtQUAuHyuXzOWkTl36k5dYdU7rJAcZduz4GqsY+Rpg65ZVLI2kxmbil9RvnIOA0QkgADB6C8E/0xOQG9dwkuz2b9GyB0fCKduWYhtbubwwJ+3Yvo5j/pSt2fg95Tw+gICBCSAAMHDjwDXPIHDwwC5WRarXeCnVNf5ZBTxjLBcXqlq14TNXnfsoXwOoSmbjp6re0AEBrQkgANCaMPQtTUBuvnPhwkkWg3r1WrPsXTGu37CtK2aJNufOHqOY6FuJn109MSs/V+sLOxDQkwACAD1poyzLEZCb7nDe/6dJk4aqVG2gOzdumXIcgKw7N5mVH7fesAcBPQjos4G3HjVBGSBgQAJnTh9heZUvfzHKEhLK0nDFOGvWHJQ3bxE6d+64K+Y2mzNnjlDFSrVdtpeGRuN34sRBWvDbL7Rz+1oKFwse3bkTw6qf3D44R468IshrSG3b9aECBUuw9GAMAs4QQADgDC3kBQEnCciHBCep2qjHFR/k6oCcACAi/LwrxT5lw9VQxU9uRDTsu0H06/yf2Qs6Ja2gDCBOnTpsO2bNHEMdO71O773/vZJlmZOWg3MQSI4AAoDkqOAaCCgiwF0Wt1ChFxR54rxMocIlnTdKYsENfqRUePjZJIrOn6rgJx/+bw5oRrt2rnfeAScsEhLu0+xZ/0enRa/RmLFLEQQ4wQ5ZXSOAMQCucYMVCDhEgBsA5M1f1KFytMiUX7x+4CTuw1uWbQR+33/3nuYP/6Scd+5YRz8OG5z0Es5BQBMCCAA0wQpREHhI4MbN6ywUodlzs+w5xtmz5+KY080bvLrLwrn8smXLyaqDfOf/2/wJLA1XjOfOGWd7LeCKLWxAwFECCAAcJYV8IOACgdjY2y5YPTHJkiXbkw86n4Vk5Q0+5A6Qk9Xl8svKHEAptyDmbuLkSrPJ1wELfv3FFVPYgIDDBBAAOIwKGUHAeQKxd3gBQPqAQOcLVWSR3j8DS4n78JaFc/n5p+fVQW5v7K60fdtqdxWNci1CAAGARRoa1XQPAe5D0NfXzz2Oi1J9/Xg7DxqhB8CPWYdLEefdxj/CjWW7rdIoWFcCCAB0xY3CQAAEzERALsTkriRnHyCBgJYEEABoSRfalifg55eexeDu3ViWPceY23shF7nhJi6/2Ng7LBeyh7pvEKYKfqzKw9jjCSAA8PgmRgXdScDPnxcA3I6Jcpv7t29Hs8rmPrxl4Vx+d5h1qFJF/2WYH0NXwe+xFn6CQHIEEAAkRwXXQEARAe4f8cirlxR54rxM5JUI542SWKj4D9bd/NqI5Xm9vNImqZV+pyr46ectSjIjAQQAZmw1+GwaAkGZglm+XrnyN8ueYxwZGc4xp0xBvLrLwt3NT64k2KHjaywOrhqr4Odq2bCzBgEEANZoZ9TSTQTCxEYvnHTuzDGOOcv2tFijnpNy5MjHMbfZcvmdPXOU7cOgwcOo8ov12DrOCshNgpBAQEsCCAC0pAttyxPgPgTlSnTuStyyc+TMx3ady+/kiUNsH7y9fWxr83fu8oaurwO4dWdXHAIeTwABgMc3MSroTgJhOfKwij94cBfLnmN8+NAejjmFhfFH0BuFnwwCPvhoJM39dR916z6Q5KuB9MxFhlKDy617avq4DwLYDRDfARDQkED+AsVZ6ufOHqNrYiBgFuaSts46IccenD9/wlmzp/Lnz8+ruxQzGr+CBUuQfCWQWpL8GjfMRw8ePEgtq937KvjZFccNEBAE0AOArwEIaEigRInyxFlMRj5Atm/TfzlabpleXl5UXNSdm8zKb+P6payHvyp+XP6w92wCCAA8u31ROzcTyJAhE+XNW4TlxZo1v7HsXTFes/pXV8wSbeRWwgEK9jEwK78//licyMKVE1X8XCkbNtYhgADAOm2NmrqJQIkXKrBK3rr1d7p16x+WhjPGN29cox3b1zpj8lzeEi9UfO6aqxfMxu/Gjau0e9d6V6trs1PJj+UIjD2aAAIAj25eVM4IBCpVrstyI04sB7x40RSWhjPGixZOJu469C8qnDZnNn7z5/1sKH7OtD3yWosAAgBrtTdq6wYCNWs2EdPHeL9qc+eMo/v34zX3XpYxb+54VjmyrtVqvMTSSGpsJn7x8fdo3hxj8UvKEucgkJQA769SUiWcgwAIJEtAjuAvVrxcsvccvXjh/Elavmymo9ldzrdk8TS6ePG0y/bS8AXR/Z85c1aWRlJjyY87oFAvfrKNuKs3quaXlCXOQSApAQQASWngHAQ0IlCnTgu28rixX9Ddu7zd7VJyQu7+N37cf1LK4tC9WnWaO5TPmUy1a/M1teYXE32LRo/61JlqJZtXC37JFoSLlieAAIAojvMtuHePZc4pGrYmItCsRTf2a4Dw8LP0v5+/1qzWE37+ii5FnGfpy+7/5s27sTSSMzYDv/Hj/0tXI3kbKGnFLzmmZr/GHaci6n/X7Ay4/iMAIGLtecrdMpXbgLA3BwG5rGvFSnXYzk6a+B3t/3MbW+dZAbni4NTJPzx72enPVao2pNAw3uqHyRUq+XEHA0rdyZO+pwN/7UiuCNa1vXs306wZo1ka0lhuP6wFP7ZjBhSIibnF9cp9e21zPVdkjwCAiPUlcOd+7Yq+A5DRiUCbtr3ZJclBeh9/2J3++SeSrfVY4Nq1yzR4UCeSA9i4qXWbV7gSdu1VaMs6fjjkZaX85K6JQ97vrIafgu+IXYAedkO+cmEmtgCzfLebIwBgBgAxt1kdCG7/AsAB/QjUq9+GsmfPxS5Qvgp4+42WdOdODFtL9mC9/WZLdte/dETu3Fe3Xiu2T/YEjMgvOvomDRrY3rZcsz2/Hb2uNT9H/TBLvpgY9t9e1j9/ZuGUkp8IAIhYUSD3nV9KjYN7nkXAx8eXevR6T0mlZJd9vz71SS4642qSiwsNeL0JcTf9eVz+K70HU7p03o8/Kv9pNH6y56Rf7/p04MBOJXXVmp8SJw0kcu3aJa43CAC4BD3AnhUAnBWbtSCBgKME2rXvR1myZHc0e4r5Dh3cTT271aQjR/almC+5m0cO76VuXasqG0+QNWsOatWqV3JFKb1mFH5yHEavHrXo6NE/ldRPL35KnDWIiIK/vTcNUhW3uYEeAKKzHPrnzvF2TOOUDVvzEfD19afefT9Q5rjcsa9nt+r047DBdPPm9VR15TK/P3z/PvXsXoPk3HhVqU+/D8nH10+VnF0dd/OTPS5ff/kW9e5Vmy5eOGXXT2dv6MXPWb+MnP/smeNc985wBcxun8bsFVDg/0ChMdxVnarVGtLYcStcNfd4u3KleTtO7/sr3uMYyYF8nTtUoJMnDymtm59femrYqD1Vr9GYXihZkUIebSF8VWwnLHsLNm9aQat/n698LYGixcrQzNk7xTTHtErrY09MT35eabwo8mqE7TXJyhWzadPG5aR66q/e/OxxNdv11/o2pJ07/+C4/ZYwHsMRMLstAgCixqIRXX6CBwWF0Nr14ew53mb/ItnznxsA2NNVdd3fP4ByiMFrL4rpV23a9aFChV5QJZ2izr59W6hPrzqsLWNTLECnm3Kr4wm/rKUKFWvpVOLDYsBPV9yGKywhIYHq1Q51qNcrBecbiXurU7jv8bfwCoCI9RJfdgmePHHQ478onlpBOZL+1KnDNHPGKOrUvjx989Xbyv/DS45duXLVqUXLHsndMtW11m166/7wl4DAz1RfE+XOHhNjLxx55ZVKwUdTue/xtxEAEJ0TrXyH09I7d67jmMPWIAQSEu7TnNlj6c3+zXQJAj74aCTly1fUILV33o3ceQrRoMHDnDdUZAF+ikCaUGbHDt521aLKcg7tRRNWXanLCACIEgRR1r/wu3jvoZQ2KMT4BOR7RTmoTuuUPn0G+uqbaeTt7aN1Ucr15XQ/6XtAQKBybUcFwc9RUp6Xb9fO9dxKHRACD7giZrdHAPCwBddzGnL79rUUFXWDIwFbgxGQ2+/KVwNaJ7nL3eAPftS6GOX68r/vkiUrKdd1VhD8nCVm/vxy/Yrdu9ZzK8IaPcgt3Cj2CAAetgTryxB3N5bWrP7VKG0KPxQQkK8DFv42UYFS6hIdOr5OvV7RvschdU8cy9Gn70fUvsOrjmXWIRf46QDZQEWsWjmHFGwExPqbbyAcLFcQADzEt1H8YG3rt3TJdFZDwNh4BLZv02+A8NsDv6LGTTobD8IzHsld+d5464tnrrr/I/i5vw308kDB31r5t36rXv4auRwEAA9bRw4IYa3nuU/sBqZyYRUjf2ms4lsEc2tcZzjJ6XRffj2FWrXu5YyZrnmbNX+ZPv/ifyR9NVoCP6O1iDb+yNX/FOzmKLfTlH/zLZ8QADz5CrCGlT548ICmKNhO9Yk7nnHmzkFibII6P+jkQjr//nwCdesu16YyVurUeQB98d9JlDYtb2EnLWsFflrSNYb2lEnDVKydwfpbbwwSarxAAPCE48wnp66dLVo4Wcmuaq6Vbkyr7KG5jemYA16FucF3+Z+snFonDy031nGg+rYscobCkA+G04cfjzLFYlfg52jLmi/fpUsXaNnSGSocn6tCxBM0EAA8aUW5sPSuJx+dP5N7jU+fNtJ5Qw+2qCJW2DNrqlqtkdtcl70Ak6duEqsU5nObD6EiAJKr/HV5Wa6Yaq4EfuZqL0e8nfTLdyrW55Dd/6zF3xzx1Sx5EAA83VJTn/7o/Kd588Yr3STEeQ+MZSGX19VrjXiVNZc+t27zikpJp7Xkev4zZ++gNm0lQ/1+VWVZcte9OfP3UpmyVZ322ygG4GeUluD7ce7ccVq4QMmsnGl8bzxHQZ/dO8zD65RwVb6AdZmL3Kjk3NnjJAdMIREFB2ejf65His1oWJ0ruqPs3PVNat6iu+7lPlug3OCndp0WVE30RsitZ69GRjybReln+dD8Yfh82zQ/ufOe2RP4mb0FH/r/6cc96ewZ9j/ucvR/b3GwVn71DKIPa2G84bzup7tAuNCa68awH+dR/QZtuDIeYS93T3tzQHPaucMcSya/WKU+jRm71BDv4J/9AshNcCZP/M62K50ceKoqlS1XjXr1HkK1ajUz5Ch/VfUEP1Uk9dP5fdU8+mBwFxUF/iZE2qkQ8hQNBADPt2RNcWnj85edu5I9ey5bF2qmTMHOGXpobhkEyOV15Qp7cpEdIybZ7d+pywB6b9B3hnz4J2V24vgBkn8Y16z5Tfxn5NqeJvkLFKcGDdpSo8YdddsFMWkd3HkOfu6k73jZcrO1ju3KU2RkuONG9nPWELe22L9tvTsIAJJvcxkAyECAlWrWakojRy/y6P+onAUkl9eVK+zJRXbCw8/R7dvRzkoozS/Xk5fbAcsBf/Kdf4GCJZTq6yEm50YfOrCLjh3bT3KXtMirl2xLU8slU2XKmDEzBQYGUdaQUCparKztKFmqEuXNW0QP9wxfBvgZs4lkD9d7A9vR+j8Wq3BQrvxXT4WQJ2kgAEi+NV8Sl1cmf8u5q++9/z117/Guc0bIDQIgAAIWJzBJvOoaNeJjVRTkdKS1qsQ8RQcBgP2WlCsDVrJ/27E7ci73+Am/U/kK7A4FxwpELhAAARAwOQG529+A15uQnFqtIG0XGuadzqIAgD0JL3s3cJ3+q4KB/AIPfLsNyXeOSCAAAiAAAikTOH7sL1vXv6KHvyzsPymXaN276AFIue2Xi9tNUs7i2N2sWXPQ5Gkb3bqwi2OeIhcIgAAIuIfA33+foV49aqmc7rpK1KSxe2pj/FIRAKTcRoXFbfmvu2/K2Ry7mztPIRr380oEAY7hQi4QAAELEZAP/9dfbaxyIbVYga+kOE5ZCKNTVcUrgJRxnRC3v0s5i+N35W6BPbrVECO19ztuhJwgAAIg4OEETp48RL171lH58JfEvhYHHv4pfHfQA5ACnEe35HJoB8VRIPWsjuWQU7JGjFqAgYGO4UIuEAABDyYgB/zJ6X7R0TdV1vKkECslDtkLgGSHgMtL3trR88TL8aJSh8TRTRxKAqa4uFhavmwm+fsHUOnSVbBOgCd+a1AnEACBFAk83EJ9GP37sz50967S1Xnvi4I7ikMGAUgpEEAAkAKcJLfOiHMfcdRKco11mpCQQNu2rqajR/ZR1eqNyM/P/Ouus4DAGARAwDIEbt64RkMGd7atDPrgQYLqen8hBCerFvVEPQQAjrfqBpG1tjjyOW6Sek65y9WK5bMoLEceKiCWZkUCARAAAU8mIJewfvedtnTkyF4tqik3HOknDnUbZWjhpUE0lXRpG6QueriRXRTypzhCtSiscuW69NEnoylf/mJayEMTBEAABNxGQA6C/ubrd2jrFjkzT5N0RaiWE4eSjQM08dBgoggAnG+QRsJkmTjSOW+auoWPrx+1bdeXevYaRKGhuVM3QA4QAAEQMDCBCLHnx+RJw2jhgokUF3dXK0/lkoFyvr85thzVioKTuggAnAT2KPsr4ucv4tCMn7e3j20/+p6vDMKmLa61EaxAAATcSEBusjRFPPiXLpmuaklfe7WR3f09xTHNXgZcT56AZg+w5IvzqKsfitrIeaaap+IlyotgoBs1bdaVgoJCNC8PBYAACICAKwSiom7QhvVLbA/9nTvWkRzpr0MaLMoYpkM5HlcEAgBekw4X5gN5Eo5by9cDlSrVITlWoNKL9aho0TLk5YW1nBwniJwgAAIqCcjZTHIL6p0719HOHX/Q7l3rtezmT871H8TF95O7gWupE0AAkDqjlHJIfpPEIbufdE+ZMgXb9naX+7rnz1+U8oojODgbZciQkQIzZKL0AYEkXyUggQAIgIArBO7di6PbMVEUJRbpiY6+RdevX6GzZ46K4zjJGUzy4X/z5nVXpFXYyL+9fcShSzeDCoeNpoEAgN8ikuG34pDdUEggAAIgAALaExglinhXHMoXEdDedeOUgHUA1LTFaiFzQxwviQNBlRqmUAEBEACBZwnI//blQj9yDBb+83+WjpOfEQA4CSyF7DvEvdPiaC4OcE0BFG6BAAiAgAsE5LLsr4lDjr1CUkAA/60qgPiMREPxebo4sj1zHR9BAARAAARcI3BZmHUVB+b5u8YvWSsMIU8WC+uifB0gd6GSP5FAAARAAAR4BNYL8/LiwMOfx/E5a3RVP4dEyYUYoTJTHPIdVU1xINASEJBAAARAwAkC8u/nd+LoJY5b4kBSTACvABQDTUauvrg2XhwFk7mHSyAAAiAAAs8TkFv5viqOP56/hSuqCKAHQBVJ+zpnxK2fxSH3qK4iDk32EBC6SCAAAiBgdgKxogJfiuNlccggAElDAugB0BBuMtKyF2C0OJokcw+XQAAEQMDKBOQ7/jfEcdTKEPSsO95N60mb6JQorqk4Wohjp75FozQQAAEQMCSB7cKrZuKQr0vx8NexidADoCPsZIqqIa59IA65dgASCIAACFiJwBZRWbmK6hIrVdpIdUUAYIzWkIHAe+KQUTAW7zdGm8ALEAAB9QTihORScfwoDhkAILmRAAIAN8JPpuggca2jOHqIo5o40D4CAhIIgIDpCewRNZgmDjk9OtL0tfGQCuABY9yGLCpck8FAA3HI2QPoGRAQkEAABExB4P/buWMTBYIACsP54WkHgolgGZZrD1fFZSKYWIEogpG+B5tqYDTCN/DjOtHwTbLM6t6zyj7b/0u7dEjGYAJuAAbbkBfL+cl8HxNsp/qmwc4ZBAgQGEHglkX8p/5vv/V4v3PGwAJuAAbenDdL674t0zr1pGCTVuk3zdI8LabvTg4CYRAg8JFAn9lf0jn1bXy9vqZj6i/291OnfD6SQYAAAQIECBAgQIAAAQIECBAgQIAAAQIECBAgQIAAAQIECBAgQIAAAQIECBAgQIAAAQIECBAgQIAAAQIECBAgQIAAAQIECBAgQIAAAQIECBAgQIAAAQIECBAgQIAAAQIECBAgQIAAAQIECBAgQIAAAQIECBAgQIAAAQIECBAgQIAAAQIECBAgQIAAAQIECBD4aoEnCLs4pUUytDwAAAAASUVORK5CYII=;" vertex="1" parent="vGxgYzopPI0-jjYZtrRY-1">
          <mxGeometry x="171" y="320" width="26" height="26" as="geometry" />
        </mxCell>
        <mxCell id="lgM6X2Wgu5EgirFdndeC-0" value="" style="group;fontFamily=Manrope;fontSource=https%3A%2F%2Ffonts.googleapis.com%2Fcss%3Ffamily%3DManrope;" vertex="1" connectable="0" parent="vGxgYzopPI0-jjYZtrRY-1">
          <mxGeometry x="113" y="338" width="30" height="30" as="geometry" />
        </mxCell>
        <mxCell id="lgM6X2Wgu5EgirFdndeC-1" value="" style="whiteSpace=wrap;html=1;aspect=fixed;fillColor=#001135;strokeColor=none;connectable=1;allowArrows=1;fontFamily=Manrope;fontSource=https%3A%2F%2Ffonts.googleapis.com%2Fcss%3Ffamily%3DManrope;" vertex="1" parent="lgM6X2Wgu5EgirFdndeC-0">
          <mxGeometry width="30" height="30" as="geometry" />
        </mxCell>
        <mxCell id="lgM6X2Wgu5EgirFdndeC-2" value="" style="endArrow=open;html=1;edgeStyle=orthogonalEdgeStyle;rounded=0;endFill=0;startSize=6;endSize=2;strokeColor=#FFFFFF;fontFamily=Manrope;fontSource=https%3A%2F%2Ffonts.googleapis.com%2Fcss%3Ffamily%3DManrope;" edge="1" parent="lgM6X2Wgu5EgirFdndeC-0">
          <mxGeometry width="50" height="50" relative="1" as="geometry">
            <mxPoint x="3" y="12" as="sourcePoint" />
            <mxPoint x="11" y="3" as="targetPoint" />
            <Array as="points">
              <mxPoint x="11" y="12" />
            </Array>
          </mxGeometry>
        </mxCell>
        <mxCell id="lgM6X2Wgu5EgirFdndeC-3" value="" style="endArrow=open;html=1;edgeStyle=orthogonalEdgeStyle;rounded=0;endFill=0;startSize=6;endSize=2;strokeColor=#FFFFFF;fontFamily=Manrope;fontSource=https%3A%2F%2Ffonts.googleapis.com%2Fcss%3Ffamily%3DManrope;" edge="1" parent="lgM6X2Wgu5EgirFdndeC-0">
          <mxGeometry width="50" height="50" relative="1" as="geometry">
            <mxPoint x="11" y="27" as="sourcePoint" />
            <mxPoint x="3" y="19" as="targetPoint" />
            <Array as="points">
              <mxPoint x="11" y="19" />
            </Array>
          </mxGeometry>
        </mxCell>
        <mxCell id="lgM6X2Wgu5EgirFdndeC-4" value="" style="endArrow=open;html=1;edgeStyle=orthogonalEdgeStyle;rounded=0;endFill=0;startSize=6;endSize=2;strokeColor=#FFFFFF;fontFamily=Manrope;fontSource=https%3A%2F%2Ffonts.googleapis.com%2Fcss%3Ffamily%3DManrope;" edge="1" parent="lgM6X2Wgu5EgirFdndeC-0">
          <mxGeometry width="50" height="50" relative="1" as="geometry">
            <mxPoint x="18" y="3" as="sourcePoint" />
            <mxPoint x="27" y="12" as="targetPoint" />
            <Array as="points">
              <mxPoint x="18" y="12" />
            </Array>
          </mxGeometry>
        </mxCell>
        <mxCell id="lgM6X2Wgu5EgirFdndeC-5" value="" style="endArrow=open;html=1;edgeStyle=orthogonalEdgeStyle;rounded=0;endFill=0;startSize=6;endSize=2;strokeColor=#FFFFFF;fontFamily=Manrope;fontSource=https%3A%2F%2Ffonts.googleapis.com%2Fcss%3Ffamily%3DManrope;" edge="1" parent="lgM6X2Wgu5EgirFdndeC-0">
          <mxGeometry width="50" height="50" relative="1" as="geometry">
            <mxPoint x="27" y="19" as="sourcePoint" />
            <mxPoint x="18" y="27" as="targetPoint" />
            <Array as="points">
              <mxPoint x="18" y="19" />
            </Array>
          </mxGeometry>
        </mxCell>
        <mxCell id="lgM6X2Wgu5EgirFdndeC-6" value="" style="shape=flexArrow;endArrow=classic;html=1;rounded=0;width=5.230769230769231;endSize=3.7015384615384614;endWidth=5.159763313609468;fillColor=#f5f5f5;strokeColor=#E6E6E6;" edge="1" parent="vGxgYzopPI0-jjYZtrRY-1">
          <mxGeometry width="50" height="50" relative="1" as="geometry">
            <mxPoint x="152" y="355" as="sourcePoint" />
            <mxPoint x="223" y="355" as="targetPoint" />
          </mxGeometry>
        </mxCell>
        <mxCell id="ZWm5xRMn8UFpy2FKnaba-0" value="&lt;font style=&quot;font-size: 10px&quot;&gt;logstash&lt;/font&gt;" style="text;html=1;align=center;verticalAlign=middle;resizable=0;points=[];autosize=1;fontSize=10;fontFamily=Google Sans;fontStyle=0;fontColor=#FFFFFF;connectable=0;fontSource=https%3A%2F%2Ffonts.googleapis.com%2Fcss%3Ffamily%3DGoogle%2BSans;" vertex="1" parent="vGxgYzopPI0-jjYZtrRY-1">
          <mxGeometry x="219" y="314" width="56" height="24" as="geometry" />
        </mxCell>
        <mxCell id="ZWm5xRMn8UFpy2FKnaba-1" value="" style="whiteSpace=wrap;html=1;aspect=fixed;fontFamily=Fira Code;fontSource=https%3A%2F%2Ffonts.googleapis.com%2Fcss%3Ffamily%3DFira%2BCode;fontSize=6;align=left;strokeColor=none;" vertex="1" parent="vGxgYzopPI0-jjYZtrRY-1">
          <mxGeometry x="231.5" y="336.32" width="30" height="30" as="geometry" />
        </mxCell>
        <mxCell id="ZWm5xRMn8UFpy2FKnaba-2" value="" style="shape=image;verticalLabelPosition=bottom;labelBackgroundColor=default;verticalAlign=top;aspect=fixed;imageAspect=0;image=data:image/svg+xml,PHN2ZyB4bWxucz0iaHR0cDovL3d3dy53My5vcmcvMjAwMC9zdmciIHZpZXdCb3g9IjAgMCAyNCAyNCIgcm9sZT0iaW1nIj48dGl0bGUvPjxwYXRoIGQ9Ik0xMi42IDcuMlYyNGMtNS4yIDAtMTAuOC00LTEwLjgtOS4zVjBoMy42YzMuOCAwIDcuMiAzLjQgNy4yIDcuMnptMi40IDZWMjRoNy4yVjEzLjJ6Ii8+PC9zdmc+;" vertex="1" parent="vGxgYzopPI0-jjYZtrRY-1">
          <mxGeometry x="234.50434782608687" y="339.31420289855066" width="24" height="24" as="geometry" />
        </mxCell>
        <mxCell id="Bm7YE4J269al0bmB11WP-0" value="&lt;font style=&quot;font-size: 9px;&quot; color=&quot;#ffffff&quot;&gt;raw syslog&lt;br style=&quot;font-size: 9px;&quot;&gt;&lt;/font&gt;" style="text;html=1;align=center;verticalAlign=middle;resizable=0;points=[];autosize=1;fontSize=9;fontFamily=Google Sans;fontColor=#001135;fontSource=https%3A%2F%2Ffonts.googleapis.com%2Fcss%3Ffamily%3DGoogle%2BSans;" vertex="1" parent="vGxgYzopPI0-jjYZtrRY-1">
          <mxGeometry x="153.5" y="354" width="61" height="23" as="geometry" />
        </mxCell>
        <mxCell id="Bm7YE4J269al0bmB11WP-2" value="" style="shape=flexArrow;endArrow=classic;html=1;rounded=0;width=5.230769230769231;endSize=3.7015384615384614;endWidth=5.159763313609468;fillColor=#f5f5f5;strokeColor=#E6E6E6;" edge="1" parent="vGxgYzopPI0-jjYZtrRY-1">
          <mxGeometry width="50" height="50" relative="1" as="geometry">
            <mxPoint x="271" y="355" as="sourcePoint" />
            <mxPoint x="342" y="355" as="targetPoint" />
          </mxGeometry>
        </mxCell>
        <mxCell id="Bm7YE4J269al0bmB11WP-3" value="&lt;font style=&quot;font-size: 9px;&quot; color=&quot;#ffffff&quot;&gt;JSON&lt;br style=&quot;font-size: 9px;&quot;&gt;&lt;/font&gt;" style="text;html=1;align=center;verticalAlign=middle;resizable=0;points=[];autosize=1;fontSize=9;fontFamily=Google Sans;fontColor=#001135;fontSource=https%3A%2F%2Ffonts.googleapis.com%2Fcss%3Ffamily%3DGoogle%2BSans;" vertex="1" parent="vGxgYzopPI0-jjYZtrRY-1">
          <mxGeometry x="282.5" y="354" width="42" height="23" as="geometry" />
        </mxCell>
        <mxCell id="Bm7YE4J269al0bmB11WP-4" value="" style="shape=image;verticalLabelPosition=bottom;labelBackgroundColor=default;verticalAlign=top;aspect=fixed;imageAspect=0;image=data:image/png,iVBORw0KGgoAAAANSUhEUgAAAgAAAAIACAYAAAD0eNT6AAAMa2lDQ1BJQ0MgUHJvZmlsZQAASImVVwdYU8kWnluSkJDQAghICb0jUgNICaEFkN5thCSQUGJMCCr2sqjg2kUUK7oqomBZaXbsyqLY+2JBRVkXdbGh8iYkoOu+8r3zfXPvnzNn/lPuTO49AGh+4Eok+agWAAXiQmlCeDAjLT2DQXoGEIABdeABfLk8mYQVFxcNoAze/y7vbkBrKFedFVz/nP+vosMXyHgAIGMhzuLLeAUQHwcAX8+TSAsBICr0lpMLJQo8G2JdKQwQ4lUKnKPEOxU4S4kPD9gkJbAhvgyAGpXLleYAoHEP6hlFvBzIo/EZYlcxXyQGQNMJ4gCekMuHWBG7U0HBRAWugNgO2ksghvEAZtZ3nDl/488a4udyc4awMq8BUQsRyST53Kn/Z2n+txTkywd92MBBFUojEhT5wxreypsYpcBUiLvFWTGxilpD/EHEV9YdAJQilEckK+1RY56MDesH9CF25XNDoiA2hjhMnB8TrdJnZYvCOBDD3YJOERVykiA2gHihQBaaqLLZLJ2YoPKF1mdL2SyV/hxXOuBX4euBPC+ZpeJ/IxRwVPyYRrEwKRViCsRWRaKUGIg1IHaR5SVGqWxGFQvZMYM2UnmCIn4riBME4vBgJT9WlC0NS1DZlxbIBvPFNgtFnBgV3l8oTIpQ1gc7xeMOxA9zwS4LxKzkQR6BLC16MBe+ICRUmTv2XCBOTlTxfJAUBico1+IUSX6cyh63EOSHK/QWEHvIihJVa/GUQrg5lfx4tqQwLkkZJ16cy42MU8aDLwPRgA1CAAPI4cgCE0EuELV1N3TDX8qZMMAFUpADBMBZpRlckTowI4bXRFAM/oBIAGRD64IHZgWgCOq/DGmVV2eQPTBbNLAiDzyFuABEgXz4Wz6wSjzkLQU8gRrRP7xz4eDBePPhUMz/e/2g9puGBTXRKo180CNDc9CSGEoMIUYQw4j2uBEegPvh0fAaBIcbzsR9BvP4Zk94SmgnPCJcJ3QQbk8QzZX+EOVo0AH5w1S1yPq+FrgN5PTEg3F/yA6ZcX3cCDjjHtAPCw+Enj2hlq2KW1EVxg/cf8vgu6ehsiO7klHyMHIQ2e7HlRoOGp5DLIpaf18fZaxZQ/VmD8386J/9XfX58B71oyW2EDuAncVOYOexw1gDYGDHsEasFTuiwEO768nA7hr0ljAQTx7kEf3D3+CTVVRS5lrj2uX6WTlXKJhSqDh47ImSqVJRjrCQwYJvBwGDI+a5ODHcXN3cAVC8a5R/X2/jB94hiH7rN9283wHwP9bf33/omy7yGAD7vOHxb/qms2MCoK0OwLkmnlxapNThigsB/ktowpNmCEyBJbCD+bgBL+AHgkAoiASxIAmkg/EweiHc51IwGUwHc0AJKAPLwGqwDmwCW8FOsAfsBw3gMDgBzoCL4DK4Du7C3dMJXoIe8A70IQhCQmgIHTFEzBBrxBFxQ5hIABKKRCMJSDqSieQgYkSOTEfmIWXICmQdsgWpRvYhTcgJ5DzSjtxGHiJdyBvkE4qhVFQXNUFt0BEoE2WhUWgSOg7NQSehxeh8dAlagVahu9F69AR6Eb2OdqAv0V4MYOqYPmaOOWNMjI3FYhlYNibFZmKlWDlWhdVizfA5X8U6sG7sI07E6TgDd4Y7OAJPxnn4JHwmvhhfh+/E6/FT+FX8Id6DfyXQCMYER4IvgUNII+QQJhNKCOWE7YSDhNPwLHUS3hGJRH2iLdEbnsV0Yi5xGnExcQOxjnic2E58TOwlkUiGJEeSPymWxCUVkkpIa0m7ScdIV0idpA9q6mpmam5qYWoZamK1uWrlarvUjqpdUXum1kfWIluTfcmxZD55KnkpeRu5mXyJ3Enuo2hTbCn+lCRKLmUOpYJSSzlNuUd5q66ubqHuox6vLlKfrV6hvlf9nPpD9Y9UHaoDlU0dS5VTl1B3UI9Tb1Pf0mg0G1oQLYNWSFtCq6adpD2gfdCga7hocDT4GrM0KjXqNa5ovNIka1prsjTHaxZrlmse0Lyk2a1F1rLRYmtxtWZqVWo1ad3U6tWma4/UjtUu0F6svUv7vPZzHZKOjU6oDl9nvs5WnZM6j+kY3ZLOpvPo8+jb6KfpnbpEXVtdjm6ubpnuHt023R49HT0PvRS9KXqVekf0OvQxfRt9jn6+/lL9/fo39D8NMxnGGiYYtmhY7bArw94bDDcIMhAYlBrUGVw3+GTIMAw1zDNcbthgeN8IN3IwijeabLTR6LRR93Dd4X7DecNLh+8ffscYNXYwTjCeZrzVuNW418TUJNxEYrLW5KRJt6m+aZBprukq06OmXWZ0swAzkdkqs2NmLxh6DBYjn1HBOMXoMTc2jzCXm28xbzPvs7C1SLaYa1Fncd+SYsm0zLZcZdli2WNlZjXaarpVjdUda7I101povcb6rPV7G1ubVJsFNg02z20NbDm2xbY1tvfsaHaBdpPsquyu2RPtmfZ59hvsLzugDp4OQodKh0uOqKOXo8hxg2O7E8HJx0nsVOV005nqzHIucq5xfuii7xLtMtelweXVCKsRGSOWjzg74qurp2u+6zbXuyN1RkaOnDuyeeQbNwc3nlul2zV3mnuY+yz3RvfXHo4eAo+NHrc86Z6jPRd4tnh+8fL2knrVenV5W3lneq/3vsnUZcYxFzPP+RB8gn1m+Rz2+ejr5Vvou9/3Tz9nvzy/XX7PR9mOEozaNuqxv4U/13+Lf0cAIyAzYHNAR6B5IDewKvBRkGUQP2h70DOWPSuXtZv1Ktg1WBp8MPg925c9g308BAsJDykNaQvVCU0OXRf6IMwiLCesJqwn3DN8WvjxCEJEVMTyiJscEw6PU83pifSOnBF5KooalRi1LupRtEO0NLp5NDo6cvTK0fdirGPEMQ2xIJYTuzL2fpxt3KS4Q/HE+Lj4yvinCSMTpiecTaQnTkjclfguKThpadLdZLtkeXJLimbK2JTqlPepIakrUjvSRqTNSLuYbpQuSm/MIGWkZGzP6B0TOmb1mM6xnmNLxt4YZztuyrjz443G548/MkFzAnfCgUxCZmrmrszP3FhuFbc3i5O1PquHx+at4b3kB/FX8bsE/oIVgmfZ/tkrsp/n+OeszOkSBgrLhd0itmid6HVuRO6m3Pd5sXk78vrzU/PrCtQKMguaxDriPPGpiaYTp0xslzhKSiQdk3wnrZ7UI42SbpchsnGyxkJd+FHfKreT/yR/WBRQVFn0YXLK5ANTtKeIp7ROdZi6aOqz4rDiX6bh03jTWqabT58z/eEM1owtM5GZWTNbZlnOmj+rc3b47J1zKHPy5vw213Xuirl/zUud1zzfZP7s+Y9/Cv+ppkSjRFpyc4Hfgk0L8YWihW2L3BetXfS1lF96ocy1rLzs82Le4gs/j/y54uf+JdlL2pZ6Ld24jLhMvOzG8sDlO1doryhe8Xjl6JX1qxirSlf9tXrC6vPlHuWb1lDWyNd0VERXNK61Wrts7ed1wnXXK4Mr69Ybr1+0/v0G/oYrG4M21m4y2VS26dNm0eZbW8K31FfZVJVvJW4t2vp0W8q2s78wf6nebrS9bPuXHeIdHTsTdp6q9q6u3mW8a2kNWiOv6do9dvflPSF7Gmuda7fU6deV7QV75Xtf7Mvcd2N/1P6WA8wDtb9a/7r+IP1gaT1SP7W+p0HY0NGY3tjeFNnU0uzXfPCQy6Edh80PVx7RO7L0KOXo/KP9x4qP9R6XHO8+kXPiccuElrsn005eOxV/qu101OlzZ8LOnDzLOnvsnP+5w+d9zzddYF5ouOh1sb7Vs/Xgb56/HWzzaqu/5H2p8bLP5eb2Ue1HrwReOXE15OqZa5xrF6/HXG+/kXzj1s2xNztu8W89v51/+/Wdojt9d2ffI9wrva91v/yB8YOq3+1/r+vw6jjyMORh66PER3cf8x6/fCJ78rlz/lPa0/JnZs+qn7s9P9wV1nX5xZgXnS8lL/u6S/7Q/mP9K7tXv/4Z9GdrT1pP52vp6/43i98avt3xl8dfLb1xvQ/eFbzre1/6wfDDzo/Mj2c/pX561jf5M+lzxRf7L81fo77e6y/o75dwpdyBTwEMDjQ7G4A3OwCgpQNAh30bZYyyFxwQRNm/DiDwn7CyXxwQLwBq4fd7fDf8urkJwN5tsP2C/JqwV42jAZDkA1B396GhElm2u5uSiwr7FMKD/v63sGcjrQTgy7L+/r6q/v4vW2GwsHc8Llb2oAohwp5hc8yXrIIs8G9E2Z9+l+OPd6CIwAP8eP8X4ySRDWNdyOAAAAA4ZVhJZk1NACoAAAAIAAGHaQAEAAAAAQAAABoAAAAAAAKgAgAEAAAAAQAAAgCgAwAEAAAAAQAAAgAAAAAAKDCXvwAAQABJREFUeAHtnQecHEeVuN/M7GzO2qScg+UcJCdZtrCxscFgDBiT4xn+R7g7jIE7ODjugCMcx2FyuIOzDzDGBhuDsy0HSbblHJTjKm7S5jzpXzVmxWq1YWa6uqe756uf5rcz01WvXn2vNfW6wisREgQgAAEIQAACEIAABCAAAQhAAAIQgAAEIAABCEAAAhCAAAQgAAEIQAACEIAABCAAAQhAAAIQgAAEIAABCEAAAhCAAAQgAAEIQAACEIAABCAAAQhAAAJuIRBwiyLoAQGTBB7esePEhITOqCouCOeFw/HCvPx8SUh5ICAhk/UgCwK5TiCeSEREAt2qM2lMJKKbl9bUHMx1Jl5pPw6AVyyFnhMSuH/rzvPjsegHo/H4ucPR2KxgIFA0rbwsr7q0RMJ59PcTguMCBOwhsDMRkLsSicQvl1VXv2RPFUg1QQAHwARFZDhK4NZEIlS5ZcfHhyKxD/dHhpcODUfCWoHKkmKZXVslJYWFjupDZRCAwAQEAvJAIhb8wtKaio0T5ODrLBLAAcgifKpOj8B92/ecHY8Mf62rf2D1cCSaN1I6LxSSObXVUldZPvIVfyEAAfcQiCck8OPivp5Pz549e8A9aqEJDgD3gOsJPLh521W9w9Hv9PQPzEuM0ba4MF+WzZ4h+coJIEEAAu4loDqblyMBuXJ5VVWje7XMLc1wAHLL3p5q7f2bt13RPxz9mer4Z4zt+HVDyooKZems6ZIXCnqqXSgLgRwmcDAeC128rLZ8Ww4zcE3TcQBcYwoUGSGwdtu2mt7B+B87+/vPVQuJRr4+5q9+8j9x7iwJqWX9JAhAwDsE1P/oxkQset6y2tpD3tHan5ry6ORPu3q2Vfe9vP3zzV0Dhzv6+ibs/EPBoCyZ0UDn71kro3guE1Au+9xgKO+WtYnE0XU8ucwjm23n8Smb9Kn7KIFb9+8vKu7oXdve23f20S8neLNoRr3UlJdOcJWvIQABbxAIfHZJdeU3vaGrP7XEAfCnXT3Vqoe2bVvZ1Rt5oHdocMpl/CWFBXLyvFmeah/KQgAC4xLojcaiS5bX1h4e9ypf2k6AKQDbEVPBZAQe2L7r6pau/g2pdP5azqya6snEcQ0CEPAOgdJwXt713lHXf5riAPjPpp5p0X2bt/1tS3vXbZFoLKU9fMUF+VJVWuyZ9qEoBCAwOQG1xvfD+9X03+S5uGoXARwAu8gid1IC927a9tXWrt4fxOLxlKeh6PwnRcpFCHiRQMVAcdkVXlTcDzrjAPjBih5rw32btv1LW3fPP6lDRNLSvLKkJK38ZIYABDxAIBC/1ANa+lJFtmH40qzubdS9W3d8vaWj+7Np9v2iDvhRgX8K3NswNIMABDIiEJDAuRkVpJBlAowAWEaIgFQJPLB151faOrpU55/ek7+WX1igzvsh6E+qqMkHAc8QSEhisfpNoC/KgsWAngXouVjlvZu3f6Wpo+vz6lSQjBKx/jPCRiEIeIBAoHBzd3elBxT1nYo4AL4zqfsapIf9W7t6Pp/Jk/9Ia4Iq+h8JAhDwJ4FAPF7mz5a5u1X8qrrbPp7XLrngL8Nh/9GNV/OEoz/yHgIQ8BGBvEAgpa3APmqyK5qCA+AKM/hTCd35t3b3fCnTYX9/UqFVEIAABNxBAAfAHXbwnRZ0/r4zKQ2CAAR8RgAHwGcGdUNz6PzdYAV0gAAEIDA5ARyAyflwNU0CdP5pAiM7BCAAgSwRwAHIEng/Vkvn70er0iYIQMCvBHAA/GpZh9tF5+8wcKqDAAQgYJEADoBFgBQXofPnLoAABCDgPQI4AN6zmas0pvN3lTlQBgIQgEDKBHAAUkZFxrEE6PzHEuEzBCAAAe8QwAHwjq1cpSmdv6vMgTIQgAAE0ibAccBpI6PAPZu3f7Olq+eGDA71Ax4EIAABCLiEACMALjGEV9TQnX9bsvPP8Fg/rzQUPSEAAQj4nAAOgM8NbLJ5dP4maSILAhCAQHYJ4ABkl79naqfz94ypUBQCEIBASgRwAFLClNuZ6Pxz2/60HgIQ8CcBHAB/2tVYq+j8jaFEEAQgAAFXEcABcJU53KUMnb+77IE2EIAABEwSwAEwSdNHsuj8fWRMmgIBCEBgHAI4AONAyfWv6Pxz/Q6g/RCAQC4QwAHIBSun0UY6/zRgkRUCEICAhwngAHjYeKZVp/M3TRR5EIAABNxLAAfAvbZxVDM6f0dxUxkEIACBrBPAAci6CbKvAJ1/9m2ABhCAAAScJoAD4DRxl9VH5+8yg6AOBCAAAYcI4AA4BNqN1dD5u9Eq6AQBCEDAGQI4AM5wdl0tdP6uMwkKQQACEHCUAA6Ao7jdURmdvzvsgBYQgAAEskkAByCb9LNQN51/FqBTJQQgAAEXEsABcKFR7FKJzt8ussiFAAQg4D0COADes1lGGtP5Z4SNQhCAAAR8SwAHwLem/WvD6Pz/yoJ3EIAABCDwKgEcAJ/fCXT+PjcwzYMABCCQIQEcgAzBeaEYnb8XrISOEIAABLJDAAcgO9xtr5XO33bEVAABCEDA0wRwADxtvvGVp/MfnwvfQgACEIDAXwngAPyVhS/e0fn7wow0AgIQgIDtBHAAbEfsXAV0/s6xpiYIQAACXieAA+B1C/5Ffzp/nxiSZkAAAhBwiAAOgEOg7ayGzt9OusiGAAQg4E8COAAetyudv8cNiPoQgAAEskQAByBL4E1US+dvgiIyIAABCOQmARwAj9o95zr/gEcNhdoQgAAEXEoAB8ClhplMrZzr/BWMvGBoMiRcgwAEIACBNAngAKQJLNvZc7Hz18zDeTgA2b73qB8CEPAXARwAD9kzVzt/baKigrCHLIWqEIAABNxPAAfA/TZKapjLnb8GUFZU5BFLoSYEIAABbxDAAfCAne7btO1f2rp6bkgkEh7Q1ryKxYX5ks8UgHmwSIQABHKaAA6Ay81/9yvb/qa1u/dLudr5a/PUlpe53EqoBwEIQMB7BHAAXGyzBzZtfVNnX/9P4jn65K9NEwwGpLYCB8DFtymqQQACHiWAA+BSw927c+ei9r7B26KxWE7vgJ9RXSl5IXYAuPQ2RS0IQMDDBHAAXGg8NdwfHOgZXDcUjea5UD3HVCoIh2X6tCrH6qMiCEAAArlEAAfAhda+e9P2O3sGButdqJpzKgUCsmhGnYTUXxIEIAABCJgngANgnqklifdu3XHNkZ7eN1gS4oPCCxtq1Na/Qh+0hCZAAAIQcCcBHAAX2eXWRCLU2zvwc8nhRX/aHHPrp6mFf+UusgyqQAACEPAfgZyeY3abOUu3bP+ftuHhnF3yHlTD/Qun18m08lK3mQZ9IAABCPiOAA6AS0z6582b53b09L3bJeo4roYe7l+gOv+ifEL+Og6fCiEAgZwkgAPgErMnosGbY7F4zk3J6A5/Zk211PDU75I7ETUgAIFcIYAD4AJL37t58/T2nv5VLlDFERUKw/lSWVoo08rKpKyYhX6OQKcSCEAAAmMI4ACMAZKNj9FY8BfRWHzS/W56fry8uEhKdFx8tT8+L6gGCyYtkY2WTFxnSOkbDgWlMD9f9HsSBCAAAQhklwAOQHb5y9o9ewqbWjsvGVcN1enXlpeoRXFlyc5fOwEkCEAAAhCAgAkCOAAmKFqQERuM/mMkGjsm1m1AdfR6JfwsFQWvkEVxFuhSFAIQgAAEJiKAAzARGYe+7xkc/ODoqsLq2Fu9Fa6ypHj017yHAAQgAAEIGCWAA2AUZ3rCHti0a05TV8eskVJ6QdySGQ2inQASBCAAAQhAwE4COAB20p1KdjD26cRf8pQWFsoJs2Ykj7+dqhjXIQABCEAAAlYJsBzbKkEL5fuHo5fp4sUF+bJsdgOdvwWWFIUABCAAgfQI4ACkx8to7oGh4QXBYEAWz2zgzHujZBEGAQhAAAJTEcABmIqQTdcf2bH33OFoNG/WtGrC39rEGLEQgAAEIDAxARyAidnYeiUaj75Fh8GdXl1haz0IhwAEIAABCIxHAAdgPCoOfDc8HD2zQXX+es8/CQIQgAAEIOA0ARwAp4n/pb5YIjGnRkX4I0EAAhCAAASyQQAHIBvUVZ3lRYUqND74s4SfaiEAAQjkPAF6oCzdAqUlRZVZqppqIQABCEAAAoIDkIWbIJFIBIry84j1mwX2VAkBCEAAAq8SwAHIwp2wubW1JBQIEu83C+ypEgIQgAAEXiWAA5CFO6GgqKiY1f9ZAE+VEIAABCBwlAAOwFEUzr2JRKMM/zuHm5ogAAEIQGAcAjgA40Cx+6tQIAB3uyEjHwIQgAAEJiVARzQpHi5CAAIQgAAE/EkAB8CfdqVVEIAABCAAgUkJ4ABMioeLEIAABCAAAX8SwAHwp11pFQQgAAEIQGBSAjgAk+LhIgQgAAEIQMCfBHAA/GlXWgUBCEAAAhCYlAAOwKR4uAgBCEAAAhDwJwEcAH/alVZBAAIQgAAEJiWAAzApHi5CAAIQgAAE/EkAB8CfdqVVEIAABCAAgUkJ4ABMioeLEIAABCAAAX8SwAHwp11pFQQgAAEIQGBSAjgAk+LhIgQgAAEIQMCfBHAA/GlXWgUBCEAAAhCYlAAOwKR4uAgBCEAAAhDwJ4E8fzaLVkHAGQJDvXHpao5I1+GIDPbGJDKYkHg8IcXlIamZXyC1CwokEHBGF2o5nkAiIXJk75C07B6Wge6oyhCQcGFAispCUl4floqGPClU70kQyEUCOAC5aHXanDGBeDQh+18ekP0v9cuhzYPS1RSZVFZJdUhOv7JKll1YKoEQnsCksAxe1B3/jsd75Nk7O6W3TXf8E6fyurBMP6FQZp9SJHNOLZJQmIHRiWlxxU8E+EXKgjW3d3YukHhiVxaqpsoMCfS0RuWV+7tk5xN9MtgTS1vKjBOL5JK/rZOCUjqXtOGlWSAyGJe1P26Vxuf70ywpUlAclAXnlMjJl1Wo0YFw2uUpkCGBYGDhksrK3RmWpliGBHAAMgRnpRgOgBV6zpbtbY/KM7d3JDv+REw9VlpI9YsK5PWfm66eMPlvZwHjpEW1je7+drMc2jQwab6pLuppm/krS2XFWytFjxCQbCaAA2Az4PHFMwUwPhe+zXECuiN56b4uee6OTokOWev4R1A27xxKOhNnX1s98hV/DRN4/q4uy52/VklPIex+qlcan+uTU19fKae9oQLHzbCtEJd9AoxHZt8GaOAyAvqp/65/Pywbf9thrPMfaeKmB7tFyyeZJzCkFmG+eHenUcGxSEI5gR3yx68elp6Wydd7GK0YYRBwgAAOgAOQqcI7BJq3D8rv//mQNO8YskVp3aHs2dhni+xcF7rnuX7jDtsI07Y9Q/L7Lx6SgxanFkbk8RcCbiCAA+AGK6CDKwjoRWN3f7NJ9JOknenQlkE7xees7MNbrM37TwVueCAu9/5ns+x6EgduKlZc9wYBHABv2AktbSZwcPOAPPSDFomqJ3S7E1MA9hDuO2Kv46a11ttA1/64RXZt7LWnEUiFgIMEcAAchE1V7iTQsntQ7v+vZtHD8yTvEgg49GumFwg++tM2YSTHu/cKmr9KwKH/MuCGgDsJ6D39D35PPfkbWumfSitLq9l8kwqndPMUVzkX0U87iw/9sEX6OuwfdUiXA/khkCoBHIBUSZHPdwT0k9wjP2uVvnZnf8RnLC/0HUs3NGjG8iJH1RjsjsnaH7Uktww6WjGVQcAQARwAQyAR4z0Cu1RUv/0v2rtwbCwVHQRowYrSsV/z2QCBeacXJ+P8GxCVsojD2wZly9qelPOTEQJuIoAD4CZroItjBPSK7qduOeJYfSMVnfjactHnA5DMEygoDcmpV1SaFzyFxGdua1cHDTk7ijSFSlyGQEoEcABSwkQmvxF45b5u6e9y9kdbhwI+6+oqv6F0VXtOvbJCZqsDfZxMQ31xeemeLierpC4IGCGAA2AEI0K8REAv+NMR+ZxMs04qkss+1UA4WZuhB4MBueRj9TLvrBKbazpW/OaHujM6JOpYKXyCgLMEcACc5U1tLiCwY0OPYz/WesX/BR+okcuur5eCEv67OWH+vALlBHy8Ti66rlbKHDrIRzuV29TxwyQIeIkA+5G8ZC10NUJgxzrzQVwCoYA0LC6Qsto8NcefJ8UVeVI7P19q5heIPlmO5CwBzXzx+aWy6LxSads7JG17htWUT1R0sKCeI1FpUiGfdVAfk0nfV9lYg2CyDcjKLQI4ALll75xvbW9bVFp2mYvzn18UTJ4Wd8JrynjCd+HdpR2BWuWE6dfopBeBbnu0R/TpgaZCP3ccjEj7/mGpnp0/uireQ8C1BHAAXGsaFLODgD7MRe//N5GqZuXL6/6hXkpr+G9kgqeTMrTjdvLrKmSxGiF48PstorfzmUj6/sIBMEESGU4QYFLSCcrU4RoChwwdGFM5PSxXfn46nb9rLJuZIoXlIXnd9Q0yba6Zp/ZD6kwJEgS8QgAHwCuWQk8jBNoahy3L0fP9l3xCLeor5r+PZZguEKAXDb5W2VMHabKaTNxfVnWgPARSJcAvWKqkyOd5AolYQrpbopbbsWRVqVTNDFuWgwD3ENCLN5dfXG5Zof7OmOj1BSQIeIEADoAXrISORgj0qpj/JlZ+L1UOAMl/BJZeYMauPQacTP/RpUVuJIAD4EaroJMtBIb7rT+Z5eUHpFZF9CP5j4Be1Fmk1gRYTUMG7jOrOlAeAqkQwAFIhRJ5fEEgMmjdAdB7/HW0OZI/CZROs76jw8R95k+6tMptBKzf7W5rEfpAYAICMbUGwGrS28f8nPQUyZ5n+qXx2X5pPzikIibGpbA0KBUz8kWftrfg7GK1WM6/DEzYN2Y4wJCf7zfall0COADZ5U/tEHANgQOvDMj6/z2iFkpGjtFJn3TXcSgie5/pk2duz5Nz3zNN5p1RfEwePkAAAt4j4F9X3nu2QGMIZI3AlrXdct+3m4/r/Mcq1NselQdvbJaX7ub0u7Fs+AwBrxHAAfCaxdAXAoYJ7H9pQDbc1C7xeGpTJDqS4sZb22X3032GNUEcBCDgJAEcACdpUxcEXEYgFonLul+2pdz5j6ivnQA9XcCe9xEi/IWA9wjgAHjPZmgMAWMEdm7ok151Ol4mabAnljxQJ5OylIEABLJPAAcg+zZAAwhkjcCeZ60N4+9RCwNJEICANwngAHjTbmgNASME2vdZOxvhiMXyRhqBEAhAICMCOAAZYaMQBPxBYKDbWnCk6FBC9IsEAQh4jwAOgPdshsYQMEYgbiA4EoFvjJkDQRBwlAAOgKO4qQwCEIAABCDgDgI4AO6wA1pAAAIQgAAEHCWAA+AobiqDAAQgAAEIuIMADoA77IAWEIAABCAAAUcJ4AA4ipvKIAABCEAAAu4ggAPgDjugBQQgAAEIQMBRAjgAjuKmMghAAAIQgIA7COAAuMMOaAGBrBDIyw9YqjegiuflWxJBYQhAIEsEcACyBJ5qIeAGAsVVeZbUKCgNSSjMz4gliBSGQJYI8D83S+CpFgJuIFC/uMCSGg1LCy2VpzAEIJA9AjgA2WNPzRDIOoGF55Ra0mHhymJL5SkMAQhkjwAOQPbYUzMEsk5g9slFUr8ks6f4aXPzZf5Kaw5E1gGgAARymAAOQA4bn6ZDQBN4zUdqpbA8lBaMcGFALrquTvQiQBIEIOBNAjgA3rQbWkPAGIHSmjx53afqpaQqNSdAOwuXX98g1bPCxnRAEAQg4DwBHADnmVMjBFxHoHZ+gbz5X2fK0gvLJBgc/7FeP+0vPq9Urv7yzIynDVzXcBSCQA4TsLYHKIfB0XQPEkh4UGcHVS5ST/arP1gjK95aJY0v9EvngYgM9ESlUG31q5wRljmnlaQ8SuCg2q6rKpHgRnOdUVBoXAI4AONi4Us/EhjoiltultXAOZYVcECAdgSWrS5zoCb3VRGyGBhJt2ioBwfAfZZFo/EIMAUwHhW+8yWBruaI5XblFYw/PG5ZMAJcQSBswL7dBu4zV8BACd8TwAHwvYlp4AiBfS/2j7zN+G9RJYNmGcPzQMGiitQWQk7WFD19QoKAFwjgAHjBSuhomUDL7kE5snfIspzyWhwAyxBdLKCs1vrOBj0CcOBlnAAXmxnV/kIAB4BbwfcE4tGEbLi5XUyszapSi+FI/iVQZWhr41O3tEt0mLUA/r1T/NEyHAB/2JFWTEBAd/rrfnlEWndbf/rXVdQtzixq3gTq8bXLCNQtKJhwG2Q6qrarHRSP/rRVEjGcgHS4kddZAjgAzvKmNgcJDPXG5IHvNsu2x3uM1FrREJZiA3PERpRBiC0EwoVB0SGOTaTdT/fJPf/RLAPdMRPikAEB4wSY0DSOFIHZJtB5KCK7nuqTTfd3yVC/9a1/I+2ZewYH34yw8PPfuacXS+seMyNGBzcPyC2f3i8nXVouC88ulerZZpwLP/Onbc4RwAFwjjU1GSYQjSRkv1pxvf/lAelti0p/p3p1xIx2+qNVXrCyZPRH3vuUwIKzS+SZ33cYa110KCEv3NWVfOUXBZPBlIqq8qR0Wp7MOqlI5p5WLGwvNYYbQWkQwAFIAxZZ3UNgx/peefp37dKnOnwnUs28AtHhckn+J6CnemacUCiHtgwab+zwQFz0q0ONUum0/bEe0YGXzry6Uk5YU268PgRCYDICrAGYjA7XXEdAL+pbf/MReUQtsHKq89cQ9BAuKXcInPTaCscaq9cI6IWqj/ysVeJxFg06Bp6KBAeAm8BTBJ6/s0M2P9jtqM76iXDROQz/Owo9y5XNUes99KiPk2nHul7ZeIu5qQcndacubxLAAfCm3XJS6/b9w/LcHZ2Ot33l26slECIEsOPgs1ihPvnw7GurHdfg5fu6pHm7+akHxxtChZ4ggAPgCTOhpCagO38TwXzSoalXhM9j9X86yHyTV68DWHSe8yM/z/7BeSfXN0ajIWkRwAFICxeZs0VAR1XbbyCWfzr6F6hjcFd9oCadIuT1GYHz3lUjxZXWzwdIB8uhbYOiY1iQIGA3ARwAuwkj3wiBjgPDorf9OZX0EPCa62oJ/OMUcJfWU1AalEs+US+hsHNTQDp6YFvjsEuJoJafCOAA+MmaPm5Lf5ezT0Snv7FSZp9a5GOikzdNn5+g11w07xxK/tWfczXVLyqQFW+rcrT5Op4FCQJ2EyAOgN2EkW+EgA7R6mTavbFPTr68QnTgllxKusN/5d4u0UfaxkaNuOgnYB205qTLKpJ75HOJSSwSl11P9jna5Fy77xyFS2VHCeAAHEXBGzcTKHP4GN7Ow68e5nLJJ+tFTwf4PcXVsLM+MXHrI93jLrTUzkDj8/3J15LVZXL+u6flTPS6x//H3GFSqd5HZXX8NKfKinyZE8itx5vMOVEyywTKavLE6aN49z7Xb+wgoSzjm7R6PeesD03asnb8zn9sYR297r7/alYjBObOWRhbh1s+Nz7bLzs29DqqTklVSKpmcWaAo9BztDIcgBw1vBebvfxi56PxPfXrdnXGgL/nY5+7s1P2vTiQ1i1xSB1ys/FWfwet0SvxH/tFW1pcTGRefnFFTow6mWCFDGsEcACs8aO0gwSWrSmT6llhB2uUZNz2Z2/3b0fX1x6TF/7UlRHTzQ/2iN6d4df0/B+7ZLDHWeevvD6s1lk47+j61Ya0a3ICOACT8+GqiwgEVTS+S/+uPnl4ipNqbVchWvURw35Mmx7qEj3/n0nSces3r+3JpKjry/So0yU3PeRsyOmC4mDy/s7Lz4FFJ66/A3JDQRyA3LCzb1pZVheWq740w9E47bqje1mtjPdb0lEVra5uP/hKelMHXmG46YFucXLro17f8iZ1X1fNdHaEyyv2QE97CLDU1B6uSLWRQKlaEPimL00XfSTw1od7pXXP4Lgr102qsFMtBFt5TbXowDB+SW17h6RXPelaSd3NkeR2QScD5VjRN5WyOuqkXuhod9K7S/SBQ3pXxbILS0WPcJEg4CQBHAAnaVOXMQLBYECWXlCWfA31xqXnSFT6O9RLLdhr3jUk+9SWNZPztzoK4Z7n+mSZ+rH2S9r9lPW97a+ezaCnEPzTee1TIaeH+s3ucCgoCcqc04qlfnGBCi2clwwvrHe2FJY5G2bYL/cu7TBDAAfADEekZJGAfiovKFXbpua+unVq2UVlybDBmx7okufUwSr6ic5E2quCA/nFAdAd9+6nrTsAeQUBCeb5Z1RE3yd7N/abuF2SMvTIyGlvqJRTVFApzYoEATcRwAFwkzXQxRiBPPXDe+oVlTJzeZHc95/NYiKU8OGtg8l54WCe93/ITQz/a2PVzi/w1ZY17Rgd2GzGAdBP93rRqn7qJ0HAjQT85bq7kTA6ZZWAnmO97PoGI09fehrAL4e0mBj+14adfYq/zkvQuz30lJLVpOfzL/5YHZ2/VZCUt5UADoCteBHuBgI1amrg9DeaOcylba8/9r3vURHuTKT5Z5WYEOMaGXpkxEQ6+fLynDszwQQ3ZDhLAAfAWd7UliUCOriKiQVXetW711Pr7iHpabHeDj38rwPX+Cn1tFrnouf69bw/CQJuJ4AD4HYLoZ8RAnpNwJzTrA9X690GXk/6pEMTaf6KYhNiXCWju9W6fWedXJxzp0i6yogokzIBHICUUZHR6wT0ue5W0/CA9flhqzpYLc/w/8QEI4PWd4zULeQgn4kJc8VNBFy1CyCRSAQfa2yeGwwFlwYSiXmJRLwikAiUq4AZeqLR+uObS8i39w6WVxdb74xc0hzPqKH3X1tN0QHrHYRVHayUZ/h/cnrRIev2La6wfp9NrqX/rqrfxK+ub2xyNvayvRgH1I6SvkQg0R0IBLvUk/aeSDyxffXc+sZAIOCap4is3qmP7W2dHpT4aySYWCNxWbF+X/NStXi2QOKv8gno4CLqn/X/kvZaOl3piYT3t5Gl22Y35A8ZiLGunFQ3NCVjHRj+nxydPhrZajJxn1nVwWvl1W/itQm//dInuy/dgSVU9yaiAz2qPm5w3d6m7apf26iauzaSCD68Zn5dU7bs5bgD8Fjj4eVBCbxH/Td7U0BiJyQbrv/P0Sdm6x6g3hwiYGz4f4W/Vv/n0C1AU7NLoFD1dacoFU5Rfz8cVoMB6xqbNqvPd4YS8ZvPnTdji5PqOeIAPLnjSHksP/I+1c+/RzVuhW4g/b2TZqYuCIgYHf5XhzKRIAABIwSWKynLY4HgPypn4Gk1YnBTXiT/pnMWT7N9SsRWB+CpAwemDcdCn4hK9JOqgWY2YhvhjRAI5B4Bhv9zz+a02HMEVqjQmiui+ZGvPd7Y9ItwLPC1cxbUN9vVClt2ATyzq71i3b7D34rE8hrVPP6X1CQInb9dFkQuBFIkwPB/iqDIBoHsEyhTo+SfjIYSO9c3Nn9dj6LboZJxB0B5LVcO5EVekUTg00phJgrtsBoyIZAmAYb/0wRGdgi4g0CpWhz5WTUisPXxxub3qkXIRmfPjTkAG/a3LFLzFw8r7f4YkMQsd7BDCwhAQBNg+J/7AAKeJjBd9av/u25f8wNqJ8FCUy0x4gCs29t8dTwef1optcaUYsiBAATMEWD43xxLJEEgWwTUA/bFahTg+cf3Nb3DhA6WHIC1e/YUqiH/70ogcbtShuDXJiyCDAgYJsDwv2GgiINAdgmUBRLy6/WNh2965tAhS/G4M3YAHjt8uDYcLHpceSR6hT8JAhBwKQGG/11qGNSCgAUCCRVPZyASXLv20KGaTMVk5ACs331obnA4+Liq9KxMK6YcBCDgDAGG/53hTC0QcJqAegBfGY4En8x0XUDaDsD6fU0nJULBDWpr31KnG0t9EIBAegQY/k+PF7kh4EECC9W6gEd135yu7mk5ANrLUGGNH1CVzEi3IvJDAALOE2D433nm1AiBLBCYmYjLw+t2H0zrwTxlB2D9zqY6FaLwHtWwhiw0jiohAIEMCDD8nwE0ikDAiwQCUiuh0N36kL1U1U/JAdCR/RJ58oCK5b84VcHkgwAEskug/UBEeloilpWonV8g5cT+t8wRARBwgMCCYCB2d6qRA6d0AHTkocHw8C/+coKRA/pTBQQgYIJAy84BE2Jk/gpLO42M6IAQCEAgZQKnqciB/5dK1MApDwNS8/5/p6p9c8pVG8g4PDgkTQeakq+OtnYZHhyW4eFhA5LdIaK8olTe9f6r3KEMWviWQF+HPoXceprP0b/WISJhUgL3/u5u6e7qnTSPly7m5+dLfmG+VNVUS8OshuQrv7DAySZcuWFf88dVhd+brNJJHYAN+w+vjMflG5MJMHVtz9bd8vwTz8m2l7ZI445GicdipkS7Tk79jDocANdZxX8KBdQeIauJ4X+rBCmfCoHH7n5Emg+1pJLVk3mCoZDMXTxXlp16gpx27hkyf+kC29uhpuy/9XjjoQ0XzJ3x7ESVTegA6Ch/8XjgV6pg/kSFrX4/NDAoj93ziDx+z2Pqaf+wVXGUhwAERhGomB4e9Smzt/NXMvyfGTlKQeCvBPQDrX7I1a97fvtnNSIwXS64/EJZrV4FRYV/zWj2XUEgEfj13Tt2nHLF4sVD44me0AHICxZ+ThVYNF4hq99FhiNy/+33yoN/uE/6evqsiqM8BCAwDoGGJYUSDAYkHlfPAhkkPYKwYEVpBiUpAgEITEZAP/D+7me3KGfgT3LJmy+T1159mYTzrTvsx9UZCCwpC5fdoL7/ynHX1BfjLgLUJ/sFJPDZ8QpY/W7Tsy/Lv3z0C3LnTb+n87cKk/IQmIRASVVIZp9aNEmOyS/NOaNYymonfEaYvDBXIQCBKQn0dvfKHf97u3z5b/9ZNj+3acr8mWRQjvw/qaOEx51zGNcBiCcSN6qKjI5LRKMxufWnv5Eb//k70nrYv3M9mRiIMhCwi8DKt1dLKJz+YoA8VWbFW6rtUgu5EIDAKAItB5vlu1/4thoV+K3EYtFRV4y8LVJHCf/XeJKOcwA27G0+TwX8uXy8zJl+16tWd377M19XQ/73K9GZDUdmWjflIJDLBCrVOoBV76uRdBYE6rznvW+aVM20YUgyl41B2yEwCQHdNz7w+3vlPz7zTTtGx6/Ui/rHVn+cAxAPJD4/NpOVz+2t7fLNT39Ndm3ZaUUMZSEAgQwJLLmgVC68rlbyCqYeCdB5dN6lF5RlWBvFIAABKwR2bd6R7DM7VN9pMqlF/cf17cc4AOv3tJymKjT29N/T2SPf+advscLfpBWRBYEMCCw+r1Te+pWZsuzCsnGnBHTHrx2Ft35tlui8JAhAIHsEDu87JP/x2W9Id0eXSSWu3LC35fTRAo9d4ROIf0ZdnPoxYbSECd4Pqi1+ek6jWQX0IUHADQRM3NixqHensMpUON8LPlgj575nmhzZMyR9XTGJDsSlYnq+TJuTn9IIgRvsaKcOme6YGK2T2nhBgoBlAnqt3I1f/I7c8M3PmdoqGIgH4p9Sir1nRLmjIwDJeP8BMRae7tffv1n27WocqYe/EMg6gXDh0ds9Y10GVKfp9aQX+NWrLYILVIS/JavLpH5xAZ3/X4za32ndvuEi6/eZ1+8x9DdDYN/ORrnpu78wI+xVKW/Rff2IwKN36kBe5O3qy8z3DI1IVH8fv/dRefLhDaO+4S0Esk/AhAMw2BOTfh84Adm3hvs0GFajIT1t1ldg5xUc/Vl1XyPRyHMEnn50o6y//3FTehcNhIbfMiLs6J2qtgm8d+RLK3/1nMVtP7/VigjKQsAWAkWVIcty9SaWvc/2W5aDAPcR2PfCgMQNTPEUG7jP3EcHjbJJ4Naf/Ea62juNqBAIjpkCWLfr0Bwl+TwT0m/96S0y0McPpAmWyDBLoKA4KEXl1p2AF//cKbGId9cCmKXqD2l67v/FP3VYboyeXimdduzSKstCEZDzBAb6B+T3v7jNDIeErF63r3WGFpYcAQiEAxer95aXruiVi8889pQZJZECARsImNjb3quGiZ/9gxlv3IYmIjIDAi/9uVvaD0QyKHlskcoZ4bRiLhxbmk8QmJjAkw9tkIN7D06cIfUrQRUffI3O/uoUQEKSH1IvP37OP/3mrozjjo8vkW8hYJZAw1IzAS5furtTNj/YbVY5pGWFwI71vfLM7Wb2XJu6v7ICgkpdTUAHCrpPHZtsIgWCiddoOUkHIC5Byw6Anp949vGnTeiGDAjYRmD6MiPrXFVES5H1Nx+Rx/6nTfTCQJL3CAz1x+WJXx2RR3/WmrSniRbMWG7m/jKhCzL8R2Djo09Jd6f1Bw/1+6VH/SVPHxKgFgDOsopq4yNPij7ykAQBNxNoWFIghWUhY532tkd7ZM/GPll4bonMOa1EyuvypLQ6j211LrwJosMJ6WuPSndrVPa/2C87n+iToV5zv1k6mNJMHAAXWt4/Kuk+duPaJ9UJgpdabdTc9bsPzc0LJuInJNIJFD5BtdoBIEHA7QSCoYAsPKdENj1g3YseaavePrbl4Z7ka+Q73RnUzi+QeWeWyLKLyiQv3/ISmxHR/E2RQCwSl+2P98nuZ/qkbfeQaDvZmearuAra7iQI2EngaTUKYMABkHg474Q8Nfy/TI0AWNK3r6dP9u/aZ0kGhSHgFAEd517P3+thfLtSdCghh7cOJl9618AFH6yVORaO5rVLT7/KPbRlMDm033vE+r7+VBktVUGVSBCwm0Djzr3S39svxaXF1qqKx5cGg4HEEmtSRLa/vIXFf1YhUt4xAtPm5susU5ybq9XR5R74r2bZ+kiPY23M5Yp2Pdkn93yrSZzs/HVkxemGFpjmsu1o+9QE4jE1svXS1qkzTpEjkEgsDSbUGSBT5Jvy8r6dPP1PCYkMriJw+hurHN2upfeZr7vpSHJEwFUgfKZMqzrj4NGft6r1SDYO74zD7MyrKsf5lq8gYA+BfQZG3NXU/5KgGv2fZlXFJg78sYqQ8g4TqF9UIIscPvUuoTqldb9sE/2XZJ6AntJ54v+OOB6kad5ZJTLzROdGlMyTQ6LXCLQcsn7InlqtMk1vA7Q8cdXW1OI1fugLATn72mopKE3uhHWMRufhiOx7acCx+nKpoqbtg9K8c8jRJutFf+e8o9rROqkMAi2HjPS55UYcgIG+QSwCAc8R0GGBV3+o1tGpAA1p3/OEyrbjZml8znmuq95fI2U1hP61w57InJiADg1sOSWkzIgDMGhCGcutQQAE0icw74xiOemyo6djpi8ggxIdh4YzKEWRqQh0HXaW67ILy2Sxw9NIUzHgem4QGOgz4AAEXnUA8q0ii0ad22pjVVfKQ2AsAT0VsEDt4XYqDfXZux/dqXa4rR4nuc4+uUjOf5/l5VNuQ4g+HiEQjVg/t0I1tdDZCVCPwEXN3CKg42Bd9JFa0T/qTiQdiZBknoBTXHW8/0s+US86qBQJAl4mgAPgZeuhuzECIXWM66V/Xy+LVEhfu1P1rLDdVeSk/MqZ9nPVU0aX39BAxL+cvMP812gcAP/ZlBZlSCCYF1AjAXVy5tVVoiJkZShl6mJzz7DfyZhaC//lmHemxchokyDRo0SnvaFCLv5EneQpZ5EEAT8QwAHwgxVpgzEC+of+jDdVyhWfbZBSG1Z316jzAdgzbsxcxwiqW1AoM04wc9zzaMHFlSG57PoGWfG2alsdw9F18h4CThDAAXCCMnV4jsD0ZYXytn+fJaddWSF6esBE0nIuUAvHDJy9ZUIdX8o47z01Ei40Yy89x3+y2iFyzTdmObY+xJdGoVGuJcAGVteaBsWyTUCf4LfirdWy/DUV8tI9nclY/vpI2UyS7vz1QkM9AkCyj0CVWgdw8d/Wy4PfbxYrtlqyqkxOfX2FlNXyE2mftZCcbQLc3dm2APW7nkBJdUjOfdc0OePNVbJnY6/s2NAnLTuGUj4Aq3J6WFZ/uFZ0+GGS/QRmq1MXr/z8dHUmQJu0708tNoAelaldUJDc17/g7BJxakeB/TSoAQITE8ABmJgNVyBwDIGC4qAsu6g8+dJny+vjflt2DkpnU1S6m4ZlsCcuw4NxdRCNSHFFKPm0P//MEll4drEE2DJ2DEu7P9TMK5Cr/22m7HmmT/Zu7Jfm3YMy0BWTgJr0DBcEpVCFgC5Xjlllfb7ULcyX6cuKHA8LbTcD5ENgKgI4AFMR4joExiGQXxSUuacXJ1/jXOYrFxDQT/U6wJOTQZ5c0GxUgEDKBFgEmDIqMkIAAhCAAAT8QwAHwD+2pCUQgAAEIACBlAngAKSMiowQgAAEIAAB/xDAAfCPLWkJBCAAAQhAIGUCOAApoyIjBCAAAQhAwD8EcAD8Y0taAgEIQAACEEiZAA5AyqjICAEIQAACEPAPARwA/9iSlkAAAhCAAARSJoADkDIqMkIAAhCAAAT8QwAHwD+2pCUQgAAEIACBlAngAKSMiowQgAAEIAAB/xDAAfCPLWkJBCAAAQhAIGUCOAApoyIjBCAAAQhAwD8EcAD8Y0taAgEIQAACEEiZAA5AyqjICAEIQAACEPAPARwA/9iSlkAAAhCAAARSJoADkDIqMkIAAhCAAAT8QwAHwD+2pCUQgAAEIACBlAngAKSMiowQgAAEIAAB/xDAAfCPLWkJBCAAAQhAIGUCOAApoyIjBCAAAQhAwD8EcAD8Y0taAgEIQAACEEiZAA5AyqjICAEIQAACEPAPARwA/9iSlkAAAhCAAARSJoADkDIqMkIAAhCAAAT8QwAHwD+2pCUQgAAEIACBlAngAKSMiowQgAAEIAAB/xDAAfCPLWkJBCAAAQhAIGUCOAApoyIjBCAAAQhAwD8EcAD8Y0taAgEIQAACEEiZAA5AyqjICAEIQAACEPAPARwA/9iSlkAAAhCAAARSJoADkDIqMkIAAhCAAAT8QyDPP02hJRCAAAQgAAGnCSRkaGhAIpF+icVikkjEJBDIk3A4X72K1KvAaYVSrg8HIGVUZIQABCAAAQj8lcDwcL/09XVIPB7765fJd1GJRgdlYKBbOQCFUlJSJaFQeEye7H9kCiD7NkADCEAAAhDwGIH+/k7p6Wkbp/M/tiGRyKB0dTUrh2Do2Asu+IQD4AIjoAIEIAABCHiHwOBgT/LpPlWNE4m4dHe3qimCSKpFHMmHA+AIZiqBAAQgAAE/ENDD/frpP92knYC+vvZ0i9maHwfAVrwIhwAEIAABPxEYGOhSC/0SGTUpEhlSiwXdMxWAA5CRGSkEAQhAAAK5SGB4eMBSsyMRa+UtVT6mMA7AGCB8hAAEIAABCIxHIB6PT7nob7xyo7+LRodHf8zqeyPbAE879wwZGpx8WGNwQG2J6O2XpgOHpV/9zeUUG0rI9qfaJS/o3v2huWwf2g4BCDhHIBofEv2b6IWk9/hbTfF41KoIY+WNOADv/9SH0lKo9XCLbH1hszy19inZuWmb8qi8Yfy0GjlJ5v6uqDz6w65JcnAJAhCAQO4Q0L+J3kj+6quMOADpGq52ep3o1wWXX5QcEbjnt3+Wpx7ekHOOQLrcyA8BCEAAAhAwRSDrawAaZk2XD1z/Yfnst78gM+bONNUu5EAAAhCAAAQgMAmBrDsAI7rNX7ZA/um7X5Sz15w78hV/IQABCEAAAhCwiYBrHADdvvyCfPngDX8jr736Mpuai1gIQAACEIAABDQBVzkAWqFAICBv+5trk+sD9GcSBCAAAQhAAALmCbjOARhp4rs+9m5ZuHzxyEf+QgACEIAABCBgkIBrHYBgKCQf+sx1yWkBg+1FFAQgAAEIQAACioBrHQBtnZr6Grn87a/HUBCAAAQgAAEIGCbgagdAt/WSqy6V0opSw81GHAQgAAEIQCC3CbjeASgoKpTzLrkgt61E6yEAAQhAAAKGCbjeAdDtPfdiYgMYtjviIAABCEAgxwl4wgGYOX+2VNVU5bipaD4EIAABCEDAHAFPOAC6uQuXLzLXaiRBAAIQgAAEcpyAZxyAhlkzctxUNB8CEIAABCBgjoBnHIDKaRXmWo0kCEAAAhCAQI4T8IwDUFhcnOOmovkQgAAEIAABcwQ84wCEQp5R1Zx1kAQBCEAAAhCwiQC9qk1gEQsBCEAAAhBwMwEcADdbB90gAAEIQAACNhHAAbAJLGIhAAEIQAACbiaAA+Bm66AbBCAAAQhAwCYCOAA2gUUsBCAAAQhAwM0EcADcbB10gwAEIAABCNhEAAfAJrCIhQAEIAABCLiZQJ6blUO37BConVkgJ55TKfWzC6WsMk8CoUB2FBlTa29nVNqbhmTL092yf0efJBJjMrjgY3l1WOadUCK1swqlZnqB5BcGpbAklLZm8VhCdHsP7RmQTU92SnvzcNoynC4QUvfJzIXFUj+nUPQ9VFYVPtr+4YG4DA/GpbcrIq2HhqT1wKCyYX/yO6f1TLe+ImW/5WdXJO1aUp4nMWWb9qZh2f58t+x+pdex+7CwOCRLzyyXBSeVSsW0sOh7pLMtIjte6JEdL/ZIdDiebtPIn+MEcABy/AYY3fzqhgK58oMzVefv7rDLF7+9QfZt75O7fn5QGrf2jW5CVt5PUx39mWuq5ZRVlVKnOn6T6Uwl7A3KJi882iF//uVB6W6PmBRvWVZxWUhOvaBKTlypOsjlpckOP1WhuiPdv71ftj3bLc890i4dLe5ycsL5Qbnk2gZZ9cZa0e/HpjVvrZeW/YNy588OJDvhsddNfQ4qx2r1VXWi69POyNi06spa6ToSkft+dVieefDI2Mt8hsCEBHAAJkSTWxf0U8V7/3GB6B90L6Q5S0rko/++WP7wo/2y8f7s/OjNWlQsF1/TkHw6DNg4SKJln35RlSw8tVR++W+75cDO/qybaMaCIrnoLfVykhopygtn1ng9YqBHS/Tr0ndNl10v9cgjf2iR7c91Z719evTiA/+8QLSNJ0t1apTsw19eJA/8+rA8+NumybJmdE0/9b/7s/Nlyellk5bXIwLXfHKOLDixVG77/r7k6MCkBbgIAUUAB4DbQPSP2Pu/sED0j42Xku5A3vKxOTLYF5OX1nc6pnpxWZ5c8b4ZsuK108TOjn9sg8pVp/TBLy2U712/LWtPy3q048oPzZQTVlQYbbvmuOjUsuRLTw38UT1VZ2t0J1wQlA9+cUFyOmOsDcb7rHXXDsxgf0zW3dU6XpaMvgsGA/KOT8+bsvMfLfysi6uTemh+JAhMReD4ca2pSnDdVwT0j9e1/zDXc53/iBG0/toJcGrkQj9h/cONy2Tlpc52/iPtLa3Ik2v+bu7IR8f+6mFoPRx+/feWyXI13K+525VmLy6Wv/3GEnmbeqLNhlN66Tump9z5j2bwejVVM1ONjJhKKy+bJiecVZ62OD0lsOiUyUcM0hZKAV8SwAHwpVlTb5Re3DTVMGfq0rKTs6g0JKuurLO98rNVp3/dVxYlF2DZXtkkFSw8uVTmK0fEqVRRE5aPfnWRXPrO6ZI3zly4HXpoB2PFJdOSztacpSV2VDGuTD26c94basa9NtWXekRKO2ehPOve0YjDNVWdE12/7N3TJ7rE9xA4SgAH4CiK3HyjF3D5IekFeHamC99cJ1erkQb9w+yGdKrN7R1po3YO//47y5IL/Ea+c/JvVV2+fPRri+XUVc7cpyedWzHugr9U2zx9flFyXUiq+SfKN395iegpn0yTdpq040aCwGQEcAAmo5MD1/RiOj8kvfp+vBXSJtqmn/yveP9MW4e909XTiadiPSevO98SNe2QzaQXGb7zhnly7hWZPZmno/vcZdb/P6x5W73lqQCr9tUjKFZlpMONvN4kgAPgTbsZ07qsKrs/7sYaogTpPfimk57zf/P/m+2qzl+30Y62jmY3e0mxvP/zC9La1je6vOn3ukO76iOzk9MCpmWPlldWaf0eMjEVoHchWE0VNvx/sKoT5d1FAAfAXfZwXJvIkAuj6WRIYXjIbCAUPR+sV2G7Zdh/NJaI4baOlq2D+HxI7TbQQYzclLQT8JaPzZalZ6S/MC7VdoQy3NI4Vr7VqYBwvvWpJqfWa4xtO5+9Q8Bd/8O9w803mna0DPmiLdFIwniQHL3VT++vdmNqtyloju403nnDfLWrwp0jQ9oZe6dyyvTaALen16ipAK8vsHU7Y/SzRgAHwBo/z5fe9lyP59ugG7BThUKNRc2NZugfbr3P361JR8+zI+lIkCa3stmho9718Y5PzXXdtMzYtmpnRW9lNLErYKxsPkPABAEcABMUPSzjmYeOJGObe7gJSdWfur/NaBN0hD895OzGpGPqP69CA5tOev/9OZfbv9DOhN467PBKFztoI22cPs/MroARefyFgEkCOAAmaXpQVps6mGXDn81FL8sGgl0v96oDc7qMVa2j3en4CG5ND/+uSXo6zJ4JoJ0dvc3RrU7PeLa4/H0zHQsANV79qX7HVECqpMjnNAEcAKeJu7C+u395KHmqmQtVm1IlfYDMr765Z8p86WTQB/u4tSPc9FSXrL2tOZ3mpJT3pHMrXT/0P7YhOvqjEwGgxtab7memAtIlRn6nCOAAOEXaxfXoufP//pddtgwr29lsHSv+BzdsV0fMRo1WY3dQoUyVfeKeNvm/r++x5fhZfdKcF9P5KuxtNsIFp8uKqYB0iZHfCQLuXOrrRMup4xgCEXWW+G++vVf0mgDdGej9727c/qaVPrirX9b/qVWefbjdeGeo99ebPtL3GNBpftDOmT7r/eFbm2TvFnuOPtbBoLy6Wl0HfzptdZU8ea/ZNSBpmiml7HoqYPPGLlec5piSwmTyPQEcAN+bOL0G7nihJ3m2uV5prTtCHZAkOMU4kY5/bnXP+B0/OSC9nZPPa/d0RqW9aSh59nl6rUo9tz6a1lRqahxIjqroaYp4LL0dCjGVv6cjKs37BmRowGx8g7HtO2ON+TC7fWpUZsvTXXJ476AaoYkktxUm11aog4Sq681u4TtDTdl4wQEYmQq48VPbjO5YGWtPPkMgVQI4AKmSyrF8A72xlI9j1afxWU1b1bY23blnO5l6+tfD9XcqpyYeT6/jd7r9eq3DKQbj7Pf3ROW+Xx2WjfeNv7tEH1N74jkV8noVWrlmRoGR5urwvTrufVfb5A6kkcosChmZCrj/14ctSqI4BKwTmOLZznoFSICAlwhUN1jvlJr3D8qdP3V/56/tUj+nSPQRwyaSbrd+un3i7rZJt5bqHRs6n3b6TCTtxCw82TvH37IrwITVkWGCAA6ACYrI8A2BwmLr/yVe2dCZ9pB/tgDqo4VNpO72iPz8izulvXk4JXGD/TG56d/3yL7tZtY1LDLUjpSUt5hpZCqAAEEWQVLcMgHrv3aWVUAABNxDIL/A+n+JIy6YykiVaMPcolSzTprv9u/vS3ttRlQtPP31fzQamQ9vUAF3vJRGpgK8pDO6+o+A9V87/zGhRTlMIGognHDFNLOL3Ow0R+0s61Me+7b1yZZnMhvO1+s+Nj5wxHIT9QFGbo3dMFHjmAqYiAzfO0UAB8Ap0tTjCQJ6aNpqWny6d+ajqw0cqvPCY9bCEr/4uLXy2l4FRSEpKjWzlsGq/VMtz1RAqqTIZxcBHAC7yCLXkwT0lj2rScdQOPcKb8TU1x2n1WQ1PkGjim+QMLBZwsT6Dass0i3PVEC6xMhvkgAOgEmayPI8gdaDZrYiXvWR2erEunmyRJ1dr4en9Up7q7ES7ICbX2T9J0AvALSSdMyDqWJApCLfhDOTSj2m8zAVYJoo8lIl4K0xs1RbRT4IZEhgv6FV6Xo++vSLqpKv0aroADmtBwfV6vd+2fWSCrr0Uq/oxXDZSiF1ZK3VpKNIWk2RIesyvLqqfmQqgABBVu8iyqdLAAcgXWLk9zUBPQLQdSQiFdPCtrSzRI0ElFSUij7OdvVVdaLXHLy0rlPW3dUqOnIgKTcJjEwFECAoN+2frVZbH//LlubUCwGbCGx6stMmyceL1QfZrLx0mvzDjcvkfZ9fYCw63vE18Y3bCTAV4HYL+U8/HAD/2ZQWWSSgDxlyOukpgxPPrpBPfe8EueTaBnX+gvWheafbQH3WCIxMBXh1KsNa6ymdDQI4ANmgTp2uJrB/R3/K5yCYbkheOEwLbHIAABxxSURBVCCXvnO6XPeVRcmDmEzLR567CYxMBbhbS7TzCwEcAL9YknYYJfCQOn43m2nBSaXysW8sFn2CHim3CKxRxwZPn++tyIa5ZSH/tBYHwD+2pCUGCWxVke22PZdZdDtTauiDif7f1xcbPz7XlH7IsYeA3pkxZ4m5Y6nt0RKpfiCAA+AHK9IGWwjcoY7zHR60vj3NinLlVWH58JcXSXEZG3ascKQsBCBwPAEcgOOZ8A0EkgSOHB6S2763L+s0amYUyLWfmuu5WPdZB4cCEIDApARwACbFw8VcJ/CCilOv9+hnOy07s1yFF67NthrUDwEI+IgADoCPjElT7CFw188PyHOPOL81cGxrXvee6ewMGAuFzxCAQMYEcAAyRkfBXCGgD6r57Xca5bE7WrLaZB006OJr6rOqA5VPTSAbcSSm1oocEDieAA7A8Uz4BgLHEdBOwJ/+56D84Uf7sxq7f+Vrp4leGEhyL4EtT3fJ849YP+LYvS1EM78QwAHwiyVphyMEnrinTb53w3Z1mE+fI/WNrSQvPyhnXVI99ms+u4zAHT/ZnzxTwmVqoQ4EjiGAA3AMDj5AYGoCh/cMyA+UE3DrdxtF7xRwOp1xEQ6A08zTrW+gLya//+H+dIuRHwKOEsABcBQ3lfmFgJ4SeOahdvnW/9siN399j2ze2CX6XHsnUt3sQpmmggSR3E2AqQB32wftRIguwl0AAQsE4vGEvLyhM/kqKArKghNfPeq3dmZBMoxvQVFIikrVqyRkoZbjiy48pVSONDk/+nC8JnwzGQE9FbDg5FLbjpeerG6uQWAqAjgAUxHi+qQE9Kl1uuOzmqLD2Y24Z1V/XX5oIC5bVAhh/RqbwmruXp/2d8UHZkhlTf7Yy2l/nrmwWJU5kna5sQVi0YRYPX1O704Y6I2NFZ3W56JS6z9FERfeQyNTAR/45wVp8SAzBJwgYP2X2wktqcO1BMqq80QfY2o1DQ1Y60Cs1m93ed056aBCP/zsDunviVquTo8wmEiD/da5V1h0aPILg1JoYIREO2BuTEwFuNEq6KQJ4ABwH1gisPjUMkvldeG4mjvPdsx9y41IUUBn67A8fqf1yIIV06yPImiVTTgAVu8BXT5g3YeUQbXwzq2JXQFutUxu64UDkNv2t9z6sy6eZlnGkaZh0YvqciXt3dJruakmpl20EkcOD1vW5YyLqkSfYJdpMnEP9XVFjTgzmbZhqnIjUwFT5eM6BJwkgAPgJG2f1bV8ZYXoc+utptaDg1ZFeKq8iSdVKx3uaFgm2E+bXiBnv65mtNiU389XiyaXq7URVpOJdljVYaryTAVMRYjrThPAAXCauE/qq67Pl7d9co6R1hzcNWBEjleE1M8tsqyqqTUTB3f1W9ZFC3iDWtw4e4lemJh60hEN33n9PCPD/wc8cg8xFZD6/UFO+wngANjP2Hc1zFhQJB/56mIpKbe+clvD2fVSj+8YTdQgPdd9ToZPy6Nl9ltcdT8ia+dL1qcjtCwdofBv/nWR6FGhVJJexHjdVxdJRY2ZsMZeuYeYCkjl7iCPUwTM/II7pS31ZJWA/rG+8M31cu7lNZa3jo00RD/JZius7ogOTv0NFwTlTdfNknknlFiusvWgmRgAelFi26EhqZlhfVeB3g74vs8vkOfWtsvDv2uS8XQsrcyTC95YJ6veWCt6a6SJpAMw7X7FjCNjQp+pZIxMBZyu1k6QIJBNAjgA2aTv0rr1/LKe26+fUyjl1eHkS0ef03vPTazWHt3sV57okmjE/SsA9ajHnKUlUlYZVh1XegveAgqa5rjk9DIpqTDzX65lv7l1E88/2iGvfUfDaLNk/F7fH2e+pjr5alY6Hto9IL1dESlW+/z1U//sJSXG76Ftz3aLfrL2UiJAkJes5V9dzfwa+ZdPTrVMP6GuvqpOVr+pLhm9zonGu/noVN2ZnbKqSi595/Rk5+UEj1Tr2GXwife5R9rlkmsbjHfM9cpp1C+7k5vvoYnaPjIVQICgiQjxvRMEcACcoOyBOqrq8kX/GDUYWKCWanMP7x2QXS+7c/5fz2lfoxY5nrbafcO0eu/+foOnEeoDjbY+0yUnrEht/j5V+zqRT09hbH6qy4mqjNfBVIBxpAhMk4CZSbg0KyW7uwgUl+XJdV9Z5Gjnrwk8fGuzK/f/6yf/t/+9Ozt/zU2fPaBD+JpMD/222aQ4x2Q9/Ltmxw5hsqNR7AqwgyoyUyWAA5AqKR/nu+bv5jh+utyBnf3y0voOV1I97/W1cqoa+ndr0qcQmk56IeYmjz1J60WGzzxk/TwE0yzTkTcyFZBOGfJCwBQBHABTJD0qZ+6ykpS3bplqoo7694cf73fl07+OS3/J280siDPFa7ScvVv6ZM8me1a83/nTA54KyXzXzw94YgHpaPuN935kKmC8a3wHATsJ4ADYSdcDss9YU+24lo/f2aLmsM0EoDGt/JLTy42t1Detm5Z3/68O2yE2KVPPp9978yHb5JsU/MyDR2SrWv3vl8RUgF8s6a124AB4y17GtV2ozip3MumO/56b3NvJLDrFWR7psH9xXYfstDlo0vo/tcorT3Smo5bjefXQ/50/O+B4vXZWyFSAnXSRPREBHICJyOTI9xXTzERiSwVX15GI3PyNPcYXsKVSd6p5TJ2yl2p9qebr6YjIH392MNXsGefT0zO/u3GfNDWaizOQsTLjFNRHKf/yK7vErUf/jqNyyl8xFZAyKjIaIoADYAgkYiYnoLeu/eLfdokeZnZzSrjwWEJ9XPJvvt0o2glwIumn0Z9/aad0tLjLVpHhuOr8d48bYdAUlyF1n1pNVo5YNjkVkCtHbFu1Vy6XxwHIZeurtne12d+p9KqjWn/6hZ3JqHBux93dbj+PdBhof+T3P9pv+9D/WJ00hx//0w5bO9uxdU72WTsl//2lXaIXQdqZTNjfyv8p3c471AJZE8ntzraJNiLDGgEcAGv8PF9618v2rCgfAaPjzP/gM9tFb/vzQjJ1OI6JturO/0//fVA23p+drW56BOBHn9ue9QWbnW1ajx2y26bdD6NtZdX+3WqUpuWAtekTvR3z+UesbZHVo0Z7t9j7f3s0N957kwAOgDftZkxrHQbWrvTi4x1y46e2iY4055W07bluFbs+mnV1o2q4+5b/3CuP/7Elq7poFj/87HZ55PbsBG3a8WJP8h5qanTmyGir9tcdt4lZpDt/tl+0M5Fp2vRkl/T3WJ/OyLR+ynmDAA6AN+xkm5aNW1UAGPVjYTL1dkZV59Uov/rWXrEyH2pSp1RlRYbi8uAtTalmtyWfXuX+vRu2iz6kxw1Jn7Z39/8ekl/86y450uSMM6c7r9//cL/8/Is7Rd9PTiUr9tc6r73NTETFZPt/kFmsDH241n02bhd1yhbUYz8BzgKwn7Hra7jt+/tk+rwlUt1g7UhYvejoiXvaVIjfJs+dzjbaSE/c3Sp6e+TJ51WO/tr29/qpf+3tLerVLPq925Led7/z41vlQnVg1AVvqhUdQtp00u3e+MAReUA5YX1ZGonJxP7xeEJ+/e296qnbnLOyeWOXPPqHZrno6vq0MN/5k/2WpyHSqpDMniVg/n+wZ1HkruJ93VH5iVqk9351lvv0+UVpg9BzxTo87YY/t4qW5fWkh3B/o0Yw9KrzMy6yP1CSdpx0p/fo75tFb5V0c9Id9EPKwdNTE+e8rkZWvHaakRP/9OK759a2y7o/tloa+jbBLl37Dw3EkiNe29X0kel0jxp5iauR/DVvrZ/ytEY9UnPHjw/IU1laM2K67ciznwAOgP2MPVGD7sS/r4adV72xVi58c92kT3f6B/LQ7n61Mr1X9N5lHZrWxLynm0Dpjk5PY+gFWZep44DrDB9rO9AbS56E+IqaftGBd7y2ZUvr+9gdLcnXrEXFcuLZFbLwlDKZvaRYQiF1mtIUSd8vel5fBzba+ky37FL3kn6KdktKxf56od2L6zrlvv87JO3N9myZ1Jx0dEbtXFz67umy4MTjA1VpbpqhDrDVvM/aAkS38EcPZwjgADjD2RO16CdePYf56B9aZP7yEjUtUCSllWHR86L6KUfPxbYeHJRWtbLfax1WpgZ4eX2n6Jc+Jlmfm1BeHZZw/tQd3Nj6hlSHqfeYd6g4CK0HhkTvjnBThzdW33Q+6x0eyV0eat45LxyQmhmFUjuzQMqqwlJQFJSikpCMtF+PEOk1Dvo+8kIwn/HsPzyk7Kg6fL1AUTtyTiS9A+LH/7hD9LHd85eXSkVNOOl0az32bO4VE9sXnWgHdbiLAA6Au+zhCm30k43eHmj3FkFXNDZFJfTTqlMr0VNUyZXZ9AI0P7JyS5v0SF1Hi307d1x5U6GUbQTYBWAbWgRDAAIQgAAE3EsAB8C9tkEzCEAAAhCAgG0EcABsQ4tgCEAAAhCAgHsJ4AC41zZoBgEIQAACELCNAA6AbWgRDAEIQAACEHAvARwA99oGzSAAAQhAAAK2EcABsA0tgiEAAQhAAALuJeAZByAa9X6IWffeBmgGAQhAAAK5RsAzDsBArzPHgebaDUB7IQABCEAgNwl4xgFob23LTQvRaghAAAIQgIANBDzjABxqPGRD8xEJAQhAAAIQyE0CnnAA4rG47Ni0IzctRKshAAEIQAACNhDwhAOwY9N2Gejrt6H5iIQABCAAAQjkJgFPOABPPLg+N61DqyEAAQhAAAI2EXC9A9DV3ilPP/qUTc1HLAQgAAEIQCA3CeS5vdl/vPkOiQxHsq5mIhGXaHRY4vGYJBIJS/rEQ3HZ3rLWkgwKQwACEPALgd6BIzIcszbNGwgEJBgMSV5evgQCrn+2dYXpXO0A7NqyU9bf/1hWQelOv7+/S3X+A6rjN6NKn7TLk93/Y0YYUiAAAQhA4CgB5QcoJ6BQiosrk87A0Qu8OY6Aax2Avp4++fnXf6yeuA31usc1feov+vs7ZWCge+qM5IAABCAAAVcQ0A9qkcigdHU1KSegQoqKKlyhlxuVcOU4iR7y/+G/3ihHWo5kjVlfXzudf9boUzEEIAAB6wT06G1fX4d1QT6V4DoHYGhgUH7w5Rtlxyvbs4Z8eLhfBgd7s1Y/FUMAAhCAgBkCg4M9on/TSccTcNUUQOvhFvnJV38o+3Y1Hq+pY98klMfY6VhtVAQBCEAAAvYS0NO54XCxWhxobz1ek+4KB0BH+nvsnkfkjl/eLv1ZDvgzPDyo1h1w8qDXbmT0hQAEIDARgVgsqhZyDyonoHCiLDn5fVYdgGgkKs+ue1ruvuVPcnifO2L9R6NDOXkj0GgIQAACfiYQiQzgAIwxsKMOQDwWk7bmNmncvkc2P79Znt/wrPT3umtuhqf/MXcIHyEAAQj4gEBM9T+kYwkYcQD+7eNfUrH6B46VPObT4MCADKo80ai7jWA1yM+YZvMRAhCAAARcQcDElnITiwjcs/beiANwRD3Vu+1JPtP7TUeSIkEAAhCAgL8ImPhtDwatd5mhkHscAPdo4pJ7TUeQIkEAAhCAgL8ImPht1+GGQ6F8S2BM6GFJgVGFcQBGwdBv8/ML1VYRE8M8YwTzEQIQgAAEskJAnw2Qn19kpO6CgmJLcqyWt1T5mMI4AGOA6BulsLB8zLd8hAAEIAABrxIoKioz9mBXWFiqDh3KrOssKNBlrU8jmLJDZq0wVbtL5ejY0eFwgUu1Qy0IQAACEEiVgP4tLyoy91CnHxJLS2vSDiqkO359QJGbEg7AONbQMwBlZbXqJCmcgHHw8BUEIAABTxDQgX/0b7mI2WldLfdVJyA1uaFQWCoq6jIeObALtnvGIuxqYYZytZdXXl4vQ0PdyUOB4vF4hpIoBgEIQAACThLQv996JLewUA/921Nzfn6x6tTD6rj4TnXWwETb4ANKj7KkLm5cW4YDMMm9oW8cvR6goKBMHS+pYxgMqzDBMSFWwCTQuAQBCEAgCwR0B6u3+umRW72Y2/RT/3hN0k/2eoQhFosoJ+DVMPKJRPwveuSrqeQiY2sPxqvf6nc4ACkQ1DeW9vb0iwQBCEAAAhAYTUA7AkVF4dFfeeI9awA8YSaUhAAEIAABCJglgANglifSIAABCEAAAp4ggAPgCTOhJAQgAAEIQMAsARwAszyRBgEIQAACEPAEARwAT5gJJSEAAQhAAAJmCeAAmOWJNAhAAAIQgIAnCOAAeMJMKAkBCEAAAhAwSwAHwCxPpEEAAhCAAAQ8QQAHwBNmQkkIQAACEICAWQI4AGZ5Ig0CEIAABCDgCQI4AJ4wE0pCAAIQgAAEzBLAATDLE2kQgAAEIAABTxDAAfCEmVASAhCAAAQgYJYADoBZnkiDAAQgAAEIeIIADoAnzISSEIAABCAAAbMEcADM8kQaBCAAAQhAwBMEcAA8YSaUhAAEIAABCJglgANglifSIAABCEAAAp4ggAPgCTOhJAQgAAEIQMAsARwAszyRBgEIQAACEPAEARwAT5gJJSEAAQhAAAJmCeAAmOWJNAhAAAIQgIAnCOAAeMJMKAkBCEAAAhAwSwAHwCxPpEEAAhCAAAQ8QQAHwBNmQkkIQAACEICAWQI4AGZ5Ig0CEIAABCDgCQI4AJ4wE0pCAAIQgAAEzBLAATDLE2kQgAAEIAABTxDAAfCEmVASAhCAAAQgYJYADoBZnkiDAAQgAAEIeIIADoAnzISSEIAABCAAAbMEcADM8kQaBCAAAQhAwBMEcAA8YSaUhAAEIAABCJglgANglifSIAABCEAAAp4ggAPgCTOhJAQgAAEIQMAsARwAszyRBgEIQAACEPAEARwAT5gJJSEAAQhAAAJmCeAAmOWJNAhAAAIQgIAnCOAAeMJMKAkBCEAAAhAwSwAHwCxPpEEAAhCAAAQ8QQAHwBNmQkkIQAACEICAWQLaARiyKjIvHLYqgvIQgAAEIAABCKRAIJyfn0KuKbMMagegZ8psU2QoLCqcIgeXIQABCEAAAhAwQaCo2Eif223EASguLTbRJmRAAAIQgAAEIDAFgaISI31uj3YAeqeoa8rLtdNrp8xDBghAAAIQgAAErBOonV5nXYgkkiMArVYlNcyaYVUE5SEAAQhAAAIQSIFAw+yGFHJNlSXQpkYAEtunyjbV9TmL5kyVhesQgAAEIAABCBggMHfRPOtSAoHtygEIbLMqafHJSyUY0rMJJAhAAAIQgAAE7CIQDIVk0UlLrIuPx7cGJZGw7AAUqwUJ8xbPt64QEiAAAQhAAAIQmJDA/KULpKi4aMLrqV4IBINqBCCW2JRqgcnyrVxzzmSXuQYBCEAAAhCAgEUCZxvqawOB0KbgqoUz9il99lrUSVasPltCoTyrYigPAQhAAAIQgMA4BPLyQnLW6pXjXEn7q13nza45mJy4TyRkbdrFxxQoqyyTlWvOHvMtHyEAAQhAAAIQMEHgnIvPl9LyUsuiAiIPaSGvrtwLBCw7AFrY699xJYsBNQgSBCAAAQhAwCABvdD+srdebkRiIiAPa0FJByAQCGpvIG5Vct2MejnvklVWxVAeAhCAAAQgAIFRBFZddqHUzzKx/19igeFXR/2TDsCqObWHVD2Pjqor47dv+dA1UlphfYgiYwUoCAEIQAACEPARAT3sf9V7rzbVoofOX9TQooW9OgWg3gQCiZtMSC8pK5F3fPRdJkQhAwIQgAAEIJDzBN75sfcae7AOSODmEaBHHYDhwtBt6kvL5wJowSsuOkcueN3qkTr4CwEIQAACEIBABgQufP0atfJ/RQYlxy3SN1wUuGPkylEHYE1dner8A7ePXLD69+0ffbcsXL7YqhjKQwACEIAABHKSwGIV8e+a695hrO2BgPz21b7+VZFHHQD9MZSIfUP9sbwYUMvKLwjLJ/7172XW/Dn6IwkCEIAABCAAgRQJzJg7Uz72pb+TcH44xRJTZosnEon/HJ3rGAfg3HkztkggcXR4YHTGTN7rEMF//7XrZc6iuZkUpwwEIAABCEAg5wjMXTxXPvX1z0hxabHJtv9u1dzpx0T+PcYB0DXF44mvqj8JU7WWV5bL9d/4rCw/40RTIpEDAQhAAAIQ8CWBE886WfWZnxPddxpMiUQs8O9j5amAQMendY2H1YLAwFuOv5L5N/FYXP58yx/lz7+5S/R7EgQgAAEIQAACrxLQgX6ufNeb5PK3q4B6wXG7ZiuofrtqbsO1YwWMW8ujBw/ODkVDm1Vm4xv6d23ZKb/63s1yYM++sbrwGQIQgAAEIJBzBOYsnCvv/Ph7ZMGyhXa0vScYzDtBx/4fK3xcB0BnWt94+DMJCehFgcZTPBaTx+55VO757Z+ko63DuHwEQgACEIAABNxOoKq2Wi6/5vWy+vKLbAujHwgErj9/Tv0xi/9GuEzoADzzTCI8WNv8nMp40khm03+j0Zg88eB6WXffo7Jn627T4pEHAQhAAAIQcB0B/aS/SsXK0Yf76BP+bEsJeSkyt/7MNYFAdLw6JnQAdOYN+5tOjsflKfW2aLzCJr9rOtAkLz7xnGx5YYvs3LRdhoeGTYpHFgQgAAEIQCArBPILC2TxiUtk2anL5LRzzzAV03+qtvSr9fwrx678H11oUgdAZ1y3t+nDEpCfjS5k93u9SPBIS5s0H2yWjtYjMjgwmHwND0Xsrhr5EIAABCAAgYwJ6Bg4hUWFyVdV7TRpUAf4VKu/epGfk0mF9//g+XOm/2KyOqd0AHRhtR7gJrUe4D2TCeIaBCAAAQhAAALZJ5BIyC0XzGuYMoRgSi5JIBj9iGrS+uw3Cw0gAAEIQAACEJiQQEKe6i+UD094fdSFlEYAdP6nDhyYFonlPabeLh9VnrcQgAAEIAABCLiDwOZgMHLBebNnt6eiTsoOgBa2YX/bzHg8qkcCiO2bCl3yQAACEIAABJwhcDAQi59//oIZjalWl9IUwIgwHUggGAxeoj6zZ28ECn8hAAEIQAAC2SWwW/XNF6XT+Wt103IAdIHzZtftjMSD56vtBc/rzyQIQAACEIAABLJG4BUV6W+17pvT1SBtB0BXsGZ+XVNhtGCN2h74SLoVkh8CEIAABCAAASMEHs4bDp8/XpjfVKRn5ABowWctrO6KzK5/bUISX1YfOd0nFdrkgQAEIAABCFgnoHb6yY2FrfWvO2fxtO5MxaW1CHCiSh5rbLpYeRK/UtfrJ8rD9xCAAAQgAAEIWCbQJonEe1fNm36PVUkZjwCMrnj13IaH1BzEmWpK4A+jv+c9BCAAAQhAAAKmCCRul0DoVBOdv9bIyAjA6Kb9ZTTg++q7ZaO/5z0EIAABCEAAAhkR2KWe+j+pOv67Myo9QSEjIwCjZb86GhA5Q7kWn1fft42+xnsIQAACEIAABFIkkJBWtc7uc5H4wEmmO3+tgfERgNHNuq+pqaR4SD6sKrlBfT9z9DXeQwACEIAABCAwLoEW1fH/KDyc/59WFvmNK3nUl7Y6ACP1rN2zpzAvWPy2gCT0gUKvUS8bD0AeqZW/EIAABCAAAc8QiClNHwpI4Oau4e7fXbF48ZDdmjviAIxuRDKccCzyTgkE3qS+P1u98kZf5z0EIAABCEAgRwjoM+43SiJwhwSDv141p/aQk+123AEY3bi1LS2l4f7Y6kBQXqM2Na5UEJapSYna0Xl4DwEIQAACEPAJgRY1875VAvGNKnrOw5Hi0ONr6up6s9W2rDoA4zX68cbGqkC8YGkiJPOVQ1CmYgxV6b/BgJSq/EXjleE7CEAAAhCAgEsIDKgH2Z54IqE69mCHBBI96vNuiQ9tv2Du3A6X6JhU4/8DdwqZdy/x+qoAAAAASUVORK5CYII=;" vertex="1" parent="vGxgYzopPI0-jjYZtrRY-1">
          <mxGeometry x="290" y="320.61" width="24.39" height="24.39" as="geometry" />
        </mxCell>
        <mxCell id="cabZouzCv67FPKRutIHt-0" value="&lt;font style=&quot;font-size: 10px&quot;&gt;elastic&lt;/font&gt;" style="text;html=1;align=center;verticalAlign=middle;resizable=0;points=[];autosize=1;fontSize=10;fontFamily=Google Sans;fontStyle=0;fontColor=#FFFFFF;connectable=0;fontSource=https%3A%2F%2Ffonts.googleapis.com%2Fcss%3Ffamily%3DGoogle%2BSans;" vertex="1" parent="vGxgYzopPI0-jjYZtrRY-1">
          <mxGeometry x="342" y="315.68" width="47" height="24" as="geometry" />
        </mxCell>
        <mxCell id="cabZouzCv67FPKRutIHt-1" value="" style="whiteSpace=wrap;html=1;aspect=fixed;fontFamily=Fira Code;fontSource=https%3A%2F%2Ffonts.googleapis.com%2Fcss%3Ffamily%3DFira%2BCode;fontSize=6;align=left;strokeColor=none;" vertex="1" parent="vGxgYzopPI0-jjYZtrRY-1">
          <mxGeometry x="350" y="338" width="30" height="30" as="geometry" />
        </mxCell>
        <mxCell id="cabZouzCv67FPKRutIHt-2" value="" style="shape=image;verticalLabelPosition=bottom;labelBackgroundColor=default;verticalAlign=top;aspect=fixed;imageAspect=0;image=data:image/svg+xml,PHN2ZyB4bWxucz0iaHR0cDovL3d3dy53My5vcmcvMjAwMC9zdmciIHZpZXdCb3g9IjAgMCAyNCAyNCIgcm9sZT0iaW1nIj48dGl0bGUvPjxwYXRoIGQ9Ik0xMS4yNyAxNS41OEgxLjYxQTExLjgxIDExLjgxIDAgMCAxIDEuMDcgMTJjMC0xLjI1LjE4LTIuNDUuNTQtMy41OGgxNS44NkEzLjU3IDMuNTcgMCAwIDEgMjEuMDUgMTJhMy41NiAzLjU2IDAgMCAxLTMuNTUgMy41OHptLS40NSAxLjJIMi4wNWExMS44IDExLjggMCAwIDAgNC4zOSA1LjE4QTExLjggMTEuOCAwIDAgMCAxMyAyMy45M2M0LjE1IDAgNy43OC0yLjEyIDkuOTMtNS4zYTYuMDggNi4wOCAwIDAgMC00LjM1LTEuODZ6bTcuNzYtOS41NWMxLjcgMCAzLjI1LS43MiA0LjM1LTEuODVBMTEuOTYgMTEuOTYgMCAwIDAgMi4wNSA3LjIzaDguNzR6Ii8+PC9zdmc+;" vertex="1" parent="vGxgYzopPI0-jjYZtrRY-1">
          <mxGeometry x="353.0015942028985" y="340.99913043478256" width="24" height="24" as="geometry" />
        </mxCell>
        <mxCell id="y9ZRfnCny7Zxgp-LCBcJ-0" value="&lt;font style=&quot;font-size: 9px;&quot;&gt;parse syslog &lt;br&gt;messages&lt;br style=&quot;font-size: 9px;&quot;&gt;&lt;/font&gt;" style="text;html=1;align=center;verticalAlign=middle;resizable=0;points=[];autosize=1;fontSize=9;fontFamily=Google Sans;fontColor=#00c9ff;fontSource=https%3A%2F%2Ffonts.googleapis.com%2Fcss%3Ffamily%3DGoogle%2BSans;" vertex="1" parent="vGxgYzopPI0-jjYZtrRY-1">
          <mxGeometry x="212" y="383" width="69" height="34" as="geometry" />
        </mxCell>
        <mxCell id="y9ZRfnCny7Zxgp-LCBcJ-1" value="" style="endArrow=none;dashed=1;html=1;rounded=0;strokeColor=#E6E6E6;fontSize=9;fontColor=#00c9ff;exitX=0.493;exitY=0.206;exitDx=0;exitDy=0;exitPerimeter=0;strokeWidth=1;dashPattern=1 1;" edge="1" parent="vGxgYzopPI0-jjYZtrRY-1" source="y9ZRfnCny7Zxgp-LCBcJ-0">
          <mxGeometry width="50" height="50" relative="1" as="geometry">
            <mxPoint x="222" y="433" as="sourcePoint" />
            <mxPoint x="246" y="371" as="targetPoint" />
          </mxGeometry>
        </mxCell>
        <mxCell id="y9ZRfnCny7Zxgp-LCBcJ-2" value="&lt;font style=&quot;font-size: 9px;&quot;&gt;index and store&lt;br style=&quot;font-size: 9px;&quot;&gt;&lt;/font&gt;" style="text;html=1;align=center;verticalAlign=middle;resizable=0;points=[];autosize=1;fontSize=9;fontFamily=Google Sans;fontColor=#00c9ff;fontSource=https%3A%2F%2Ffonts.googleapis.com%2Fcss%3Ffamily%3DGoogle%2BSans;" vertex="1" parent="vGxgYzopPI0-jjYZtrRY-1">
          <mxGeometry x="326" y="389" width="80" height="23" as="geometry" />
        </mxCell>
        <mxCell id="y9ZRfnCny7Zxgp-LCBcJ-3" value="" style="endArrow=none;dashed=1;html=1;rounded=0;strokeColor=#E6E6E6;fontSize=9;fontColor=#00c9ff;exitX=0.493;exitY=0.206;exitDx=0;exitDy=0;exitPerimeter=0;dashPattern=1 1;" edge="1" parent="vGxgYzopPI0-jjYZtrRY-1" source="y9ZRfnCny7Zxgp-LCBcJ-2">
          <mxGeometry width="50" height="50" relative="1" as="geometry">
            <mxPoint x="341" y="433" as="sourcePoint" />
            <mxPoint x="365" y="371" as="targetPoint" />
          </mxGeometry>
        </mxCell>
        <mxCell id="L1H3oKAv745Cl6AILQeg-0" value="&lt;font style=&quot;font-size: 10px&quot;&gt;kibana&lt;/font&gt;" style="text;html=1;align=center;verticalAlign=middle;resizable=0;points=[];autosize=1;fontSize=10;fontFamily=Google Sans;fontStyle=0;fontColor=#FFFFFF;connectable=0;fontSource=https%3A%2F%2Ffonts.googleapis.com%2Fcss%3Ffamily%3DGoogle%2BSans;" vertex="1" parent="vGxgYzopPI0-jjYZtrRY-1">
          <mxGeometry x="443.00000000000006" y="315.68" width="48" height="24" as="geometry" />
        </mxCell>
        <mxCell id="L1H3oKAv745Cl6AILQeg-1" value="" style="whiteSpace=wrap;html=1;aspect=fixed;fontFamily=Fira Code;fontSource=https%3A%2F%2Ffonts.googleapis.com%2Fcss%3Ffamily%3DFira%2BCode;fontSize=6;align=left;strokeColor=none;" vertex="1" parent="vGxgYzopPI0-jjYZtrRY-1">
          <mxGeometry x="451.5" y="338" width="30" height="30" as="geometry" />
        </mxCell>
        <mxCell id="L1H3oKAv745Cl6AILQeg-2" value="" style="shape=image;verticalLabelPosition=bottom;labelBackgroundColor=default;verticalAlign=top;aspect=fixed;imageAspect=0;image=data:image/svg+xml,PHN2ZyB4bWxucz0iaHR0cDovL3d3dy53My5vcmcvMjAwMC9zdmciIHZpZXdCb3g9IjAgMCAyNCAyNCIgcm9sZT0iaW1nIj48dGl0bGUvPjxwYXRoIGQ9Ik0yMS4wNCAyMy45OUg0LjE4bDkuODgtMTEuODZjNC4yMyAyLjc2IDYuOTggNy4wNCA2Ljk4IDExLjg2em0wLTIzLjk1SDMuMDh2MjEuNTV6Ii8+PC9zdmc+;" vertex="1" parent="vGxgYzopPI0-jjYZtrRY-1">
          <mxGeometry x="454.4957971014493" y="340.99057971014486" width="24" height="24" as="geometry" />
        </mxCell>
        <mxCell id="L1H3oKAv745Cl6AILQeg-3" value="" style="shape=flexArrow;endArrow=classic;html=1;rounded=0;width=5.230769230769231;endSize=3.7015384615384614;endWidth=5.159763313609468;fillColor=#f5f5f5;strokeColor=#E6E6E6;" edge="1" parent="vGxgYzopPI0-jjYZtrRY-1">
          <mxGeometry width="50" height="50" relative="1" as="geometry">
            <mxPoint x="443.5" y="354" as="sourcePoint" />
            <mxPoint x="384" y="353.89" as="targetPoint" />
          </mxGeometry>
        </mxCell>
        <mxCell id="L1H3oKAv745Cl6AILQeg-4" value="&lt;font style=&quot;font-size: 9px;&quot;&gt;access and visualize&lt;br style=&quot;font-size: 9px;&quot;&gt;&lt;/font&gt;" style="text;html=1;align=center;verticalAlign=middle;resizable=0;points=[];autosize=1;fontSize=9;fontFamily=Google Sans;fontColor=#00c9ff;fontSource=https%3A%2F%2Ffonts.googleapis.com%2Fcss%3Ffamily%3DGoogle%2BSans;" vertex="1" parent="vGxgYzopPI0-jjYZtrRY-1">
          <mxGeometry x="418" y="389" width="100" height="23" as="geometry" />
        </mxCell>
        <mxCell id="L1H3oKAv745Cl6AILQeg-5" value="" style="endArrow=none;dashed=1;html=1;rounded=0;strokeColor=#E6E6E6;fontSize=9;fontColor=#00c9ff;exitX=0.493;exitY=0.206;exitDx=0;exitDy=0;exitPerimeter=0;dashPattern=1 1;" edge="1" parent="vGxgYzopPI0-jjYZtrRY-1" source="L1H3oKAv745Cl6AILQeg-4">
          <mxGeometry width="50" height="50" relative="1" as="geometry">
            <mxPoint x="443" y="433" as="sourcePoint" />
            <mxPoint x="467" y="370.9999999999999" as="targetPoint" />
          </mxGeometry>
        </mxCell>
        <mxCell id="L1H3oKAv745Cl6AILQeg-6" value="&lt;font style=&quot;font-size: 9px;&quot; color=&quot;#ffffff&quot;&gt;API&lt;br style=&quot;font-size: 9px;&quot;&gt;&lt;/font&gt;" style="text;html=1;align=center;verticalAlign=middle;resizable=0;points=[];autosize=1;fontSize=9;fontFamily=Google Sans;fontColor=#001135;fontSource=https%3A%2F%2Ffonts.googleapis.com%2Fcss%3Ffamily%3DGoogle%2BSans;" vertex="1" parent="vGxgYzopPI0-jjYZtrRY-1">
          <mxGeometry x="404" y="354" width="31" height="23" as="geometry" />
        </mxCell>
        <mxCell id="8b-U99Goiy0xldjMgUPv-0" value="1" style="ellipse;whiteSpace=wrap;html=1;aspect=fixed;fontColor=#FFFFFF;fontSize=6;strokeColor=#98A2AE;fontFamily=Manrope;fontSource=https%3A%2F%2Ffonts.googleapis.com%2Fcss%3Ffamily%3DManrope;fillColor=#BEC8D2;" vertex="1" parent="vGxgYzopPI0-jjYZtrRY-1">
          <mxGeometry x="242" y="377" width="8" height="8" as="geometry" />
        </mxCell>
        <mxCell id="8b-U99Goiy0xldjMgUPv-2" value="2" style="ellipse;whiteSpace=wrap;html=1;aspect=fixed;fontColor=#FFFFFF;fontSize=6;strokeColor=#98A2AE;fontFamily=Manrope;fontSource=https%3A%2F%2Ffonts.googleapis.com%2Fcss%3Ffamily%3DManrope;fillColor=#BEC8D2;" vertex="1" parent="vGxgYzopPI0-jjYZtrRY-1">
          <mxGeometry x="361.5" y="377" width="8" height="8" as="geometry" />
        </mxCell>
        <mxCell id="8b-U99Goiy0xldjMgUPv-3" value="3" style="ellipse;whiteSpace=wrap;html=1;aspect=fixed;fontColor=#FFFFFF;fontSize=6;strokeColor=#98A2AE;fontFamily=Manrope;fontSource=https%3A%2F%2Ffonts.googleapis.com%2Fcss%3Ffamily%3DManrope;fillColor=#BEC8D2;" vertex="1" parent="vGxgYzopPI0-jjYZtrRY-1">
          <mxGeometry x="463" y="377" width="8" height="8" as="geometry" />
        </mxCell>
      </root>
    </mxGraphModel>
  </diagram>
</mxfile>
